SplineFontDB: 3.0
FontName: NovaSquare-Bold
FullName: Nova Square Bold
FamilyName: Nova Square
Weight: Bold
Copyright: Copyright (c) 2020-2024 by Wojciech Kalinowski "wmk69" with Reserved Font Name "NovaSquare-Bold".\nThis Font Software is licensed under the SIL Open Font License, Version 1.1.
Version: 3.1.0; 2021-05-23
ItalicAngle: 0
UnderlinePosition: -80
UnderlineWidth: 320
Ascent: 1638
Descent: 410
InvalidEm: 0
LayerCount: 2
Layer: 0 1 "Warstwa t+AUIA-a" 1
Layer: 1 1 "Plan pierwszy" 0
XUID: [1021 783 23647091 8360855]
StyleMap: 0x0020
FSType: 0
OS2Version: 3
OS2_WeightWidthSlopeOnly: 0
OS2_UseTypoMetrics: 1
CreationTime: 1260698820
ModificationTime: 1621762277
PfmFamily: 33
TTFWeight: 700
TTFWidth: 5
LineGap: 200
VLineGap: 0
Panose: 2 12 8 4 2 5 3 6 2 4
OS2TypoAscent: 2000
OS2TypoAOffset: 0
OS2TypoDescent: -500
OS2TypoDOffset: 0
OS2TypoLinegap: 200
OS2WinAscent: 2000
OS2WinAOffset: 0
OS2WinDescent: 500
OS2WinDOffset: 0
HheadAscent: 2000
HheadAOffset: 0
HheadDescent: -500
HheadDOffset: 0
OS2SubXSize: 1434
OS2SubYSize: 1331
OS2SubXOff: 0
OS2SubYOff: 287
OS2SupXSize: 1434
OS2SupYSize: 1331
OS2SupXOff: 0
OS2SupYOff: 977
OS2StrikeYSize: 102
OS2StrikeYPos: 512
OS2CapHeight: 1530
OS2XHeight: 1120
OS2Vendor: '    '
OS2CodePages: 20000093.00000000
OS2UnicodeRanges: 8000002f.4000204b.00000000.00000000
Lookup: 258 0 0 "'kern' Horizontal Kerning lookup 0" { "'kern' Horizontal Kerning lookup 0-1 subtable" [307,0,4] } ['kern' ('DFLT' <'dflt' > 'grek' <'dflt' > 'latn' <'dflt' > ) ]
MarkAttachClasses: 1
DEI: 91125
KernClass2: 65 55 "'kern' Horizontal Kerning lookup 0-1 subtable"
 134 A M N Agrave Aacute Acircumflex Atilde Adieresis Aring Ntilde Amacron Abreve Aogonek Nacute Ncommaaccent Ncaron Eng Aringacute uni1E40
 28 B germandbls uni1E02 uni1E9E
 47 C Ccedilla Cacute Ccircumflex Cdotaccent Ccaron
 122 D O Q Eth Ograve Oacute Ocircumflex Otilde Odieresis Oslash Dcaron Dcroat Omacron Obreve Ohungarumlaut Oslashacute uni1E0A

StartChar: .notdef
Encoding: 65536 -1 0
Width: 1034
Flags: W
HStem: 0 118<298 736> 1392 118<298 736>
VStem: 110 188<118 1392> 736 188<118 1392>
LayerCount: 2
Fore
SplineSet
110 0 m 1,0,-1
 110 1510 l 1,1,-1
 924 1510 l 1,2,-1
 924 0 l 1,3,-1
 110 0 l 1,0,-1
298 118 m 1,4,-1
 736 118 l 1,5,-1
 736 1392 l 1,6,-1
 298 1392 l 1,7,-1
 298 118 l 1,4,-1
EndSplineSet
Validated: 19457
EndChar

StartChar: exclam
Encoding: 33 33 4
Width: 640
GlyphClass: 2
Flags: W
HStem: -20 365<202.131 436.878> 1510 20G<427.823 480>
VStem: 140 360<42.5657 282.578> 160 320<542 1383>
LayerCount: 2
Fore
SplineSet
470 1530 m 1,0,-1
 480 1530 l 1,1,-1
 480 542 l 1,2,-1
 170 395 l 1,3,-1
 160 395 l 1,4,-1
 160 1383 l 1,5,-1
 470 1530 l 1,0,-1
320 -20 m 0,6,7
 244 -20 244 -20 192 34 c 128,-1,8
 140 88 140 88 140 162 c 0,9,10
 140 238 140 238 192 291 c 0,11,12
 245 345 245 345 320 345 c 128,-1,13
 395 345 395 345 447.5 291.5 c 128,-1,14
 500 238 500 238 500 163 c 128,-1,15
 500 88 500 88 447 34 c 128,-1,16
 394 -20 394 -20 320 -20 c 0,6,7
EndSplineSet
Validated: 19457
EndChar

StartChar: quotedbl
Encoding: 34 34 5
Width: 510
GlyphClass: 2
Flags: W
HStem: 1100 480
VStem: 30 180<1181 1499> 300 180<1181 1499>
LayerCount: 2
Fore
SplineSet
470 1580 m 1,0,-1
 480 1580 l 1,1,-1
 480 1181 l 1,2,-1
 310 1100 l 1,3,-1
 300 1100 l 1,4,-1
 300 1499 l 1,5,-1
 470 1580 l 1,0,-1
200 1580 m 1,6,-1
 210 1580 l 1,7,-1
 210 1181 l 1,8,-1
 40 1100 l 1,9,-1
 30 1100 l 1,10,-1
 30 1499 l 1,11,-1
 200 1580 l 1,6,-1
EndSplineSet
Validated: 19457
EndChar

StartChar: numbersign
Encoding: 35 35 6
Width: 1408
GlyphClass: 2
Flags: W
HStem: 460 180<190 408 588 820 1000 1218> 872 180<190 408 588 820 1000 1218>
VStem: 408 180<242 460 640 872 1052 1269> 820 180<242 460 640 872 1052 1269>
LayerCount: 2
Fore
SplineSet
578 1350 m 1,0,-1
 588 1350 l 1,1,-1
 588 1052 l 1,2,-1
 820 1052 l 1,3,-1
 820 1269 l 1,4,-1
 990 1350 l 1,5,-1
 1000 1350 l 1,6,-1
 1000 1052 l 1,7,-1
 1298 1052 l 1,8,-1
 1298 1042 l 1,9,-1
 1218 872 l 1,10,-1
 1000 872 l 1,11,-1
 1000 640 l 1,12,-1
 1298 640 l 1,13,-1
 1298 630 l 1,14,-1
 1218 460 l 1,15,-1
 1000 460 l 1,16,-1
 1000 242 l 1,17,-1
 830 161 l 1,18,-1
 820 161 l 1,19,-1
 820 460 l 1,20,-1
 588 460 l 1,21,-1
 588 242 l 1,22,-1
 418 161 l 1,23,-1
 408 161 l 1,24,-1
 408 460 l 1,25,-1
 110 460 l 1,26,-1
 110 470 l 1,27,-1
 190 640 l 1,28,-1
 408 640 l 1,29,-1
 408 872 l 1,30,-1
 110 872 l 1,31,-1
 110 882 l 1,32,-1
 190 1052 l 1,33,-1
 408 1052 l 1,34,-1
 408 1269 l 1,35,-1
 578 1350 l 1,0,-1
820 640 m 1,36,-1
 820 872 l 1,37,-1
 588 872 l 1,38,-1
 588 640 l 1,39,-1
 820 640 l 1,36,-1
EndSplineSet
Validated: 19457
EndChar

StartChar: dollar
Encoding: 36 36 7
Width: 1160
GlyphClass: 2
Flags: W
HStem: 0 300<345.217 515 635 794.783> 683 301<429.406 515 635 794.783> 1220 290<429.406 515 635 720.242>
VStem: 113 310<991.872 1211.17> 515 120<-69 0 300 683 984 1220 1510 1579> 800 320<314.554 669.446>
LayerCount: 2
Fore
SplineSet
710 0 m 2,0,-1
 635 0 l 1,1,-1
 635 -69 l 1,2,-1
 525 -120 l 1,3,-1
 515 -120 l 1,4,-1
 515 0 l 1,5,-1
 430 0 l 2,6,7
 20 0 20 0 20 378 c 1,8,-1
 330 526 l 1,9,-1
 340 526 l 1,10,-1
 340 367 l 2,11,12
 340 300 340 300 420 300 c 2,13,-1
 515 300 l 1,14,-1
 515 683 l 1,15,-1
 473 683 l 2,16,17
 113 683 113 683 113 1023 c 2,18,-1
 113 1170 l 2,19,20
 113 1510 113 1510 473 1510 c 2,21,-1
 515 1510 l 1,22,-1
 515 1579 l 1,23,-1
 625 1630 l 1,24,-1
 635 1630 l 1,25,-1
 635 1510 l 1,26,-1
 677 1510 l 2,27,28
 1034 1510 1034 1510 1037 1179 c 1,29,-1
 737 1036 l 1,30,-1
 727 1036 l 1,31,-1
 727 1158 l 2,32,33
 727 1220 727 1220 647 1220 c 2,34,-1
 635 1220 l 1,35,-1
 635 984 l 1,36,-1
 710 984 l 2,37,38
 1120 984 1120 984 1120 601 c 2,39,-1
 1120 383 l 2,40,41
 1120 0 1120 0 710 0 c 2,0,-1
515 984 m 1,42,-1
 515 1220 l 1,43,-1
 503 1220 l 2,44,45
 423 1220 423 1220 423 1154 c 2,46,-1
 423 1050 l 2,47,48
 423 984 423 984 503 984 c 2,49,-1
 515 984 l 1,42,-1
635 683 m 1,50,-1
 635 300 l 1,51,-1
 720 300 l 2,52,53
 800 300 800 300 800 367 c 2,54,-1
 800 616 l 2,55,56
 800 683 800 683 720 683 c 2,57,-1
 635 683 l 1,50,-1
EndSplineSet
Validated: 19457
EndChar

StartChar: percent
Encoding: 37 37 8
Width: 1946
GlyphClass: 2
Flags: W
HStem: -20 21G<709.053 770.325> 0 206<1306.26 1627.74> 536 213<1306.26 1627.74> 761 213<318.264 639.736> 1304 206<318.264 639.736> 1510 20G<1175.66 1236.77>
VStem: 110 207<982.306 1296.39> 641 207<982.306 1296.39> 1098 207<213.609 527.694> 1629 207<213.609 527.694>
DStem2: 514 93 761 -20 0.423093 0.906086<2.11609 1585.94>
LayerCount: 2
Fore
SplineSet
1572 206 m 2,0,1
 1629 206 1629 206 1629 262 c 2,2,-1
 1629 480 l 2,3,4
 1629 536 1629 536 1572 536 c 2,5,-1
 1362 536 l 2,6,7
 1305 536 1305 536 1305 480 c 2,8,-1
 1305 262 l 2,9,10
 1305 206 1305 206 1362 206 c 2,11,-1
 1572 206 l 2,0,1
1554 0 m 2,12,-1
 1380 0 l 2,13,14
 1098 0 1098 0 1098 279 c 2,15,-1
 1098 470 l 2,16,17
 1098 749 1098 749 1380 749 c 2,18,-1
 1554 749 l 2,19,20
 1836 749 1836 749 1836 470 c 2,21,-1
 1836 279 l 2,22,23
 1836 0 1836 0 1554 0 c 2,12,-1
374 1304 m 2,24,25
 317 1304 317 1304 317 1248 c 2,26,-1
 317 1030 l 2,27,28
 317 974 317 974 374 974 c 2,29,-1
 584 974 l 2,30,31
 641 974 641 974 641 1030 c 2,32,-1
 641 1248 l 2,33,34
 641 1304 641 1304 584 1304 c 2,35,-1
 374 1304 l 2,24,25
392 1510 m 2,36,-1
 566 1510 l 2,37,38
 848 1510 848 1510 848 1231 c 2,39,-1
 848 1040 l 2,40,41
 848 761 848 761 566 761 c 2,42,-1
 392 761 l 2,43,44
 110 761 110 761 110 1040 c 2,45,-1
 110 1231 l 2,46,47
 110 1510 110 1510 392 1510 c 2,36,-1
751 -20 m 1,48,-1
 514 93 l 1,49,-1
 1185 1530 l 1,50,-1
 1195 1530 l 1,51,-1
 1431 1417 l 1,52,-1
 761 -20 l 1,53,-1
 751 -20 l 1,48,-1
EndSplineSet
Validated: 19457
EndChar

StartChar: ampersand
Encoding: 38 38 9
Width: 1692
GlyphClass: 2
Flags: W
HStem: -20 21G<1263.3 1333.17> 0 300<443.443 955.918> 695 260<514.504 642> 1220 290<516.203 814.406>
VStem: 110 320<309.626 688.556> 200 310<962.626 1205.9>
DStem2: 834 955 642 695 0.666352 -0.745637<65.9261 475.935 839.251 1024.86>
LayerCount: 2
Fore
SplineSet
430 624 m 2,0,-1
 430 371 l 2,1,2
 430 300 430 300 507 300 c 2,3,-1
 845 300 l 2,4,5
 916 300 916 300 958 341 c 1,6,-1
 642 695 l 1,7,-1
 506 695 l 2,8,9
 430 695 430 695 430 624 c 2,0,-1
516 0 m 2,10,11
 110 0 110 0 110 377 c 2,12,-1
 110 585 l 2,13,14
 110 796 110 796 250 886 c 1,15,16
 200 960 200 960 200 1067 c 2,17,-1
 200 1164 l 2,18,19
 200 1510 200 1510 613 1510 c 2,20,-1
 724 1510 l 2,21,22
 1108 1510 1108 1510 1134 1193 c 9,23,-1
 833 1050 l 1,24,-1
 823 1050 l 1,25,-1
 823 1149 l 2,26,27
 823 1220 823 1220 742 1220 c 2,28,-1
 591 1220 l 2,29,30
 510 1220 510 1220 510 1149 c 2,31,-1
 510 1031 l 2,32,33
 510 955 510 955 592 955 c 10,34,-1
 834 955 l 1,35,-1
 1151 600 l 1,36,37
 1200 722 1200 722 1210 851 c 1,38,-1
 1525 1000 l 1,39,-1
 1535 1000 l 1,40,41
 1534 612 1534 612 1364 361 c 1,42,-1
 1582 118 l 1,43,-1
 1291 -20 l 1,44,-1
 1281 -20 l 1,45,-1
 1158 119 l 1,46,47
 1032 0 1032 0 845 0 c 2,48,-1
 516 0 l 2,10,11
EndSplineSet
Validated: 19457
EndChar

StartChar: quotesingle
Encoding: 39 39 10
Width: 240
GlyphClass: 2
Flags: W
HStem: 1100 480
VStem: 30 180<1181 1499>
LayerCount: 2
Fore
SplineSet
200 1580 m 1,0,-1
 210 1580 l 1,1,-1
 210 1181 l 1,2,-1
 40 1100 l 1,3,-1
 30 1100 l 1,4,-1
 30 1499 l 1,5,-1
 200 1580 l 1,0,-1
EndSplineSet
Validated: 19457
EndChar

StartChar: parenleft
Encoding: 40 40 11
Width: 756
GlyphClass: 2
Flags: W
HStem: -240 300<485.217 726> 1450 300<485.217 726>
VStem: 160 320<72.0898 1437.91>
LayerCount: 2
Fore
SplineSet
726 -240 m 1,0,-1
 570 -240 l 2,1,2
 160 -240 160 -240 160 140 c 2,3,-1
 160 1370 l 2,4,5
 160 1750 160 1750 570 1750 c 2,6,-1
 726 1750 l 1,7,-1
 726 1449 l 1,8,-1
 560 1450 l 2,9,10
 480 1450 480 1450 480 1379 c 2,11,-1
 480 131 l 2,12,13
 480 60 480 60 560 60 c 2,14,-1
 726 60 l 1,15,-1
 726 -240 l 1,0,-1
EndSplineSet
Validated: 19457
EndChar

StartChar: parenright
Encoding: 41 41 12
Width: 756
GlyphClass: 2
Flags: W
HStem: -240 300<30 270.783> 1449 301<30 270.783>
VStem: 276 320<72.0898 1437.91>
LayerCount: 2
Fore
SplineSet
30 -240 m 1,0,-1
 30 60 l 1,1,-1
 196 60 l 2,2,3
 276 60 276 60 276 131 c 2,4,-1
 276 1379 l 2,5,6
 276 1450 276 1450 196 1450 c 2,7,-1
 30 1449 l 1,8,-1
 30 1750 l 1,9,-1
 186 1750 l 2,10,11
 596 1750 596 1750 596 1370 c 2,12,-1
 596 140 l 2,13,14
 596 -240 596 -240 186 -240 c 2,15,-1
 30 -240 l 1,0,-1
EndSplineSet
Validated: 19457
EndChar

StartChar: asterisk
Encoding: 42 42 13
Width: 790
GlyphClass: 2
Flags: W
VStem: 305 180<921 1054 1366 1499>
DStem2: 190 1432 30 1317 0.866084 -0.499898<0 132.593 444.456 577.049> 30 1103 190 988 0.866084 0.499898<81.0853 213.678 525.542 658.134>
LayerCount: 2
Fore
SplineSet
475 1580 m 1,0,-1
 485 1580 l 1,1,-1
 485 1366 l 1,2,-1
 600 1432 l 1,3,-1
 755 1326 l 1,4,-1
 760 1317 l 1,5,-1
 575 1210 l 1,6,-1
 760 1103 l 1,7,-1
 755 1094 l 1,8,-1
 600 988 l 1,9,-1
 485 1054 l 1,10,-1
 485 921 l 1,11,-1
 315 840 l 1,12,-1
 305 840 l 1,13,-1
 305 1054 l 1,14,-1
 190 988 l 1,15,-1
 35 1094 l 1,16,-1
 30 1103 l 1,17,-1
 215 1210 l 1,18,-1
 30 1317 l 1,19,-1
 35 1326 l 1,20,-1
 190 1432 l 1,21,-1
 305 1366 l 1,22,-1
 305 1499 l 1,23,-1
 475 1580 l 1,0,-1
EndSplineSet
Validated: 19457
EndChar

StartChar: plus
Encoding: 43 43 14
Width: 1240
GlyphClass: 2
Flags: W
HStem: 620 270<235 485 755 1005>
VStem: 485 270<370 620 890 1140>
LayerCount: 2
Fore
SplineSet
745 1265 m 1,0,-1
 755 1265 l 1,1,-1
 755 890 l 1,2,-1
 1130 890 l 1,3,-1
 1130 880 l 1,4,-1
 1005 620 l 1,5,-1
 755 620 l 1,6,-1
 755 370 l 1,7,-1
 495 245 l 1,8,-1
 485 245 l 1,9,-1
 485 620 l 1,10,-1
 110 620 l 1,11,-1
 110 630 l 1,12,-1
 235 890 l 1,13,-1
 485 890 l 1,14,-1
 485 1140 l 1,15,-1
 745 1265 l 1,0,-1
EndSplineSet
Validated: 19457
EndChar

StartChar: comma
Encoding: 44 44 15
Width: 496
GlyphClass: 2
Flags: W
HStem: -328 666
VStem: 202 264<-112.817 113.6>
LayerCount: 2
Fore
SplineSet
30 212 m 1,0,-1
 299 338 l 1,1,-1
 309 338 l 1,2,3
 466 236 466 236 466 54 c 0,4,5
 466 -203 466 -203 130 -328 c 1,6,-1
 123 -321 l 1,7,8
 202 -172 202 -172 202 -24 c 0,9,10
 202 132 202 132 30 212 c 1,0,-1
EndSplineSet
Validated: 19457
EndChar

StartChar: hyphen
Encoding: 45 45 16
Width: 1240
GlyphClass: 2
Flags: W
HStem: 620 270<235 1005>
LayerCount: 2
Fore
SplineSet
235 890 m 1,0,-1
 1130 890 l 1,1,-1
 1130 880 l 1,2,-1
 1005 620 l 1,3,-1
 110 620 l 1,4,-1
 110 630 l 1,5,-1
 235 890 l 1,0,-1
EndSplineSet
Validated: 19457
EndChar

StartChar: period
Encoding: 46 46 17
Width: 420
GlyphClass: 2
Flags: W
HStem: -20 365<92.1309 326.878>
VStem: 30 360<42.5657 282.578>
LayerCount: 2
Fore
SplineSet
210 -20 m 0,0,1
 134 -20 134 -20 82 34 c 128,-1,2
 30 88 30 88 30 162 c 0,3,4
 30 238 30 238 82 291 c 0,5,6
 135 345 135 345 210 345 c 128,-1,7
 285 345 285 345 337.5 291.5 c 128,-1,8
 390 238 390 238 390 163 c 128,-1,9
 390 88 390 88 337 34 c 128,-1,10
 284 -20 284 -20 210 -20 c 0,0,1
EndSplineSet
Validated: 19457
EndChar

StartChar: slash
Encoding: 47 47 18
Width: 1105
GlyphClass: 2
Flags: W
DStem2: 10 -87 257 -200 0.423051 0.906106<2.10366 1983.21>
LayerCount: 2
Fore
SplineSet
247 -200 m 1,0,-1
 10 -87 l 1,1,-1
 849 1710 l 1,2,-1
 859 1710 l 1,3,-1
 1095 1597 l 1,4,-1
 257 -200 l 1,5,-1
 247 -200 l 1,0,-1
EndSplineSet
Validated: 1
EndChar

StartChar: zero
Encoding: 48 48 19
Width: 1370
GlyphClass: 2
Flags: W
HStem: 0 300<445.217 924.783> 1210 300<445.217 924.783>
VStem: 120 320<312.09 1197.91> 930 320<312.09 1197.91>
LayerCount: 2
Fore
SplineSet
520 300 m 2,0,-1
 850 300 l 2,1,2
 930 300 930 300 930 371 c 2,3,-1
 930 1139 l 2,4,5
 930 1210 930 1210 850 1210 c 2,6,-1
 520 1210 l 2,7,8
 440 1210 440 1210 440 1139 c 2,9,-1
 440 371 l 2,10,11
 440 300 440 300 520 300 c 2,0,-1
530 0 m 2,12,13
 120 0 120 0 120 380 c 2,14,-1
 120 1130 l 2,15,16
 120 1510 120 1510 530 1510 c 2,17,-1
 840 1510 l 2,18,19
 1250 1510 1250 1510 1250 1130 c 2,20,-1
 1250 380 l 2,21,22
 1250 0 1250 0 840 0 c 2,23,-1
 530 0 l 2,12,13
EndSplineSet
Validated: 19457
EndChar

StartChar: one
Encoding: 49 49 20
Width: 794
GlyphClass: 2
Flags: W
HStem: -20 21G<264 316.177> 1510 20G<531.871 584>
VStem: 264 320<127 1078>
LayerCount: 2
Fore
SplineSet
274 -20 m 1,0,-1
 264 -20 l 1,1,-1
 264 1078 l 1,2,-1
 20 973 l 1,3,-1
 20 1267 l 1,4,-1
 574 1530 l 1,5,-1
 584 1530 l 1,6,-1
 584 127 l 1,7,-1
 274 -20 l 1,0,-1
EndSplineSet
Validated: 1
EndChar

StartChar: two
Encoding: 50 50 21
Width: 1273
GlyphClass: 2
Flags: W
HStem: 0 300<620 1047> 1210 300<415.217 844.783>
VStem: 850 320<864.13 1197.91>
DStem2: 622 667 620 300 0.784375 0.620287<-229.214 277.535>
LayerCount: 2
Fore
SplineSet
40 0 m 1,0,-1
 40 10 l 1,1,-1
 187 323 l 1,2,-1
 622 667 l 2,3,4
 850 847 850 847 850 1007 c 2,5,-1
 850 1139 l 2,6,7
 850 1210 850 1210 770 1210 c 2,8,-1
 490 1210 l 2,9,10
 410 1210 410 1210 410 1139 c 2,11,-1
 410 1100 l 1,12,-1
 100 952 l 1,13,-1
 90 952 l 1,14,-1
 90 1130 l 2,15,16
 90 1510 90 1510 500 1510 c 2,17,-1
 760 1510 l 2,18,19
 1170 1510 1170 1510 1170 1130 c 2,20,-1
 1170 1018 l 2,21,22
 1170 737 1170 737 883 509 c 2,23,-1
 620 300 l 1,24,-1
 1183 300 l 1,25,-1
 1183 290 l 1,26,-1
 1047 0 l 1,27,-1
 40 0 l 1,0,-1
EndSplineSet
Validated: 19457
EndChar

StartChar: three
Encoding: 51 51 22
Width: 1230
GlyphClass: 2
Flags: W
HStem: 0 300<385.217 824.783> 1210 300<308 626>
VStem: 830 320<312.09 688.337>
LayerCount: 2
Fore
SplineSet
470 0 m 2,0,1
 60 0 60 0 60 388 c 1,2,-1
 370 536 l 1,3,-1
 380 536 l 1,4,-1
 380 371 l 2,5,6
 380 300 380 300 460 300 c 2,7,-1
 750 300 l 2,8,9
 830 300 830 300 830 371 c 2,10,-1
 830 627 l 2,11,12
 830 698 830 698 750 698 c 2,13,-1
 441 698 l 17,14,-1
 368 780 l 1,15,-1
 626 1210 l 1,16,-1
 172 1210 l 1,17,-1
 172 1220 l 1,18,-1
 308 1510 l 1,19,-1
 1139 1510 l 1,20,-1
 825 993 l 1,21,22
 1150 956 1150 956 1150 618 c 2,23,-1
 1150 380 l 2,24,25
 1150 0 1150 0 740 0 c 2,26,-1
 470 0 l 2,0,1
EndSplineSet
Validated: 19457
EndChar

StartChar: four
Encoding: 52 52 23
Width: 1317
GlyphClass: 2
Flags: W
HStem: -20 21G<787 839.177> 304 300<532 787 1107 1121> 1510 20G<1054.79 1107>
VStem: 787 320<127 304 604 965>
DStem2: 10 314 532 604 0.582974 0.812491<539.935 981.902>
LayerCount: 2
Fore
SplineSet
532 604 m 1,0,-1
 787 604 l 1,1,-1
 787 965 l 1,2,-1
 532 604 l 1,0,-1
797 -20 m 1,3,-1
 787 -20 l 1,4,-1
 787 304 l 1,5,-1
 10 304 l 1,6,-1
 10 314 l 1,7,-1
 772 1376 l 1,8,-1
 1097 1530 l 1,9,-1
 1107 1530 l 1,10,-1
 1107 604 l 1,11,-1
 1257 604 l 1,12,-1
 1257 594 l 1,13,-1
 1121 304 l 1,14,-1
 1107 304 l 1,15,-1
 1107 127 l 1,16,-1
 797 -20 l 1,3,-1
EndSplineSet
Validated: 1
EndChar

StartChar: five
Encoding: 53 53 24
Width: 1230
GlyphClass: 2
Flags: W
HStem: 0 300<385.217 824.783> 698 300<492 824.783> 1210 300<551 968>
VStem: 830 320<312.09 685.91>
LayerCount: 2
Fore
SplineSet
470 0 m 2,0,1
 60 0 60 0 60 388 c 1,2,-1
 370 536 l 1,3,-1
 380 536 l 1,4,-1
 380 371 l 2,5,6
 380 300 380 300 460 300 c 2,7,-1
 750 300 l 2,8,9
 830 300 830 300 830 371 c 2,10,-1
 830 627 l 2,11,12
 830 698 830 698 750 698 c 2,13,-1
 477 698 l 2,14,15
 397 698 397 698 397 636 c 1,16,-1
 114 761 l 1,17,-1
 304 1510 l 1,18,-1
 1104 1510 l 1,19,-1
 1104 1500 l 1,20,-1
 968 1210 l 1,21,-1
 551 1210 l 1,22,-1
 492 998 l 9,23,-1
 740 998 l 2,24,25
 1150 998 1150 998 1150 618 c 2,26,-1
 1150 380 l 2,27,28
 1150 0 1150 0 740 0 c 2,29,-1
 470 0 l 2,0,1
EndSplineSet
Validated: 19457
EndChar

StartChar: six
Encoding: 54 54 25
Width: 1320
GlyphClass: 2
Flags: W
HStem: 0 300<445.217 884.783> 630 300<444.219 884.783> 1210 300<445.217 884.783>
VStem: 120 320<312.09 625.562 920 1197.91> 890 320<312.09 624.48 1122 1202.23>
LayerCount: 2
Fore
SplineSet
890 559 m 2,0,1
 890 630 890 630 810 630 c 2,2,-1
 520 630 l 2,3,4
 440 630 440 630 440 559 c 2,5,-1
 440 371 l 2,6,7
 440 300 440 300 520 300 c 2,8,-1
 810 300 l 2,9,10
 890 300 890 300 890 371 c 2,11,-1
 890 559 l 2,0,1
800 0 m 2,12,-1
 530 0 l 2,13,14
 120 0 120 0 120 380 c 2,15,-1
 120 1130 l 2,16,17
 120 1510 120 1510 530 1510 c 2,18,-1
 800 1510 l 2,19,20
 1210 1510 1210 1510 1210 1122 c 1,21,-1
 900 974 l 1,22,-1
 890 974 l 1,23,-1
 890 1139 l 2,24,25
 890 1210 890 1210 810 1210 c 2,26,-1
 520 1210 l 2,27,28
 440 1210 440 1210 440 1139 c 2,29,-1
 440 920 l 1,30,31
 485 930 485 930 530 930 c 2,32,-1
 800 930 l 2,33,34
 1210 930 1210 930 1210 558 c 2,35,-1
 1210 380 l 2,36,37
 1210 0 1210 0 800 0 c 2,12,-1
EndSplineSet
Validated: 19457
EndChar

StartChar: seven
Encoding: 55 55 26
Width: 1098
GlyphClass: 2
Flags: W
HStem: -20 21G<132 184.412> 1210 300<146 626>
DStem2: 132 -20 564 179 0.36872 0.92954<344.266 1325.48>
LayerCount: 2
Fore
SplineSet
142 -20 m 1,0,-1
 132 -20 l 1,1,-1
 626 1210 l 1,2,-1
 10 1210 l 1,3,-1
 10 1220 l 1,4,-1
 146 1510 l 1,5,-1
 1088 1510 l 1,6,-1
 1088 1500 l 1,7,-1
 564 179 l 1,8,-1
 142 -20 l 1,0,-1
EndSplineSet
Validated: 1
EndChar

StartChar: eight
Encoding: 56 56 27
Width: 1260
GlyphClass: 2
Flags: W
HStem: 0 300<395.217 864.783> 676 285<462.812 797.188> 1225 285<462.812 797.188>
VStem: 70 320<312.09 671.133> 160 300<965.932 1219.35> 800 300<965.932 1219.35> 870 320<312.09 671.133>
LayerCount: 2
Fore
SplineSet
470 300 m 2,0,1
 790 300 l 2,2,3
 870 300 870 300 870 367 c 2,4,-1
 870 609 l 2,5,6
 870 676 870 676 790 676 c 2,7,-1
 470 676 l 2,8,9
 390 676 390 676 390 609 c 2,10,-1
 390 367 l 2,11,12
 390 300 390 300 470 300 c 2,0,1
540 961 m 2,13,-1
 720 961 l 2,14,15
 800 961 800 961 800 1027 c 2,16,-1
 800 1159 l 2,17,18
 800 1225 800 1225 720 1225 c 2,19,-1
 540 1225 l 2,20,21
 460 1225 460 1225 460 1159 c 2,22,-1
 460 1027 l 2,23,24
 460 961 460 961 540 961 c 2,13,-1
480 0 m 2,25,26
 70 0 70 0 70 380 c 2,27,-1
 70 590 l 2,28,29
 70 802 70 802 210 893 c 1,30,31
 160 966 160 966 160 1072 c 2,32,-1
 160 1168 l 2,33,34
 160 1510 160 1510 570 1510 c 2,35,-1
 690 1510 l 2,36,37
 1100 1510 1100 1510 1100 1168 c 2,38,-1
 1100 1072 l 2,39,40
 1100 966 1100 966 1050 893 c 1,41,42
 1190 802 1190 802 1190 590 c 2,43,-1
 1190 380 l 2,44,45
 1190 0 1190 0 780 0 c 2,46,-1
 480 0 l 2,25,26
EndSplineSet
Validated: 19457
EndChar

StartChar: nine
Encoding: 57 57 28
Width: 1320
GlyphClass: 2
Flags: W
HStem: 0 300<435.217 874.783> 580 300<435.217 875.781> 1210 300<435.217 874.783>
VStem: 110 320<307.767 388 885.52 1197.91> 880 320<312.09 590 884.438 1197.91>
LayerCount: 2
Fore
SplineSet
430 951 m 2,0,1
 430 880 430 880 510 880 c 2,2,-1
 800 880 l 2,3,4
 880 880 880 880 880 951 c 2,5,-1
 880 1139 l 2,6,7
 880 1210 880 1210 800 1210 c 2,8,-1
 510 1210 l 2,9,10
 430 1210 430 1210 430 1139 c 2,11,-1
 430 951 l 2,0,1
520 0 m 2,12,13
 110 0 110 0 110 388 c 1,14,-1
 420 536 l 1,15,-1
 430 536 l 1,16,-1
 430 371 l 2,17,18
 430 300 430 300 510 300 c 2,19,-1
 800 300 l 2,20,21
 880 300 880 300 880 371 c 2,22,-1
 880 590 l 1,23,24
 835 580 835 580 790 580 c 2,25,-1
 520 580 l 2,26,27
 110 580 110 580 110 952 c 2,28,-1
 110 1130 l 2,29,30
 110 1510 110 1510 520 1510 c 2,31,-1
 790 1510 l 2,32,33
 1200 1510 1200 1510 1200 1130 c 2,34,-1
 1200 380 l 2,35,36
 1200 0 1200 0 790 0 c 2,37,-1
 520 0 l 2,12,13
EndSplineSet
Validated: 19457
EndChar

StartChar: colon
Encoding: 58 58 29
Width: 420
GlyphClass: 2
Flags: W
HStem: -20 365<92.1309 326.878> 573 365<92.1309 326.878>
VStem: 30 360<42.5657 282.578 635.566 875.578>
LayerCount: 2
Fore
SplineSet
210 938 m 128,-1,1
 285 938 285 938 337.5 884.5 c 128,-1,2
 390 831 390 831 390 756 c 128,-1,3
 390 681 390 681 337 627 c 128,-1,4
 284 573 284 573 210 573 c 0,5,6
 134 573 134 573 82 627 c 128,-1,7
 30 681 30 681 30 755 c 0,8,9
 30 831 30 831 82 884 c 0,10,0
 135 938 135 938 210 938 c 128,-1,1
210 -20 m 0,11,12
 134 -20 134 -20 82 34 c 128,-1,13
 30 88 30 88 30 162 c 0,14,15
 30 238 30 238 82 291 c 0,16,17
 135 345 135 345 210 345 c 128,-1,18
 285 345 285 345 337.5 291.5 c 128,-1,19
 390 238 390 238 390 163 c 128,-1,20
 390 88 390 88 337 34 c 128,-1,21
 284 -20 284 -20 210 -20 c 0,11,12
EndSplineSet
Validated: 19457
EndChar

StartChar: semicolon
Encoding: 59 59 30
Width: 496
GlyphClass: 2
Flags: W
HStem: 573 365<130.131 364.878>
VStem: 68 360<635.566 875.578> 202 264<-112.817 113.6>
LayerCount: 2
Fore
SplineSet
30 212 m 1,0,-1
 299 338 l 1,1,-1
 309 338 l 1,2,3
 466 236 466 236 466 54 c 0,4,5
 466 -203 466 -203 130 -328 c 1,6,-1
 123 -321 l 1,7,8
 202 -172 202 -172 202 -24 c 0,9,10
 202 132 202 132 30 212 c 1,0,-1
248 938 m 128,-1,12
 323 938 323 938 375.5 884.5 c 128,-1,13
 428 831 428 831 428 756 c 128,-1,14
 428 681 428 681 375 627 c 128,-1,15
 322 573 322 573 248 573 c 0,16,17
 172 573 172 573 120 627 c 128,-1,18
 68 681 68 681 68 755 c 0,19,20
 68 831 68 831 120 884 c 0,21,11
 173 938 173 938 248 938 c 128,-1,12
EndSplineSet
Validated: 19457
EndChar

StartChar: less
Encoding: 60 60 31
Width: 1355
GlyphClass: 2
Flags: W
DStem2: 586 751 110 638 0.942398 -0.334493<0 620.627> 227 891 586 751 0.937801 0.347172<288.067 915.972>
LayerCount: 2
Fore
SplineSet
110 638 m 1,0,-1
 110 648 l 1,1,-1
 227 891 l 1,2,-1
 1086 1209 l 1,3,-1
 1195 983 l 1,4,-1
 1195 973 l 1,5,-1
 586 751 l 1,6,-1
 1195 539 l 1,7,-1
 1195 529 l 1,8,-1
 1082 293 l 1,9,-1
 110 638 l 1,0,-1
EndSplineSet
Validated: 19457
EndChar

StartChar: equal
Encoding: 61 61 32
Width: 1240
GlyphClass: 2
Flags: W
HStem: 390 270<235 1005> 850 270<235 1005>
LayerCount: 2
Fore
SplineSet
235 660 m 1,0,-1
 1130 660 l 1,1,-1
 1130 650 l 1,2,-1
 1005 390 l 1,3,-1
 110 390 l 1,4,-1
 110 400 l 1,5,-1
 235 660 l 1,0,-1
235 1120 m 1,6,-1
 1130 1120 l 1,7,-1
 1130 1110 l 1,8,-1
 1005 850 l 1,9,-1
 110 850 l 1,10,-1
 110 860 l 1,11,-1
 235 1120 l 1,6,-1
EndSplineSet
Validated: 19457
EndChar

StartChar: greater
Encoding: 62 62 33
Width: 1355
GlyphClass: 2
Flags: W
DStem2: 273 1217 160 971 0.942398 -0.334493<0 620.627> 160 537 269 301 0.937801 0.347172<20.2877 648.193>
LayerCount: 2
Fore
SplineSet
1245 872 m 1,0,-1
 1245 862 l 1,1,-1
 1128 619 l 1,2,-1
 269 301 l 1,3,-1
 160 527 l 1,4,-1
 160 537 l 1,5,-1
 769 759 l 1,6,-1
 160 971 l 1,7,-1
 160 981 l 1,8,-1
 273 1217 l 1,9,-1
 1245 872 l 1,0,-1
EndSplineSet
Validated: 19457
EndChar

StartChar: question
Encoding: 63 63 34
Width: 1300
GlyphClass: 2
Flags: W
HStem: -20 365<487.131 721.878> 1210 300<435.217 864.783>
VStem: 425 360<42.5657 282.578> 870 320<896.936 1197.91>
LayerCount: 2
Fore
SplineSet
520 1510 m 2,0,-1
 780 1510 l 2,1,2
 1190 1510 1190 1510 1190 1130 c 2,3,-1
 1190 1056 l 2,4,5
 1190 736 1190 736 828 571 c 0,6,7
 771 545 771 545 771 506 c 1,8,-1
 458 359 l 1,9,-1
 448 359 l 1,10,11
 448 692 448 692 691 796 c 0,12,13
 870 872 870 872 870 1038 c 2,14,-1
 870 1139 l 2,15,16
 870 1210 870 1210 790 1210 c 2,17,-1
 510 1210 l 2,18,19
 430 1210 430 1210 430 1139 c 2,20,-1
 430 1100 l 1,21,-1
 120 952 l 1,22,-1
 110 952 l 1,23,-1
 110 1130 l 2,24,25
 110 1510 110 1510 520 1510 c 2,0,-1
605 -20 m 0,26,27
 529 -20 529 -20 477 34 c 128,-1,28
 425 88 425 88 425 162 c 0,29,30
 425 238 425 238 477 291 c 0,31,32
 530 345 530 345 605 345 c 128,-1,33
 680 345 680 345 732.5 291.5 c 128,-1,34
 785 238 785 238 785 163 c 128,-1,35
 785 88 785 88 732 34 c 128,-1,36
 679 -20 679 -20 605 -20 c 0,26,27
EndSplineSet
Validated: 19457
EndChar

StartChar: at
Encoding: 64 64 35
Width: 1420
GlyphClass: 2
Flags: W
HStem: -410 280<453.906 706> 0 220<803.896 980> 441 221<803.896 977> 820 280<453.906 966.094>
VStem: 140 300<-119.062 809.062> 558 240<221.405 439.107> 980 300<220 441 662 809.684>
LayerCount: 2
Fore
SplineSet
1031 0 m 1,0,-1
 868 0 l 2,1,2
 558 0 558 0 558 311 c 2,3,-1
 558 381 l 2,4,5
 558 662 558 662 868 662 c 2,6,-1
 977 662 l 1,7,-1
 977 768 l 2,8,9
 977 820 977 820 897 820 c 10,10,-1
 520 820 l 2,11,12
 440 820 440 820 440 749 c 2,13,-1
 440 -59 l 2,14,15
 440 -130 440 -130 520 -130 c 2,16,-1
 836 -130 l 1,17,-1
 836 -140 l 1,18,-1
 706 -410 l 1,19,-1
 550 -410 l 2,20,21
 140 -410 140 -410 140 -30 c 2,22,-1
 140 720 l 2,23,24
 140 1100 140 1100 550 1100 c 2,25,-1
 870 1100 l 2,26,27
 1280 1100 1280 1100 1280 734 c 2,28,-1
 1280 118 l 1,29,-1
 1031 0 l 1,0,-1
980 220 m 1,30,-1
 980 441 l 1,31,-1
 838 441 l 2,32,33
 798 441 798 441 798 412 c 2,34,35
 798 251 l 2,36,37
 798 220 798 220 838 220 c 2,38,-1
 980 220 l 1,30,-1
EndSplineSet
Validated: 19457
EndChar

StartChar: A
Encoding: 65 65 36
Width: 1410
GlyphClass: 2
Flags: W
HStem: -20 21G<140 192.177 950 1002.18> 605 300<460 950> 1210 300<465.217 944.783>
VStem: 140 320<127 605 905 1197.91> 950 320<127 605 905 1197.91>
LayerCount: 2
Fore
SplineSet
150 -20 m 1,0,-1
 140 -20 l 1,1,-1
 140 1130 l 2,2,3
 140 1510 140 1510 550 1510 c 2,4,-1
 860 1510 l 2,5,6
 1270 1510 1270 1510 1270 1130 c 2,7,-1
 1270 127 l 1,8,-1
 960 -20 l 1,9,-1
 950 -20 l 1,10,-1
 950 605 l 1,11,-1
 460 605 l 1,12,-1
 460 127 l 1,13,-1
 150 -20 l 1,0,-1
460 905 m 1,14,-1
 950 905 l 1,15,-1
 950 1139 l 2,16,17
 950 1210 950 1210 870 1210 c 2,18,19
 540 1210 l 2,20,21
 460 1210 460 1210 460 1139 c 2,22,-1
 460 905 l 1,14,-1
EndSplineSet
Validated: 19457
EndChar

StartChar: B
Encoding: 66 66 37
Width: 1300
GlyphClass: 2
Flags: W
HStem: 0 300<480 924.783> 676 285<480 857.188> 1225 285<480 857.188>
VStem: 160 320<300 676 961 1225> 860 300<965.932 1219.35> 930 320<312.09 671.133>
LayerCount: 2
Fore
SplineSet
480 300 m 1,0,-1
 850 300 l 2,1,2
 930 300 930 300 930 367 c 2,3,-1
 930 609 l 2,4,5
 930 676 930 676 850 676 c 2,6,-1
 480 676 l 1,7,-1
 480 300 l 1,0,-1
160 0 m 1,8,-1
 160 1384 l 1,9,-1
 428 1510 l 1,10,-1
 750 1510 l 2,11,12
 1160 1510 1160 1510 1160 1168 c 2,13,-1
 1160 1072 l 2,14,15
 1160 966 1160 966 1110 893 c 1,16,17
 1250 802 1250 802 1250 590 c 2,18,-1
 1250 380 l 2,19,20
 1250 0 1250 0 840 0 c 2,21,-1
 160 0 l 1,8,-1
480 961 m 1,22,-1
 780 961 l 2,23,24
 860 961 860 961 860 1027 c 2,25,-1
 860 1159 l 2,26,27
 860 1225 860 1225 780 1225 c 2,28,-1
 480 1225 l 1,29,-1
 480 961 l 1,22,-1
EndSplineSet
Validated: 19457
EndChar

StartChar: C
Encoding: 67 67 38
Width: 1250
GlyphClass: 2
Flags: W
HStem: 0 300<445.217 884.783> 1210 300<445.217 884.783>
VStem: 120 320<312.09 1197.91> 890 320<312.09 410 1122 1202.23>
LayerCount: 2
Fore
SplineSet
530 0 m 2,0,1
 120 0 120 0 120 380 c 2,2,-1
 120 1130 l 2,3,4
 120 1510 120 1510 530 1510 c 2,5,-1
 800 1510 l 2,6,7
 1210 1510 1210 1510 1210 1122 c 1,8,-1
 900 974 l 1,9,-1
 890 974 l 1,10,-1
 890 1139 l 2,11,12
 890 1210 890 1210 810 1210 c 2,13,-1
 520 1210 l 2,14,15
 440 1210 440 1210 440 1139 c 2,16,-1
 440 371 l 2,17,18
 440 300 440 300 520 300 c 2,19,-1
 810 300 l 2,20,21
 890 300 890 300 890 371 c 2,22,-1
 890 410 l 1,23,-1
 1200 558 l 1,24,-1
 1210 558 l 1,25,-1
 1210 380 l 2,26,27
 1210 0 1210 0 800 0 c 2,28,-1
 530 0 l 2,0,1
EndSplineSet
Validated: 19457
EndChar

StartChar: D
Encoding: 68 68 39
Width: 1390
GlyphClass: 2
Flags: W
HStem: 0 300<480 944.783> 1210 300<480 944.783>
VStem: 160 320<300 1210> 950 320<312.09 1197.91>
LayerCount: 2
Fore
SplineSet
480 300 m 1,0,-1
 870 300 l 2,1,2
 950 300 950 300 950 371 c 2,3,-1
 950 1139 l 2,4,5
 950 1210 950 1210 870 1210 c 2,6,-1
 480 1210 l 1,7,-1
 480 300 l 1,0,-1
160 0 m 1,8,-1
 160 1383 l 1,9,-1
 428 1510 l 1,10,-1
 860 1510 l 2,11,12
 1270 1510 1270 1510 1270 1130 c 2,13,-1
 1270 380 l 2,14,15
 1270 0 1270 0 860 0 c 2,16,-1
 160 0 l 1,8,-1
EndSplineSet
Validated: 19457
EndChar

StartChar: E
Encoding: 69 69 40
Width: 1100
GlyphClass: 2
Flags: W
HStem: 0 300<480 954> 605 300<480 904> 1210 300<480 904>
VStem: 160 320<300 605 905 1210>
CounterMasks: 1 e0
LayerCount: 2
Fore
SplineSet
160 0 m 1,0,-1
 160 1384 l 1,1,-1
 428 1510 l 1,2,-1
 1040 1510 l 1,3,-1
 1040 1500 l 1,4,-1
 904 1210 l 1,5,-1
 480 1210 l 1,6,-1
 480 905 l 1,7,-1
 1040 905 l 1,8,-1
 1040 895 l 1,9,-1
 904 605 l 1,10,-1
 480 605 l 1,11,-1
 480 300 l 1,12,-1
 1090 300 l 1,13,-1
 1090 290 l 1,14,-1
 954 0 l 1,15,-1
 160 0 l 1,0,-1
EndSplineSet
Validated: 19457
EndChar

StartChar: F
Encoding: 70 70 41
Width: 1050
GlyphClass: 2
Flags: W
HStem: -20 21G<160 212.177> 605 300<480 904> 1210 300<480 904>
VStem: 160 320<127 605 905 1210>
LayerCount: 2
Fore
SplineSet
170 -20 m 1,0,-1
 160 -20 l 1,1,-1
 160 1384 l 1,2,-1
 428 1510 l 1,3,-1
 1040 1510 l 1,4,-1
 1040 1500 l 1,5,-1
 904 1210 l 1,6,-1
 480 1210 l 1,7,-1
 480 905 l 1,8,-1
 1040 905 l 1,9,-1
 1040 895 l 1,10,-1
 904 605 l 1,11,-1
 480 605 l 1,12,-1
 480 127 l 1,13,-1
 170 -20 l 1,0,-1
EndSplineSet
Validated: 19457
EndChar

StartChar: G
Encoding: 71 71 42
Width: 1330
GlyphClass: 2
Flags: W
HStem: 0 300<445.217 884.783> 605 300<698 890> 1210 300<445.217 884.783>
VStem: 120 320<312.09 1197.91> 890 320<312.09 605 1122 1202.23>
CounterMasks: 1 e0
LayerCount: 2
Fore
SplineSet
530 0 m 2,0,1
 120 0 120 0 120 380 c 2,2,-1
 120 1130 l 2,3,4
 120 1510 120 1510 530 1510 c 2,5,-1
 800 1510 l 2,6,7
 1210 1510 1210 1510 1210 1122 c 1,8,-1
 900 974 l 1,9,-1
 890 974 l 1,10,-1
 890 1139 l 2,11,12
 890 1210 890 1210 810 1210 c 2,13,-1
 520 1210 l 2,14,15
 440 1210 440 1210 440 1139 c 2,16,-1
 440 371 l 2,17,18
 440 300 440 300 520 300 c 2,19,-1
 810 300 l 2,20,21
 890 300 890 300 890 371 c 2,22,-1
 890 605 l 1,23,-1
 562 605 l 1,24,-1
 562 615 l 1,25,-1
 698 905 l 1,26,-1
 1210 905 l 1,27,-1
 1210 380 l 2,28,29
 1210 0 1210 0 800 0 c 2,30,-1
 530 0 l 2,0,1
EndSplineSet
Validated: 19457
EndChar

StartChar: H
Encoding: 72 72 43
Width: 1440
GlyphClass: 2
Flags: W
HStem: -20 21G<160 212.177 960 1012.18> 605 300<480 960> 1510 20G<427.823 480 1227.82 1280>
VStem: 160 320<127 605 905 1383> 960 320<127 605 905 1383>
LayerCount: 2
Fore
SplineSet
170 -20 m 1,0,-1
 160 -20 l 1,1,-1
 160 1383 l 1,2,-1
 470 1530 l 1,3,-1
 480 1530 l 1,4,-1
 480 905 l 1,5,-1
 960 905 l 1,6,-1
 960 1383 l 1,7,-1
 1270 1530 l 1,8,-1
 1280 1530 l 1,9,-1
 1280 127 l 1,10,-1
 970 -20 l 1,11,-1
 960 -20 l 1,12,-1
 960 605 l 1,13,-1
 480 605 l 1,14,-1
 480 127 l 1,15,-1
 170 -20 l 1,0,-1
EndSplineSet
Validated: 19457
EndChar

StartChar: I
Encoding: 73 73 44
Width: 640
GlyphClass: 2
Flags: W
HStem: -20 21G<160 212.177> 1510 20G<427.823 480>
VStem: 160 320<127 1383>
LayerCount: 2
Fore
SplineSet
170 -20 m 1,0,-1
 160 -20 l 1,1,-1
 160 1383 l 1,2,-1
 470 1530 l 1,3,-1
 480 1530 l 1,4,-1
 480 127 l 1,5,-1
 170 -20 l 1,0,-1
EndSplineSet
Validated: 19457
EndChar

StartChar: J
Encoding: 74 74 45
Width: 1180
GlyphClass: 2
Flags: W
HStem: 0 300<335.217 734.783> 1210 300<231 740>
VStem: 740 320<312.09 1210>
LayerCount: 2
Fore
SplineSet
650 0 m 2,0,-1
 420 0 l 2,1,2
 10 0 10 0 10 389 c 1,3,-1
 320 535 l 1,4,-1
 330 535 l 1,5,-1
 330 371 l 2,6,7
 330 300 330 300 410 300 c 2,8,-1
 660 300 l 2,9,10
 740 300 740 300 740 371 c 2,11,-1
 740 1210 l 1,12,-1
 95 1210 l 1,13,-1
 95 1220 l 1,14,-1
 231 1510 l 1,15,-1
 1060 1510 l 1,16,-1
 1060 380 l 2,17,18
 1060 0 1060 0 650 0 c 2,0,-1
EndSplineSet
Validated: 19457
EndChar

StartChar: K
Encoding: 75 75 46
Width: 1374
GlyphClass: 2
Flags: W
HStem: -20 21G<160 212.177 930 982.177> 1510 20G<427.823 480 949.836 1023.33>
VStem: 160 320<127 745.562 1066 1383> 930 320<127 735.871>
DStem2: 480 1066 867 1050 0.726808 0.686841<270.285 675.557>
LayerCount: 2
Fore
SplineSet
170 -20 m 1,0,-1
 160 -20 l 1,1,-1
 160 1383 l 1,2,-1
 470 1530 l 1,3,-1
 480 1530 l 1,4,-1
 480 1066 l 1,5,-1
 971 1530 l 1,6,-1
 981 1530 l 1,7,-1
 1254 1401 l 1,8,-1
 867 1050 l 1,9,10
 1250 1038 1250 1038 1250 670 c 2,11,-1
 1250 127 l 1,12,-1
 940 -20 l 1,13,-1
 930 -20 l 1,14,-1
 930 679 l 2,15,16
 930 750 930 750 850 750 c 2,17,-1
 560 750 l 2,18,19
 480 750 480 750 480 679 c 2,20,-1
 480 127 l 1,21,-1
 170 -20 l 1,0,-1
EndSplineSet
Validated: 19457
EndChar

StartChar: L
Encoding: 76 76 47
Width: 1100
GlyphClass: 2
Flags: W
HStem: 0 300<480 954> 1510 20G<427.534 480>
VStem: 160 320<300 1384>
LayerCount: 2
Fore
SplineSet
160 0 m 1,0,-1
 160 1384 l 1,1,-1
 470 1530 l 1,2,-1
 480 1530 l 1,3,-1
 480 300 l 1,4,-1
 1090 300 l 1,5,-1
 1090 290 l 1,6,-1
 954 0 l 1,7,-1
 160 0 l 1,0,-1
EndSplineSet
Validated: 19457
EndChar

StartChar: M
Encoding: 77 77 48
Width: 2220
GlyphClass: 2
Flags: W
HStem: -20 21G<140 192.177 950 1002.18 1760 1812.18> 1210 300<465.217 946.172 1273.83 1754.78>
VStem: 140 320<127 1197.91> 950 320<127 1205.56> 1760 320<127 1197.91>
CounterMasks: 1 38
LayerCount: 2
Fore
SplineSet
150 -20 m 1,0,-1
 140 -20 l 1,1,-1
 140 1130 l 2,2,3
 140 1510 140 1510 550 1510 c 2,4,-1
 860 1510 l 2,5,6
 1014 1510 1014 1510 1110 1456 c 1,7,8
 1206 1510 1206 1510 1360 1510 c 2,9,-1
 1670 1510 l 2,10,11
 2080 1510 2080 1510 2080 1130 c 2,12,-1
 2080 127 l 1,13,-1
 1770 -20 l 1,14,-1
 1760 -20 l 1,15,-1
 1760 1139 l 6,16,17
 1760 1210 1760 1210 1680 1210 c 6,18,-1
 1350 1210 l 6,19,20
 1270 1210 1270 1210 1270 1139 c 6,21,-1
 1270 127 l 1,22,-1
 960 -20 l 1,23,-1
 950 -20 l 1,24,-1
 950 1139 l 6,25,26
 950 1210 950 1210 870 1210 c 6,27,-1
 540 1210 l 6,28,29
 460 1210 460 1210 460 1139 c 6,30,-1
 460 127 l 1,31,-1
 150 -20 l 1,0,-1
EndSplineSet
Validated: 19457
EndChar

StartChar: N
Encoding: 78 78 49
Width: 1410
GlyphClass: 2
Flags: W
HStem: -20 21G<140 192.177 950 1002.18> 1210 300<465.217 944.783>
VStem: 140 320<127 1197.91> 950 320<127 1197.91>
LayerCount: 2
Fore
SplineSet
150 -20 m 1,0,-1
 140 -20 l 1,1,-1
 140 1130 l 2,2,3
 140 1510 140 1510 550 1510 c 2,4,-1
 860 1510 l 2,5,6
 1270 1510 1270 1510 1270 1130 c 2,7,-1
 1270 127 l 1,8,-1
 960 -20 l 1,9,-1
 950 -20 l 1,10,-1
 950 1139 l 6,11,12
 950 1210 950 1210 870 1210 c 6,13,-1
 540 1210 l 6,14,15
 460 1210 460 1210 460 1139 c 6,16,-1
 460 127 l 1,17,-1
 150 -20 l 1,0,-1
EndSplineSet
Validated: 19457
EndChar

StartChar: O
Encoding: 79 79 50
Width: 1370
GlyphClass: 2
Flags: W
HStem: 0 300<445.217 924.783> 1210 300<445.217 924.783>
VStem: 120 320<312.09 1197.91> 930 320<312.09 1197.91>
LayerCount: 2
Fore
SplineSet
520 300 m 2,0,-1
 850 300 l 2,1,2
 930 300 930 300 930 371 c 2,3,-1
 930 1139 l 2,4,5
 930 1210 930 1210 850 1210 c 2,6,-1
 520 1210 l 2,7,8
 440 1210 440 1210 440 1139 c 2,9,-1
 440 371 l 2,10,11
 440 300 440 300 520 300 c 2,0,-1
530 0 m 2,12,13
 120 0 120 0 120 380 c 2,14,-1
 120 1130 l 2,15,16
 120 1510 120 1510 530 1510 c 2,17,-1
 840 1510 l 2,18,19
 1250 1510 1250 1510 1250 1130 c 2,20,-1
 1250 380 l 2,21,22
 1250 0 1250 0 840 0 c 2,23,-1
 530 0 l 2,12,13
EndSplineSet
Validated: 19457
EndChar

StartChar: P
Encoding: 80 80 51
Width: 1250
GlyphClass: 2
Flags: W
HStem: -20 21G<160 212.177> 440 300<480 884.783> 1210 300<480 884.783>
VStem: 160 320<127 440 740 1210> 890 320<747.767 1202.23>
LayerCount: 2
Fore
SplineSet
170 -20 m 1,0,-1
 160 -20 l 1,1,-1
 160 1383 l 1,2,-1
 428 1510 l 1,3,-1
 800 1510 l 2,4,5
 1210 1510 1210 1510 1210 1122 c 2,6,-1
 1210 828 l 2,7,8
 1210 440 1210 440 800 440 c 2,9,-1
 480 440 l 1,10,-1
 480 127 l 1,11,-1
 170 -20 l 1,0,-1
480 740 m 1,12,-1
 810 740 l 2,13,14
 890 740 890 740 890 811 c 2,15,-1
 890 1139 l 2,16,17
 890 1210 890 1210 810 1210 c 2,18,-1
 480 1210 l 1,19,-1
 480 740 l 1,12,-1
EndSplineSet
Validated: 19457
EndChar

StartChar: Q
Encoding: 81 81 52
Width: 1370
GlyphClass: 2
Flags: W
HStem: 0 300<445.217 650> 1210 300<445.217 924.783>
VStem: 120 320<312.09 1197.91> 930 320<420 1197.91>
LayerCount: 2
Fore
SplineSet
494 512 m 1,0,-1
 781 609 l 1,1,-1
 791 609 l 1,2,-1
 930 420 l 1,3,-1
 930 1139 l 2,4,5
 930 1210 930 1210 850 1210 c 2,6,-1
 520 1210 l 2,7,8
 440 1210 440 1210 440 1139 c 2,9,-1
 440 371 l 2,10,11
 440 300 440 300 520 300 c 2,12,-1
 650 300 l 1,13,-1
 494 512 l 1,0,-1
530 0 m 2,14,15
 120 0 120 0 120 380 c 2,16,-1
 120 1130 l 2,17,18
 120 1510 120 1510 530 1510 c 2,19,-1
 840 1510 l 2,20,21
 1250 1510 1250 1510 1250 1130 c 2,22,-1
 1250 380 l 2,23,24
 1250 202 1250 202 1160 107 c 1,25,-1
 1197 57 l 1,26,-1
 910 -40 l 1,27,-1
 900 -40 l 1,28,-1
 870 1 l 1,29,30
 855 0 855 0 840 0 c 2,31,-1
 530 0 l 2,14,15
EndSplineSet
Validated: 19457
EndChar

StartChar: R
Encoding: 82 82 53
Width: 1369
GlyphClass: 2
Flags: W
HStem: -20 21G<160 212.177 998.87 1068> 440 300<480 688> 1210 300<480 884.783>
VStem: 160 320<127 440 740 1210> 890 320<749.902 1202.23>
LayerCount: 2
Fore
SplineSet
480 740 m 1,0,-1
 810 740 l 2,1,2
 890 740 890 740 890 811 c 2,3,-1
 890 1139 l 2,4,5
 890 1210 890 1210 810 1210 c 2,6,-1
 480 1210 l 1,7,-1
 480 740 l 1,0,-1
170 -20 m 1,8,-1
 160 -20 l 1,9,-1
 160 1383 l 1,10,-1
 428 1510 l 1,11,-1
 800 1510 l 2,12,13
 1210 1510 1210 1510 1210 1122 c 2,14,-1
 1210 828 l 2,15,16
 1210 588 1210 588 1054 497 c 1,17,-1
 1329 116 l 1,18,-1
 1023 -20 l 1,19,-1
 1013 -20 l 1,20,-1
 688 440 l 1,21,-1
 480 440 l 1,22,-1
 480 127 l 1,23,-1
 170 -20 l 1,8,-1
EndSplineSet
Validated: 19457
EndChar

StartChar: T
Encoding: 84 84 54
Width: 1190
GlyphClass: 2
Flags: W
HStem: -20 21G<435 487.466> 1210 300<146 435 755 1044>
VStem: 435 320<126 1210>
LayerCount: 2
Fore
SplineSet
445 -20 m 1,0,-1
 435 -20 l 1,1,-1
 435 1210 l 1,2,-1
 10 1210 l 1,3,-1
 10 1220 l 1,4,-1
 146 1510 l 1,5,-1
 1180 1510 l 1,6,-1
 1180 1500 l 1,7,-1
 1044 1210 l 1,8,-1
 755 1210 l 1,9,-1
 755 126 l 1,10,-1
 445 -20 l 1,0,-1
EndSplineSet
Validated: 1
EndChar

StartChar: U
Encoding: 85 85 55
Width: 1410
GlyphClass: 2
Flags: W
HStem: 0 300<465.217 944.783> 1510 20G<407.823 460 1217.82 1270>
VStem: 140 320<312.09 1383> 950 320<312.09 1383>
LayerCount: 2
Fore
SplineSet
860 0 m 2,0,-1
 550 0 l 2,1,2
 140 0 140 0 140 380 c 2,3,-1
 140 1383 l 1,4,-1
 450 1530 l 1,5,-1
 460 1530 l 1,6,-1
 460 371 l 2,7,8
 460 300 460 300 540 300 c 2,9,-1
 870 300 l 2,10,11
 950 300 950 300 950 371 c 2,12,-1
 950 1383 l 1,13,-1
 1260 1530 l 1,14,-1
 1270 1530 l 1,15,-1
 1270 380 l 2,16,17
 1270 0 1270 0 860 0 c 2,0,-1
EndSplineSet
Validated: 19457
EndChar

StartChar: V
Encoding: 86 86 56
Width: 1362
GlyphClass: 2
Flags: W
HStem: -20 21G<540.336 600.222> 1510 20G<244.594 304.652 1080.83 1141.64>
DStem2: 297 1530 5 1397 0.357831 -0.933786<19.707 1071.77> 680 529 824 106 0.378605 0.925558<0 1070.81>
LayerCount: 2
Fore
SplineSet
558 -20 m 1,0,-1
 548 -20 l 1,1,-1
 5 1397 l 1,2,-1
 287 1530 l 1,3,-1
 297 1530 l 1,4,-1
 680 529 l 1,5,-1
 1089 1530 l 1,6,-1
 1099 1530 l 1,7,-1
 1357 1409 l 1,8,-1
 824 106 l 1,9,-1
 558 -20 l 1,0,-1
EndSplineSet
Validated: 1
EndChar

StartChar: W
Encoding: 87 87 57
Width: 2220
GlyphClass: 2
Flags: W
HStem: 0 300<465.217 946.172 1273.83 1754.78> 1510 20G<407.823 460 1217.82 1270 2027.82 2080>
VStem: 140 320<312.09 1383> 950 320<304.438 1383> 1760 320<312.09 1383>
CounterMasks: 1 38
LayerCount: 2
Fore
SplineSet
550 0 m 2,0,1
 140 0 140 0 140 380 c 2,2,-1
 140 1383 l 1,3,-1
 450 1530 l 1,4,-1
 460 1530 l 1,5,-1
 460 371 l 2,6,7
 460 300 460 300 540 300 c 2,8,-1
 870 300 l 2,9,10
 950 300 950 300 950 371 c 2,11,-1
 950 1383 l 1,12,-1
 1260 1530 l 1,13,-1
 1270 1530 l 1,14,-1
 1270 371 l 2,15,16
 1270 300 1270 300 1350 300 c 2,17,-1
 1680 300 l 2,18,19
 1760 300 1760 300 1760 371 c 2,20,-1
 1760 1383 l 1,21,-1
 2070 1530 l 1,22,-1
 2080 1530 l 1,23,-1
 2080 380 l 2,24,25
 2080 0 2080 0 1670 0 c 2,26,-1
 1360 0 l 2,27,28
 1206 0 1206 0 1110 54 c 1,29,30
 1014 0 1014 0 860 0 c 2,31,-1
 550 0 l 2,0,1
EndSplineSet
Validated: 19457
EndChar

StartChar: X
Encoding: 88 88 58
Width: 1254
GlyphClass: 2
Flags: W
HStem: -20 21G<216.797 282.643 954.55 1020.22> 1510 20G<233.778 299.45 971.357 1036.85>
DStem2: 286 1530 10 1404 0.558191 -0.829712<0 621.824 1044.92 1666.74> 10 98 269 -20 0.562799 0.826594<48.227 672.855 1107.78 1732.41>
LayerCount: 2
Fore
SplineSet
269 -20 m 1,0,-1
 259 -20 l 1,1,-1
 10 98 l 1,2,-1
 452 747 l 1,3,-1
 10 1404 l 1,4,-1
 276 1530 l 1,5,-1
 286 1530 l 1,6,-1
 633 1014 l 1,7,-1
 985 1530 l 1,8,-1
 995 1530 l 1,9,-1
 1244 1411 l 1,10,-1
 802 763 l 1,11,-1
 1244 106 l 1,12,-1
 978 -20 l 1,13,-1
 968 -20 l 1,14,-1
 621 496 l 1,15,-1
 269 -20 l 1,0,-1
EndSplineSet
Validated: 19457
EndChar

StartChar: Y
Encoding: 89 89 59
Width: 1250
GlyphClass: 2
Flags: W
HStem: -20 21G<465 517.177> 1510 20G<347.823 400 1117.82 1170>
VStem: 80 320<730.959 1383> 465 320<127 417> 850 320<730.959 1383>
CounterMasks: 1 38
LayerCount: 2
Fore
SplineSet
475 -20 m 1,0,-1
 465 -20 l 1,1,-1
 465 417 l 1,2,3
 80 428 80 428 80 797 c 2,4,-1
 80 1383 l 1,5,-1
 390 1530 l 1,6,-1
 400 1530 l 1,7,-1
 400 788 l 2,8,9
 400 717 400 717 480 717 c 2,10,-1
 770 717 l 2,11,12
 850 717 850 717 850 788 c 2,13,-1
 850 1383 l 1,14,-1
 1160 1530 l 1,15,-1
 1170 1530 l 1,16,-1
 1170 797 l 2,17,18
 1170 428 1170 428 785 417 c 1,19,-1
 785 127 l 1,20,-1
 475 -20 l 1,0,-1
EndSplineSet
Validated: 19457
EndChar

StartChar: Z
Encoding: 90 90 60
Width: 1138
GlyphClass: 2
Flags: W
HStem: 0 300<501 992> 1210 300<177 637>
DStem2: 10 10 501 300 0.463096 0.886308<484.409 1353.93>
LayerCount: 2
Fore
SplineSet
10 0 m 1,0,-1
 10 10 l 1,1,-1
 637 1210 l 1,2,-1
 41 1210 l 1,3,-1
 41 1220 l 1,4,-1
 177 1510 l 1,5,-1
 1128 1510 l 1,6,-1
 1128 1500 l 1,7,-1
 501 300 l 5,8,-1
 1128 300 l 1,9,-1
 1128 290 l 1,10,-1
 992 0 l 1,11,-1
 10 0 l 1,0,-1
EndSplineSet
Validated: 19457
EndChar

StartChar: bracketleft
Encoding: 91 91 61
Width: 920
GlyphClass: 2
Flags: W
HStem: -240 300<480 774> 1450 300<480 774>
VStem: 160 320<60 1450>
LayerCount: 2
Fore
SplineSet
160 -240 m 1,0,-1
 160 1624 l 1,1,-1
 428 1750 l 1,2,-1
 910 1750 l 1,3,-1
 910 1740 l 1,4,-1
 774 1450 l 1,5,-1
 480 1450 l 1,6,-1
 480 60 l 1,7,-1
 910 60 l 1,8,-1
 910 50 l 1,9,-1
 774 -240 l 1,10,-1
 160 -240 l 1,0,-1
EndSplineSet
Validated: 19457
EndChar

StartChar: backslash
Encoding: 92 92 62
Width: 1105
GlyphClass: 2
Flags: W
DStem2: 256 1710 10 1597 0.423051 -0.906106<0 1981.11>
LayerCount: 2
Fore
SplineSet
858 -200 m 1,0,-1
 848 -200 l 1,1,-1
 10 1597 l 1,2,-1
 246 1710 l 1,3,-1
 256 1710 l 1,4,-1
 1095 -87 l 1,5,-1
 858 -200 l 1,0,-1
EndSplineSet
Validated: 1
EndChar

StartChar: bracketright
Encoding: 93 93 63
Width: 920
GlyphClass: 2
Flags: W
HStem: -240 300<146 440> 1450 300<146 440>
VStem: 440 320<60 1450>
LayerCount: 2
Fore
SplineSet
492 -240 m 1,0,-1
 10 -240 l 1,1,-1
 10 -230 l 1,2,-1
 146 60 l 1,3,-1
 440 60 l 1,4,-1
 440 1450 l 1,5,-1
 10 1450 l 1,6,-1
 10 1460 l 1,7,-1
 146 1750 l 1,8,-1
 760 1750 l 1,9,-1
 760 -114 l 1,10,-1
 492 -240 l 1,0,-1
EndSplineSet
Validated: 19457
EndChar

StartChar: asciicircum
Encoding: 94 94 64
Width: 1010
GlyphClass: 2
Flags: W
HStem: 1039 531
LayerCount: 2
Fore
SplineSet
304 1039 m 1,0,-1
 294 1039 l 1,1,-1
 30 1165 l 1,2,-1
 304 1442 l 1,3,-1
 573 1570 l 1,4,-1
 583 1570 l 1,5,-1
 980 1166 l 1,6,-1
 713 1039 l 1,7,-1
 703 1039 l 1,8,-1
 500 1246 l 1,9,-1
 304 1039 l 1,0,-1
EndSplineSet
Validated: 19457
EndChar

StartChar: underscore
Encoding: 95 95 65
Width: 1404
GlyphClass: 2
Flags: W
HStem: -410 200<201 1203>
LayerCount: 2
Fore
SplineSet
110 -410 m 1,0,-1
 110 -400 l 1,1,-1
 201 -210 l 1,2,-1
 1294 -210 l 1,3,-1
 1294 -220 l 1,4,-1
 1203 -410 l 1,5,-1
 110 -410 l 1,0,-1
EndSplineSet
Validated: 19457
EndChar

StartChar: grave
Encoding: 96 96 66
Width: 405
GlyphClass: 2
Flags: W
HStem: 1160 410
VStem: 30 345
DStem2: 220 1570 30 1485 0.429396 -0.903116<0 356.108>
LayerCount: 2
Fore
SplineSet
210 1570 m 1,0,-1
 220 1570 l 1,1,-1
 375 1244 l 1,2,-1
 197 1160 l 1,3,-1
 187 1160 l 1,4,-1
 30 1485 l 1,5,-1
 210 1570 l 1,0,-1
EndSplineSet
Validated: 19457
EndChar

StartChar: a
Encoding: 97 97 67
Width: 1094
GlyphClass: 2
Flags: W
HStem: -20 21G<654 706.029> 0 250<358.872 653.406> 469 251<358.872 653.344> 840 260<313 645.128>
VStem: 50 300<252.957 467.043> 654 300<250 469 713 832.812>
LayerCount: 2
Fore
SplineSet
390 0 m 2,0,1
 50 0 50 0 50 308 c 2,2,-1
 50 412 l 2,3,4
 50 720 50 720 390 720 c 2,5,-1
 614 720 l 2,6,7
 633 720 633 720 654 713 c 1,8,-1
 654 805 l 2,9,10
 654 840 654 840 624 840 c 2,11,-1
 194 840 l 1,12,-1
 194 850 l 1,13,-1
 313 1100 l 1,14,-1
 614 1100 l 2,15,16
 954 1100 954 1100 954 796 c 2,17,-1
 954 118 l 1,18,-1
 664 -20 l 1,19,-1
 654 -20 l 1,20,-1
 654 7 l 1,21,22
 635 0 635 0 614 0 c 2,23,-1
 390 0 l 2,0,1
350 282 m 18,24,25
 350 250 350 250 390 250 c 2,26,-1
 619 250 l 2,27,28
 659 250 659 250 659 282 c 2,29,-1
 659 437 l 2,30,31
 659 469 659 469 619 469 c 2,32,-1
 390 469 l 2,33,34
 350 469 350 469 350 437 c 2,35,-1
 350 282 l 18,24,25
EndSplineSet
Validated: 19457
EndChar

StartChar: b
Encoding: 98 98 68
Width: 1210
GlyphClass: 2
Flags: W
HStem: 0 280<448.872 781.128> 820 280<440.625 781.128> 1510 20G<387.971 440>
VStem: 140 300<288.112 820 1094 1392> 790 300<288.112 811.888>
LayerCount: 2
Fore
SplineSet
480 0 m 2,0,1
 140 0 140 0 140 307 c 2,2,-1
 140 1392 l 1,3,-1
 430 1530 l 1,4,-1
 440 1530 l 1,5,-1
 440 1094 l 1,6,7
 460 1100 460 1100 480 1100 c 2,8,-1
 750 1100 l 2,9,10
 1090 1100 1090 1100 1090 793 c 2,11,-1
 1090 307 l 2,12,13
 1090 0 1090 0 750 0 c 2,14,-1
 480 0 l 2,0,1
480 280 m 2,15,16
 750 280 l 2,17,18
 790 280 790 280 790 315 c 2,19,-1
 790 785 l 2,20,21
 790 820 790 820 750 820 c 2,22,-1
 480 820 l 2,23,24
 440 820 440 820 440 785 c 2,25,-1
 440 315 l 2,26,27
 440 280 440 280 480 280 c 2,15,16
EndSplineSet
Validated: 19457
EndChar

StartChar: c
Encoding: 99 99 69
Width: 1070
GlyphClass: 2
Flags: W
HStem: 0 280<428.872 721.128> 820 280<428.872 721.128>
VStem: 120 300<288.112 811.888>
LayerCount: 2
Fore
SplineSet
690 0 m 2,0,-1
 460 0 l 2,1,2
 120 0 120 0 120 307 c 2,3,-1
 120 793 l 2,4,5
 120 1100 120 1100 460 1100 c 2,6,-1
 690 1100 l 2,7,8
 1030 1100 1030 1100 1030 791 c 1,9,-1
 740 653 l 1,10,-1
 730 653 l 1,11,-1
 730 785 l 2,12,13
 730 820 730 820 690 820 c 2,14,-1
 460 820 l 2,15,16
 420 820 420 820 420 785 c 2,17,-1
 420 315 l 2,18,19
 420 280 420 280 460 280 c 2,20,-1
 690 280 l 2,21,22
 730 280 730 280 730 315 c 2,23,-1
 730 327 l 1,24,-1
 1020 465 l 1,25,-1
 1030 465 l 1,26,-1
 1030 307 l 2,27,28
 1030 0 1030 0 690 0 c 2,0,-1
EndSplineSet
Validated: 19457
EndChar

StartChar: d
Encoding: 100 100 70
Width: 1210
GlyphClass: 2
Flags: W
HStem: 0 280<428.872 761.128> 820 280<428.872 769.375> 1510 20G<1017.97 1070>
VStem: 120 300<288.112 811.888> 770 300<288.112 820 1094 1392>
LayerCount: 2
Fore
SplineSet
460 0 m 2,0,1
 120 0 120 0 120 307 c 2,2,-1
 120 793 l 2,3,4
 120 1100 120 1100 460 1100 c 2,5,-1
 730 1100 l 2,6,7
 750 1100 750 1100 770 1094 c 1,8,-1
 770 1392 l 1,9,-1
 1060 1530 l 1,10,-1
 1070 1530 l 1,11,-1
 1070 307 l 2,12,13
 1070 0 1070 0 730 0 c 2,14,-1
 460 0 l 2,0,1
730 280 m 2,15,16
 770 280 770 280 770 315 c 2,17,-1
 770 785 l 2,18,19
 770 820 770 820 730 820 c 2,20,-1
 460 820 l 2,21,22
 420 820 420 820 420 785 c 2,23,-1
 420 315 l 2,24,25
 420 280 420 280 460 280 c 2,26,-1
 730 280 l 2,15,16
EndSplineSet
Validated: 19457
EndChar

StartChar: e
Encoding: 101 101 71
Width: 1150
GlyphClass: 2
Flags: W
HStem: 0 280<428.872 721.128> 820 280<428.872 721.128>
VStem: 120 300<288.112 352 577 811.888> 730 300<288.112 327 724 811.888>
DStem2: 420 577 420 352 0.903708 0.42815<0 343.087>
LayerCount: 2
Fore
SplineSet
460 0 m 2,0,1
 120 0 120 0 120 307 c 2,2,-1
 120 793 l 2,3,4
 120 1100 120 1100 460 1100 c 2,5,-1
 690 1100 l 2,6,7
 1030 1100 1030 1100 1030 793 c 2,8,-1
 1030 641 l 1,9,-1
 420 352 l 1,10,-1
 420 315 l 2,11,12
 420 280 420 280 460 280 c 2,13,-1
 690 280 l 2,14,15
 730 280 730 280 730 315 c 2,16,-1
 730 327 l 1,17,-1
 1020 465 l 1,18,-1
 1030 465 l 1,19,-1
 1030 307 l 2,20,21
 1030 0 1030 0 690 0 c 2,22,-1
 460 0 l 2,0,1
420 577 m 1,23,-1
 730 724 l 1,24,-1
 730 785 l 2,25,26
 730 820 730 820 690 820 c 2,27,-1
 460 820 l 2,28,29
 420 820 420 820 420 785 c 2,30,-1
 420 577 l 1,23,-1
EndSplineSet
Validated: 19457
EndChar

StartChar: f
Encoding: 102 102 72
Width: 860
GlyphClass: 2
Flags: W
HStem: -20 21G<140 192.029> 662 280<440 682> 1230 280<448.872 721>
VStem: 140 300<118 662 942 1221.89>
LayerCount: 2
Fore
SplineSet
150 -20 m 1,0,-1
 140 -20 l 1,1,-1
 140 1203 l 2,2,3
 140 1510 140 1510 480 1510 c 2,4,-1
 850 1510 l 1,5,-1
 850 1500 l 1,6,-1
 721 1230 l 1,7,-1
 480 1230 l 2,8,9
 440 1230 440 1230 440 1195 c 2,10,-1
 440 942 l 1,11,-1
 811 942 l 1,12,-1
 811 932 l 1,13,-1
 682 662 l 1,14,-1
 440 662 l 1,15,-1
 440 118 l 1,16,-1
 150 -20 l 1,0,-1
EndSplineSet
Validated: 19457
EndChar

StartChar: g
Encoding: 103 103 73
Width: 1210
GlyphClass: 2
Flags: W
HStem: -410 250<375 761.128> 0 280<428.872 769.375> 820 280<428.872 761.128>
VStem: 120 300<288.112 811.888> 770 300<-157.864 6 280 811.888>
LayerCount: 2
Fore
SplineSet
460 0 m 2,0,1
 120 0 120 0 120 307 c 2,2,-1
 120 793 l 2,3,4
 120 1100 120 1100 460 1100 c 2,5,-1
 730 1100 l 2,6,7
 1070 1100 1070 1100 1070 793 c 2,8,-1
 1070 -103 l 2,9,10
 1070 -410 1070 -410 730 -410 c 2,11,-1
 260 -410 l 1,12,-1
 260 -400 l 1,13,-1
 375 -160 l 1,14,-1
 730 -160 l 2,15,16
 770 -160 770 -160 770 -125 c 2,17,-1
 770 6 l 1,18,19
 750 0 750 0 730 0 c 2,20,-1
 460 0 l 2,0,1
770 785 m 2,21,22
 770 820 770 820 730 820 c 2,23,-1
 460 820 l 2,24,25
 420 820 420 820 420 785 c 2,26,-1
 420 315 l 2,27,28
 420 280 420 280 460 280 c 2,29,-1
 730 280 l 2,30,31
 770 280 770 280 770 315 c 2,32,-1
 770 785 l 2,21,22
EndSplineSet
Validated: 19457
EndChar

StartChar: h
Encoding: 104 104 74
Width: 1250
GlyphClass: 2
Flags: W
HStem: -20 21G<160 212.029 810 862.029> 820 280<460.533 801.128> 1510 20G<407.971 460>
VStem: 160 300<118 820 1093 1392> 810 300<118 811.888>
LayerCount: 2
Fore
SplineSet
170 -20 m 1,0,-1
 160 -20 l 1,1,-1
 160 1392 l 1,2,-1
 450 1530 l 1,3,-1
 460 1530 l 1,4,-1
 460 1093 l 1,5,6
 477 1100 477 1100 500 1100 c 2,7,-1
 770 1100 l 2,8,9
 1110 1100 1110 1100 1110 793 c 2,10,-1
 1110 118 l 1,11,-1
 820 -20 l 1,12,-1
 810 -20 l 1,13,-1
 810 785 l 2,14,15
 810 820 810 820 770 820 c 2,16,-1
 500 820 l 2,17,18
 460 820 460 820 460 785 c 2,19,-1
 460 118 l 1,20,-1
 170 -20 l 1,0,-1
EndSplineSet
Validated: 19457
EndChar

StartChar: i
Encoding: 105 105 75
Width: 620
GlyphClass: 2
Flags: W
HStem: -20 21G<160 212.029> 1100 20G<407.971 460> 1180 364<192.131 426.338>
VStem: 130 360<1244.3 1481.73> 160 300<118 982>
LayerCount: 2
Fore
SplineSet
170 -20 m 1,0,-1
 160 -20 l 1,1,-1
 160 982 l 1,2,-1
 450 1120 l 1,3,-1
 460 1120 l 1,4,-1
 460 118 l 1,5,-1
 170 -20 l 1,0,-1
310 1544 m 0,6,7
 386 1544 386 1544 438 1491 c 128,-1,8
 490 1438 490 1438 490 1363 c 0,9,10
 490 1289 490 1289 437 1234 c 0,11,12
 385 1180 385 1180 310 1180 c 0,13,14
 233 1180 233 1180 181.5 1234 c 128,-1,15
 130 1288 130 1288 130 1362 c 0,16,17
 130 1438 130 1438 182 1490 c 0,18,19
 235 1544 235 1544 310 1544 c 0,6,7
EndSplineSet
Validated: 19457
EndChar

StartChar: j
Encoding: 106 106 76
Width: 620
GlyphClass: 2
Flags: W
HStem: -410 21G<-75 290> 1100 20G<407.971 460> 1180 364<192.131 426.338>
VStem: 130 360<1244.3 1481.73> 160 300<-121.888 982>
LayerCount: 2
Fore
SplineSet
450 1120 m 1,0,-1
 460 1120 l 1,1,-1
 460 -103 l 2,2,3
 460 -410 460 -410 120 -410 c 2,4,-1
 -75 -410 l 1,5,-1
 -75 -400 l 1,6,-1
 54 -130 l 1,7,-1
 120 -130 l 2,8,9
 160 -130 160 -130 160 -95 c 2,10,-1
 160 982 l 1,11,-1
 450 1120 l 1,0,-1
310 1544 m 0,12,13
 386 1544 386 1544 438 1491 c 128,-1,14
 490 1438 490 1438 490 1363 c 0,15,16
 490 1289 490 1289 437 1234 c 0,17,18
 385 1180 385 1180 310 1180 c 0,19,20
 233 1180 233 1180 181.5 1234 c 128,-1,21
 130 1288 130 1288 130 1362 c 0,22,23
 130 1438 130 1438 182 1490 c 0,24,25
 235 1544 235 1544 310 1544 c 0,12,13
EndSplineSet
Validated: 19457
EndChar

StartChar: k
Encoding: 107 107 77
Width: 1210
GlyphClass: 2
Flags: W
HStem: -20 21G<160 212.029 790 842.029> 1100 20G<790.4 866.034> 1510 20G<407.971 460>
VStem: 160 300<118 537 820 1392> 790 300<118 533.713>
LayerCount: 2
Fore
SplineSet
170 -20 m 1,0,-1
 160 -20 l 1,1,-1
 160 1392 l 1,2,-1
 450 1530 l 1,3,-1
 460 1530 l 1,4,-1
 460 820 l 1,5,-1
 814 1120 l 1,6,-1
 824 1120 l 1,7,-1
 1072 1002 l 1,8,-1
 836 810 l 1,9,10
 1090 768 1090 768 1090 510 c 2,11,-1
 1090 118 l 1,12,-1
 800 -20 l 1,13,-1
 790 -20 l 1,14,-1
 790 502 l 2,15,16
 790 537 790 537 750 537 c 2,17,-1
 500 537 l 2,18,19
 460 537 460 537 460 502 c 2,20,-1
 460 118 l 1,21,-1
 170 -20 l 1,0,-1
EndSplineSet
Validated: 19457
EndChar

StartChar: l
Encoding: 108 108 78
Width: 620
GlyphClass: 2
Flags: W
HStem: -20 21G<160 212.029> 1510 20G<407.971 460>
VStem: 160 300<118 1392>
LayerCount: 2
Fore
SplineSet
170 -20 m 1,0,-1
 160 -20 l 1,1,-1
 160 1392 l 1,2,-1
 450 1530 l 1,3,-1
 460 1530 l 1,4,-1
 460 118 l 1,5,-1
 170 -20 l 1,0,-1
EndSplineSet
Validated: 19457
EndChar

StartChar: m
Encoding: 109 109 79
Width: 1880
GlyphClass: 2
Flags: W
HStem: -20 21G<140 192.029 790 842.029 1440 1492.03> 820 280<448.872 788.065 1091.94 1431.13>
VStem: 140 300<118 811.888> 790 300<118 820> 1440 300<118 811.888>
CounterMasks: 1 38
LayerCount: 2
Fore
SplineSet
150 -20 m 1,0,-1
 140 -20 l 1,1,-1
 140 793 l 2,2,3
 140 1100 140 1100 480 1100 c 2,4,-1
 750 1100 l 2,5,6
 864 1100 864 1100 940 1065 c 1,7,8
 1016 1100 1016 1100 1130 1100 c 2,9,-1
 1400 1100 l 2,10,11
 1740 1100 1740 1100 1740 793 c 2,12,-1
 1740 118 l 1,13,-1
 1450 -20 l 1,14,-1
 1440 -20 l 1,15,-1
 1440 785 l 2,16,17
 1440 820 1440 820 1400 820 c 2,18,-1
 1130 820 l 2,19,20
 1090 820 1090 820 1090 785 c 2,21,-1
 1090 118 l 1,22,-1
 800 -20 l 1,23,-1
 790 -20 l 1,24,-1
 790 785 l 2,25,26
 790 820 790 820 750 820 c 2,27,-1
 480 820 l 2,28,29
 440 820 440 820 440 785 c 2,30,-1
 440 118 l 1,31,-1
 150 -20 l 1,0,-1
EndSplineSet
Validated: 19457
EndChar

StartChar: n
Encoding: 110 110 80
Width: 1230
GlyphClass: 2
Flags: W
HStem: -20 21G<140 192.029 790 842.029> 820 280<448.872 781.128>
VStem: 140 300<118 811.888> 790 300<118 811.888>
LayerCount: 2
Fore
SplineSet
150 -20 m 1,0,-1
 140 -20 l 1,1,-1
 140 793 l 2,2,3
 140 1100 140 1100 480 1100 c 2,4,-1
 750 1100 l 2,5,6
 1090 1100 1090 1100 1090 793 c 2,7,-1
 1090 118 l 1,8,-1
 800 -20 l 1,9,-1
 790 -20 l 1,10,-1
 790 785 l 2,11,12
 790 820 790 820 750 820 c 2,13,-1
 480 820 l 2,14,15
 440 820 440 820 440 785 c 2,16,-1
 440 118 l 1,17,-1
 150 -20 l 1,0,-1
EndSplineSet
Validated: 19457
EndChar

StartChar: o
Encoding: 111 111 81
Width: 1190
GlyphClass: 2
Flags: W
HStem: 0 280<428.872 761.128> 820 280<428.872 761.128>
VStem: 120 300<288.112 811.888> 770 300<288.112 811.888>
LayerCount: 2
Fore
SplineSet
730 280 m 2,0,1
 770 280 770 280 770 315 c 2,2,-1
 770 785 l 2,3,4
 770 820 770 820 730 820 c 2,5,-1
 460 820 l 2,6,7
 420 820 420 820 420 785 c 2,8,-1
 420 315 l 2,9,10
 420 280 420 280 460 280 c 2,11,-1
 730 280 l 2,0,1
730 0 m 2,12,-1
 460 0 l 2,13,14
 120 0 120 0 120 307 c 2,15,-1
 120 793 l 2,16,17
 120 1100 120 1100 460 1100 c 2,18,-1
 730 1100 l 2,19,20
 1070 1100 1070 1100 1070 793 c 2,21,-1
 1070 307 l 2,22,23
 1070 0 1070 0 730 0 c 2,12,-1
EndSplineSet
Validated: 19457
EndChar

StartChar: p
Encoding: 112 112 82
Width: 1210
GlyphClass: 2
Flags: W
HStem: -430 21G<140 192.029> 0 280<440.625 781.128> 820 280<448.872 781.128>
VStem: 140 300<-292 6 280 811.888> 790 300<288.112 811.888>
LayerCount: 2
Fore
SplineSet
750 0 m 2,0,-1
 480 0 l 2,1,2
 460 0 460 0 440 6 c 1,3,-1
 440 -292 l 1,4,-1
 150 -430 l 1,5,-1
 140 -430 l 1,6,-1
 140 793 l 2,7,8
 140 1100 140 1100 480 1100 c 2,9,-1
 750 1100 l 2,10,11
 1090 1100 1090 1100 1090 793 c 2,12,-1
 1090 307 l 2,13,14
 1090 0 1090 0 750 0 c 2,0,-1
480 820 m 2,15,16
 440 820 440 820 440 785 c 2,17,-1
 440 315 l 2,18,19
 440 280 440 280 480 280 c 2,20,-1
 750 280 l 2,21,22
 790 280 790 280 790 315 c 2,23,-1
 790 785 l 2,24,25
 790 820 790 820 750 820 c 2,26,-1
 480 820 l 2,15,16
EndSplineSet
Validated: 19457
EndChar

StartChar: q
Encoding: 113 113 83
Width: 1210
GlyphClass: 2
Flags: W
HStem: -430 21G<770 822.029> 0 280<428.872 769.375> 820 280<428.872 761.128>
VStem: 120 300<288.112 811.888> 770 300<-292 6 280 811.888>
LayerCount: 2
Fore
SplineSet
460 0 m 2,0,1
 120 0 120 0 120 307 c 2,2,-1
 120 793 l 2,3,4
 120 1100 120 1100 460 1100 c 2,5,-1
 730 1100 l 2,6,7
 1070 1100 1070 1100 1070 793 c 2,8,-1
 1070 -292 l 1,9,-1
 780 -430 l 1,10,-1
 770 -430 l 1,11,-1
 770 6 l 1,12,13
 750 0 750 0 730 0 c 2,14,-1
 460 0 l 2,0,1
730 820 m 2,15,16
 460 820 l 2,17,18
 420 820 420 820 420 785 c 2,19,-1
 420 315 l 2,20,21
 420 280 420 280 460 280 c 2,22,-1
 730 280 l 2,23,24
 770 280 770 280 770 315 c 2,25,-1
 770 785 l 2,26,27
 770 820 770 820 730 820 c 2,15,16
EndSplineSet
Validated: 19457
EndChar

StartChar: r
Encoding: 114 114 84
Width: 860
GlyphClass: 2
Flags: W
HStem: -20 21G<140 192.029> 820 280<448.872 721>
VStem: 140 300<118 811.888>
LayerCount: 2
Fore
SplineSet
150 -20 m 1,0,-1
 140 -20 l 1,1,-1
 140 793 l 2,2,3
 140 1100 140 1100 480 1100 c 2,4,-1
 850 1100 l 1,5,-1
 850 1090 l 1,6,-1
 721 820 l 1,7,-1
 480 820 l 2,8,9
 440 820 440 820 440 785 c 2,10,-1
 440 118 l 1,11,-1
 150 -20 l 1,0,-1
EndSplineSet
Validated: 19457
EndChar

StartChar: t
Encoding: 116 116 85
Width: 890
GlyphClass: 2
Flags: W
HStem: -20 21G<300 352.105> 820 280<139 300 590 751> 1510 20G<537.895 590>
VStem: 300 290<113 820 1100 1397>
LayerCount: 2
Fore
SplineSet
310 -20 m 1,0,-1
 300 -20 l 1,1,-1
 300 820 l 1,2,-1
 10 820 l 1,3,-1
 10 830 l 1,4,-1
 139 1100 l 1,5,-1
 300 1100 l 1,6,-1
 300 1397 l 1,7,-1
 580 1530 l 1,8,-1
 590 1530 l 1,9,-1
 590 1100 l 1,10,-1
 880 1100 l 1,11,-1
 880 1090 l 1,12,-1
 751 820 l 1,13,-1
 590 820 l 1,14,-1
 590 113 l 1,15,-1
 310 -20 l 1,0,-1
EndSplineSet
Validated: 1
EndChar

StartChar: u
Encoding: 117 117 86
Width: 1230
GlyphClass: 2
Flags: W
HStem: 0 280<448.872 781.128> 1100 20G<387.971 440 1037.97 1090>
VStem: 140 300<288.112 982> 790 300<288.112 982>
LayerCount: 2
Fore
SplineSet
480 0 m 2,0,1
 140 0 140 0 140 307 c 2,2,-1
 140 982 l 1,3,-1
 430 1120 l 1,4,-1
 440 1120 l 1,5,-1
 440 315 l 2,6,7
 440 280 440 280 480 280 c 2,8,-1
 750 280 l 2,9,10
 790 280 790 280 790 315 c 2,11,-1
 790 982 l 1,12,-1
 1080 1120 l 1,13,-1
 1090 1120 l 1,14,-1
 1090 307 l 2,15,16
 1090 0 1090 0 750 0 c 2,17,-1
 480 0 l 2,0,1
EndSplineSet
Validated: 19457
EndChar

StartChar: v
Encoding: 118 118 87
Width: 1082
GlyphClass: 2
Flags: W
HStem: -20 21G<404.961 465.031> 1100 20G<225.08 284.661 812.754 872.695>
DStem2: 277 1120 5 995 0.372966 -0.927845<14.5338 732.363> 539 436 692 108 0.395531 0.918453<0 732.64>
LayerCount: 2
Fore
SplineSet
423 -20 m 1,0,-1
 413 -20 l 1,1,-1
 5 995 l 1,2,-1
 267 1120 l 1,3,-1
 277 1120 l 1,4,-1
 539 436 l 1,5,-1
 821 1120 l 1,6,-1
 831 1120 l 1,7,-1
 1077 1002 l 1,8,-1
 692 108 l 1,9,-1
 423 -20 l 1,0,-1
EndSplineSet
Validated: 19457
EndChar

StartChar: w
Encoding: 119 119 88
Width: 1880
GlyphClass: 2
Flags: W
HStem: 0 280<448.872 788.065 1091.94 1431.13> 1100 20G<387.971 440 1037.97 1090 1687.97 1740>
VStem: 140 300<288.112 982> 790 300<280 982> 1440 300<288.112 982>
CounterMasks: 1 38
LayerCount: 2
Fore
SplineSet
480 0 m 2,0,1
 140 0 140 0 140 307 c 2,2,-1
 140 982 l 1,3,-1
 430 1120 l 1,4,-1
 440 1120 l 1,5,-1
 440 315 l 2,6,7
 440 280 440 280 480 280 c 2,8,-1
 750 280 l 2,9,10
 790 280 790 280 790 315 c 2,11,-1
 790 982 l 1,12,-1
 1080 1120 l 1,13,-1
 1090 1120 l 1,14,-1
 1090 315 l 2,15,16
 1090 280 1090 280 1130 280 c 2,17,-1
 1400 280 l 2,18,19
 1440 280 1440 280 1440 315 c 2,20,-1
 1440 982 l 1,21,-1
 1730 1120 l 1,22,-1
 1740 1120 l 1,23,-1
 1740 307 l 2,24,25
 1740 0 1740 0 1400 0 c 2,26,-1
 1130 0 l 2,27,28
 1016 0 1016 0 940 35 c 1,29,30
 864 0 864 0 750 0 c 2,31,-1
 480 0 l 2,0,1
EndSplineSet
Validated: 19457
EndChar

StartChar: x
Encoding: 120 120 89
Width: 984
GlyphClass: 2
Flags: W
HStem: -20 21G<198.615 265.03 704.149 770.414> 1100 20G<213.949 279.81 719.952 785.818>
DStem2: 266 1120 10 1003 0.568709 -0.822539<0 408.314 787.26 1194.75> 10 89 251 -20 0.574687 0.818373<49.2969 458.503 849.217 1259.82>
LayerCount: 2
Fore
SplineSet
251 -20 m 1,0,-1
 241 -20 l 1,1,-1
 10 89 l 1,2,-1
 329 543 l 1,3,-1
 10 1003 l 1,4,-1
 256 1120 l 1,5,-1
 266 1120 l 1,6,-1
 498 784 l 1,7,-1
 734 1120 l 1,8,-1
 744 1120 l 1,9,-1
 974 1010 l 1,10,-1
 656 556 l 1,11,-1
 974 96 l 1,12,-1
 728 -20 l 1,13,-1
 718 -20 l 1,14,-1
 486 315 l 1,15,-1
 251 -20 l 1,0,-1
EndSplineSet
Validated: 19457
EndChar

StartChar: y
Encoding: 121 121 90
Width: 1250
GlyphClass: 2
Flags: W
HStem: -410 250<395 781.128> 0 280<448.872 789.375> 1100 20G<387.971 440 1037.97 1090>
VStem: 140 300<288.112 982> 790 300<-157.864 6 280 982>
LayerCount: 2
Fore
SplineSet
480 0 m 2,0,1
 140 0 140 0 140 307 c 2,2,-1
 140 982 l 1,3,-1
 430 1120 l 1,4,-1
 440 1120 l 1,5,-1
 440 315 l 2,6,7
 440 280 440 280 480 280 c 2,8,-1
 750 280 l 2,9,10
 790 280 790 280 790 315 c 2,11,-1
 790 982 l 1,12,-1
 1080 1120 l 1,13,-1
 1090 1120 l 1,14,-1
 1090 -103 l 2,15,16
 1090 -410 1090 -410 750 -410 c 2,17,-1
 280 -410 l 1,18,-1
 280 -400 l 1,19,-1
 395 -160 l 1,20,-1
 750 -160 l 2,21,22
 790 -160 790 -160 790 -125 c 2,23,-1
 790 6 l 1,24,25
 770 0 770 0 750 0 c 2,26,-1
 480 0 l 2,0,1
EndSplineSet
Validated: 19457
EndChar

StartChar: z
Encoding: 122 122 91
Width: 974
GlyphClass: 2
Flags: W
HStem: 0 280<486 835> 820 280<171 488>
DStem2: 488 820 486 280 0.508228 0.861223<-466.077 0>
LayerCount: 2
Fore
SplineSet
10 0 m 1,0,-1
 10 10 l 1,1,-1
 488 820 l 1,2,-1
 42 820 l 1,3,-1
 42 830 l 1,4,-1
 171 1100 l 1,5,-1
 964 1100 l 1,6,-1
 964 1090 l 1,7,-1
 486 280 l 1,8,-1
 964 280 l 1,9,-1
 964 270 l 1,10,-1
 835 0 l 1,11,-1
 10 0 l 1,0,-1
EndSplineSet
Validated: 19457
EndChar

StartChar: braceleft
Encoding: 123 123 92
Width: 830
GlyphClass: 2
Flags: W
HStem: -240 300<559.217 800> 1450 300<559.217 800>
VStem: 234 320<72.0898 620 890 1437.91>
LayerCount: 2
Fore
SplineSet
800 -240 m 1,0,-1
 644 -240 l 2,1,2
 234 -240 234 -240 234 140 c 2,3,-1
 234 620 l 1,4,-1
 10 620 l 1,5,-1
 10 630 l 1,6,-1
 135 890 l 1,7,-1
 234 890 l 1,8,-1
 234 1370 l 2,9,10
 234 1750 234 1750 644 1750 c 2,11,-1
 800 1750 l 1,12,-1
 800 1450 l 1,13,-1
 634 1450 l 2,14,15
 554 1450 554 1450 554 1379 c 2,16,-1
 554 131 l 2,17,18
 554 60 554 60 634 60 c 2,19,-1
 800 61 l 1,20,-1
 800 -240 l 1,0,-1
EndSplineSet
Validated: 19457
EndChar

StartChar: bar
Encoding: 124 124 93
Width: 690
GlyphClass: 2
Flags: W
VStem: 210 270<-76 1586>
LayerCount: 2
Fore
SplineSet
210 -200 m 1,0,-1
 210 1586 l 1,1,-1
 470 1710 l 1,2,-1
 480 1710 l 1,3,-1
 480 -76 l 1,4,-1
 220 -200 l 1,5,-1
 210 -200 l 1,0,-1
EndSplineSet
Validated: 19457
EndChar

StartChar: braceright
Encoding: 125 125 94
Width: 830
GlyphClass: 2
Flags: W
HStem: -240 300<30 270.783> 1449 301<30 270.783>
VStem: 276 320<72.0898 620 890 1437.91>
LayerCount: 2
Fore
SplineSet
30 -240 m 1,0,-1
 30 60 l 1,1,-1
 196 60 l 2,2,3
 276 60 276 60 276 131 c 2,4,-1
 276 1379 l 2,5,6
 276 1450 276 1450 196 1450 c 2,7,-1
 30 1449 l 1,8,-1
 30 1750 l 1,9,-1
 186 1750 l 2,10,11
 596 1750 596 1750 596 1370 c 2,12,-1
 596 890 l 1,13,-1
 820 890 l 1,14,-1
 820 880 l 1,15,-1
 695 620 l 1,16,-1
 596 620 l 1,17,-1
 596 140 l 2,18,19
 596 -240 596 -240 186 -240 c 2,20,-1
 30 -240 l 1,0,-1
EndSplineSet
Validated: 19457
EndChar

StartChar: asciitilde
Encoding: 126 126 95
Width: 1178
GlyphClass: 2
Flags: W
HStem: 515 482
LayerCount: 2
Fore
SplineSet
1058 997 m 1,0,-1
 1068 997 l 1,1,2
 1068 515 1068 515 752 515 c 0,3,4
 616 515 616 515 489 666 c 0,5,6
 453 709 453 709 444 718 c 0,7,8
 433 729 433 729 421 729 c 0,9,10
 387 729 387 729 387 642 c 1,11,-1
 120 515 l 1,12,-1
 110 515 l 1,13,14
 110 997 110 997 426 997 c 0,15,16
 562 997 562 997 689 846 c 0,17,18
 725 803 725 803 734 794 c 0,19,20
 745 783 745 783 757 783 c 0,21,22
 791 783 791 783 791 870 c 1,23,-1
 1058 997 l 1,0,-1
EndSplineSet
Validated: 19457
EndChar

StartChar: exclamdown
Encoding: 161 161 97
Width: 640
GlyphClass: 2
Flags: W
HStem: -430 21G<160 212.177> 755 365<203.122 437.869>
VStem: 140 360<817.422 1057.43> 160 320<-283 558>
LayerCount: 2
Fore
SplineSet
170 -430 m 1,0,-1
 160 -430 l 1,1,-1
 160 558 l 1,2,-1
 470 705 l 1,3,-1
 480 705 l 1,4,-1
 480 -283 l 1,5,-1
 170 -430 l 1,0,-1
320 1120 m 0,6,7
 396 1120 396 1120 448 1066 c 128,-1,8
 500 1012 500 1012 500 938 c 0,9,10
 500 862 500 862 448 809 c 0,11,12
 395 755 395 755 320 755 c 128,-1,13
 245 755 245 755 192.5 808.5 c 128,-1,14
 140 862 140 862 140 937 c 128,-1,15
 140 1012 140 1012 193 1066 c 128,-1,16
 246 1120 246 1120 320 1120 c 0,6,7
EndSplineSet
Validated: 19457
EndChar

StartChar: cent
Encoding: 162 162 98
Width: 1070
GlyphClass: 2
Flags: W
HStem: 0 280<428.872 515 635 721.128> 820 280<428.872 515 635 721.128>
VStem: 120 300<288.112 811.888> 515 120<-69 0 280 820 1100 1169>
LayerCount: 2
Fore
SplineSet
690 0 m 2,0,-1
 635 0 l 1,1,-1
 635 -69 l 1,2,-1
 525 -120 l 1,3,-1
 515 -120 l 1,4,-1
 515 0 l 1,5,-1
 460 0 l 2,6,7
 120 0 120 0 120 307 c 2,8,-1
 120 793 l 2,9,10
 120 1100 120 1100 460 1100 c 2,11,-1
 515 1100 l 1,12,-1
 515 1169 l 1,13,-1
 625 1220 l 1,14,-1
 635 1220 l 1,15,-1
 635 1100 l 1,16,-1
 690 1100 l 2,17,18
 1030 1100 1030 1100 1030 791 c 1,19,-1
 740 653 l 1,20,-1
 730 653 l 1,21,-1
 730 785 l 2,22,23
 730 820 730 820 690 820 c 2,24,-1
 635 820 l 1,25,-1
 635 280 l 1,26,-1
 690 280 l 2,27,28
 730 280 730 280 730 315 c 2,29,-1
 730 327 l 1,30,-1
 1020 465 l 1,31,-1
 1030 465 l 1,32,-1
 1030 307 l 2,33,34
 1030 0 1030 0 690 0 c 2,0,-1
515 280 m 1,35,-1
 515 820 l 1,36,-1
 460 820 l 2,37,38
 420 820 420 820 420 785 c 2,39,-1
 420 315 l 2,40,41
 420 280 420 280 460 280 c 2,42,-1
 515 280 l 1,35,-1
EndSplineSet
Validated: 19457
EndChar

StartChar: sterling
Encoding: 163 163 99
Width: 1375
GlyphClass: 2
Flags: W
HStem: 0 300<246 260 580 1129> 550 300<247 260 580 859> 1210 300<585.217 877.783>
VStem: 260 320<300 550 850 1197.91>
LayerCount: 2
Fore
SplineSet
110 0 m 1,0,-1
 110 10 l 1,1,-1
 246 300 l 1,2,-1
 260 300 l 1,3,-1
 260 550 l 1,4,-1
 111 550 l 1,5,-1
 111 560 l 1,6,-1
 247 850 l 1,7,-1
 260 850 l 1,8,-1
 260 1130 l 2,9,10
 260 1510 260 1510 670 1510 c 2,11,-1
 793 1510 l 2,12,13
 1203 1510 1203 1510 1203 1200 c 1,14,-1
 893 1052 l 1,15,-1
 883 1052 l 1,16,-1
 883 1139 l 2,17,18
 883 1210 883 1210 803 1210 c 2,19,-1
 660 1210 l 2,20,21
 580 1210 580 1210 580 1139 c 2,22,-1
 580 850 l 1,23,-1
 995 850 l 1,24,-1
 995 840 l 1,25,-1
 859 550 l 1,26,-1
 580 550 l 1,27,-1
 580 300 l 1,28,-1
 1265 300 l 1,29,-1
 1265 290 l 1,30,-1
 1129 0 l 1,31,-1
 110 0 l 1,0,-1
EndSplineSet
Validated: 19457
EndChar

StartChar: currency
Encoding: 164 164 100
Width: 1535
GlyphClass: 2
Flags: W
HStem: 180 300<528.535 1008.7> 1029 300<527.508 1007.79>
VStem: 203 320<486.489 1024.45> 1013 320<486.254 1022.86>
LayerCount: 2
Fore
SplineSet
603 480 m 2,0,-1
 933 480 l 2,1,2
 1013 480 1013 480 1013 551 c 2,3,-1
 1013 958 l 2,4,5
 1013 1029 1013 1029 933 1029 c 2,6,-1
 603 1029 l 2,7,8
 523 1029 523 1029 523 958 c 2,9,-1
 523 551 l 2,10,11
 523 480 523 480 603 480 c 2,0,-1
613 1329 m 2,12,-1
 923 1329 l 2,13,14
 1022 1329 1022 1329 1097 1307 c 1,15,-1
 1113 1323 l 1,16,-1
 1418 1215 l 1,17,-1
 1425 1208 l 1,18,-1
 1314 1097 l 1,19,20
 1333 1032 1333 1032 1333 949 c 2,21,-1
 1333 560 l 2,22,23
 1333 480 1333 480 1314 416 c 1,24,-1
 1425 305 l 1,25,-1
 1418 298 l 1,26,-1
 1112 190 l 1,27,-1
 1099 203 l 1,28,29
 1023 180 1023 180 923 180 c 2,30,-1
 613 180 l 2,31,32
 511 180 511 180 434 204 c 1,33,-1
 423 192 l 1,34,-1
 117 300 l 1,35,-1
 110 307 l 1,36,-1
 221 417 l 1,37,38
 203 480 203 480 203 560 c 2,39,-1
 203 949 l 2,40,41
 203 1031 203 1031 222 1096 c 1,42,-1
 110 1209 l 1,43,-1
 117 1216 l 1,44,-1
 421 1323 l 1,45,-1
 438 1307 l 1,46,47
 513 1329 513 1329 613 1329 c 2,12,-1
EndSplineSet
Validated: 19457
EndChar

StartChar: yen
Encoding: 165 165 101
Width: 1250
GlyphClass: 2
Flags: W
HStem: -20 21G<465 517.105> 94 140<261 465 785 989> 294 140<261 333 917 989> 1510 20G<347.823 400 1117.82 1170>
VStem: 80 320<725.922 1383> 850 320<725.922 1383>
LayerCount: 2
Fore
SplineSet
475 -20 m 1,0,-1
 465 -20 l 1,1,-1
 465 94 l 1,2,-1
 200 94 l 1,3,-1
 200 104 l 1,4,-1
 261 234 l 1,5,-1
 465 234 l 1,6,-1
 465 294 l 1,7,-1
 200 294 l 1,8,-1
 200 304 l 1,9,-1
 261 434 l 1,10,-1
 333 434 l 1,11,12
 80 498 80 498 80 797 c 2,13,-1
 80 1383 l 1,14,-1
 390 1530 l 1,15,-1
 400 1530 l 1,16,-1
 400 788 l 2,17,18
 400 717 400 717 480 717 c 2,19,-1
 770 717 l 2,20,21
 850 717 850 717 850 788 c 2,22,-1
 850 1383 l 1,23,-1
 1160 1530 l 1,24,-1
 1170 1530 l 1,25,-1
 1170 797 l 2,26,27
 1170 498 1170 498 917 434 c 1,28,-1
 1050 434 l 1,29,-1
 1050 424 l 1,30,-1
 989 294 l 1,31,-1
 785 294 l 1,32,-1
 785 234 l 1,33,-1
 1050 234 l 1,34,-1
 1050 224 l 1,35,-1
 989 94 l 1,36,-1
 715 94 l 1,37,-1
 475 -20 l 1,0,-1
EndSplineSet
Validated: 19457
EndChar

StartChar: brokenbar
Encoding: 166 166 102
Width: 690
GlyphClass: 2
Flags: W
VStem: 210 270<-76 589 913 1586>
LayerCount: 2
Fore
SplineSet
210 -200 m 1,0,-1
 210 589 l 1,1,-1
 470 713 l 1,2,-1
 480 713 l 1,3,-1
 480 -76 l 1,4,-1
 220 -200 l 1,5,-1
 210 -200 l 1,0,-1
470 1710 m 1,6,-1
 480 1710 l 1,7,-1
 480 913 l 1,8,-1
 220 789 l 1,9,-1
 210 789 l 1,10,-1
 210 1586 l 1,11,-1
 470 1710 l 1,6,-1
EndSplineSet
Validated: 19457
EndChar

StartChar: section
Encoding: 167 167 103
Width: 1089
GlyphClass: 2
Flags: W
HStem: 0 250<439.045 659.466> 406 251<402.35 659.466> 853 251<429.534 686.65> 1260 250<429.534 649.955>
VStem: 157 270<1106.12 1257.45> 662 270<252.548 403.875>
LayerCount: 2
Fore
SplineSet
464 0 m 2,0,1
 192 0 192 0 168 237 c 1,2,-1
 426 360 l 1,3,-1
 436 360 l 1,4,-1
 436 276 l 2,5,6
 436 250 436 250 476 250 c 2,7,-1
 622 250 l 2,8,9
 662 250 662 250 662 279 c 2,10,-1
 662 376 l 2,11,12
 662 406 662 406 622 406 c 2,13,-1
 454 406 l 2,14,15
 110 406 110 406 110 678 c 2,16,-1
 110 789 l 2,17,18
 110 843 110 843 120 887 c 1,19,-1
 400 778 l 1,20,-1
 400 689 l 2,21,22
 400 657 400 657 440 657 c 2,23,-1
 632 657 l 2,24,25
 932 657 932 657 932 369 c 2,26,-1
 932 278 l 2,27,28
 932 0 932 0 632 0 c 2,29,-1
 464 0 l 2,0,1
625 1510 m 2,30,31
 897 1510 897 1510 921 1273 c 1,32,-1
 663 1150 l 1,33,-1
 653 1150 l 1,34,-1
 653 1234 l 2,35,36
 653 1260 653 1260 613 1260 c 2,37,-1
 467 1260 l 2,38,39
 427 1260 427 1260 427 1231 c 2,40,-1
 427 1134 l 2,41,42
 427 1104 427 1104 467 1104 c 2,43,-1
 635 1104 l 2,44,45
 979 1104 979 1104 979 832 c 2,46,-1
 979 721 l 2,47,48
 979 667 979 667 969 623 c 1,49,-1
 689 732 l 1,50,-1
 689 821 l 2,51,52
 689 853 689 853 649 853 c 2,53,-1
 457 853 l 2,54,55
 157 853 157 853 157 1141 c 2,56,-1
 157 1232 l 2,57,58
 157 1510 157 1510 457 1510 c 2,59,-1
 625 1510 l 2,30,31
EndSplineSet
Validated: 19457
EndChar

StartChar: dieresis
Encoding: 168 168 104
Width: 690
GlyphClass: 2
Flags: W
HStem: 1210 297<73.8326 277.652 411.833 616.167>
VStem: 30 292<1255.38 1461.62> 368 292<1255.38 1461.62>
LayerCount: 2
Fore
SplineSet
514.5 1507 m 128,-1,1
 575 1507 575 1507 617.5 1463 c 128,-1,2
 660 1419 660 1419 660 1358.5 c 128,-1,3
 660 1298 660 1298 617.5 1254 c 128,-1,4
 575 1210 575 1210 514 1210 c 128,-1,5
 453 1210 453 1210 410.5 1254 c 128,-1,6
 368 1298 368 1298 368 1358 c 0,7,8
 368 1419 368 1419 411 1462 c 0,9,0
 454 1507 454 1507 514.5 1507 c 128,-1,1
175.5 1507 m 128,-1,11
 236 1507 236 1507 279 1463 c 128,-1,12
 322 1419 322 1419 322 1358.5 c 128,-1,13
 322 1298 322 1298 279 1254 c 128,-1,14
 236 1210 236 1210 176 1210 c 0,15,16
 115 1210 115 1210 72.5 1254 c 128,-1,17
 30 1298 30 1298 30 1358 c 0,18,19
 30 1419 30 1419 72 1462 c 0,20,10
 115 1507 115 1507 175.5 1507 c 128,-1,11
EndSplineSet
Validated: 19457
EndChar

StartChar: copyright
Encoding: 169 169 105
Width: 1321
GlyphClass: 2
Flags: W
HStem: 386 48<505.181 810.676> 553 191<577.309 758> 1157 191<577.309 757.973> 1478 52<504.168 816.773>
VStem: 110 50<794.694 1125.05> 372 200<750.08 1150.92> 758 200<750.08 788 1110.47 1156.64> 1160 51<785.868 1126.58>
LayerCount: 2
Fore
SplineSet
598 1348 m 2,0,-1
 732 1348 l 2,1,2
 946 1348 946 1348 961 1115 c 1,3,-1
 768 1039 l 1,4,-1
 758 1039 l 1,5,-1
 758 1142 l 2,6,7
 758 1157 758 1157 738 1157 c 2,8,-1
 592 1157 l 2,9,10
 572 1157 572 1157 572 1142 c 2,11,-1
 572 759 l 2,12,13
 572 744 572 744 592 744 c 2,14,-1
 738 744 l 2,15,16
 758 744 758 744 758 759 c 2,17,-1
 758 788 l 1,18,-1
 948 872 l 1,19,-1
 958 872 l 1,20,-1
 958 763 l 2,21,22
 958 553 958 553 732 553 c 2,23,-1
 598 553 l 2,24,25
 372 553 372 553 372 763 c 2,26,-1
 372 1138 l 2,27,28
 372 1348 372 1348 598 1348 c 2,0,-1
661 1530 m 0,29,30
 903 1530 903 1530 1059 1357 c 0,31,32
 1211 1188 1211 1188 1211 953 c 0,33,34
 1211 701 1211 701 1050 549 c 0,35,36
 879 386 879 386 659 386 c 0,37,38
 436 386 436 386 271 549 c 0,39,40
 110 708 110 708 110 953 c 0,41,42
 110 1197 110 1197 268 1362 c 0,43,44
 429 1530 429 1530 661 1530 c 0,29,30
659 1478 m 0,45,46
 459 1478 459 1478 310 1330 c 0,47,48
 160 1181 160 1181 160 953 c 0,49,50
 160 750 160 750 307 587 c 0,51,52
 445 434 445 434 661 434 c 0,53,54
 862 434 862 434 1014 587 c 0,55,56
 1160 734 1160 734 1160 953 c 0,57,58
 1160 1185 1160 1185 1016 1327 c 0,59,60
 863 1478 863 1478 659 1478 c 0,45,46
EndSplineSet
Validated: 19457
EndChar

StartChar: ordfeminine
Encoding: 170 170 106
Width: 581
GlyphClass: 2
Flags: W
HStem: 733 180<101 470> 979 126<204.469 363> 1209 126<200.058 362> 1406 164<192 361>
VStem: 59 141<1107.5 1208.88> 363 188<1105 1209 1335 1403.33>
LayerCount: 2
Fore
SplineSet
361 1570 m 2,0,1
 551 1570 551 1570 551 1398 c 2,2,-1
 551 1040 l 1,3,-1
 371 969 l 1,4,-1
 361 969 l 1,5,-1
 361 979 l 1,6,-1
 249 979 l 2,7,8
 59 979 59 979 59 1153 c 2,9,-1
 59 1176 l 2,10,11
 59 1335 59 1335 250 1335 c 2,12,-1
 362 1335 l 1,13,-1
 361 1406 l 1,14,-1
 131 1406 l 1,15,-1
 131 1416 l 1,16,-1
 192 1570 l 1,17,-1
 361 1570 l 2,0,1
200 1105 m 1,18,-1
 363 1105 l 1,19,-1
 363 1209 l 1,20,-1
 200 1209 l 1,21,-1
 200 1105 l 1,18,-1
101 913 m 1,22,-1
 551 913 l 1,23,-1
 551 903 l 1,24,-1
 470 733 l 1,25,-1
 20 733 l 1,26,-1
 20 743 l 1,27,-1
 101 913 l 1,22,-1
EndSplineSet
Validated: 1
EndChar

StartChar: guillemotleft
Encoding: 171 171 107
Width: 1292
GlyphClass: 2
Flags: W
VStem: 110 312<599 911> 591 312<599 911>
DStem2: 422 755 110 755 0.50792 -0.861404<0 424.298> 110 755 422 755 0.50792 0.861404<158.471 582.769> 903 755 591 755 0.50792 -0.861404<0 424.298> 591 755 903 755 0.50792 0.861404<158.471 582.769>
LayerCount: 2
Fore
SplineSet
591 755 m 1,0,-1
 887 1257 l 1,1,-1
 897 1257 l 1,2,-1
 1132 1145 l 1,3,-1
 903 755 l 1,4,-1
 1132 365 l 1,5,-1
 897 253 l 1,6,-1
 887 253 l 1,7,-1
 591 755 l 1,0,-1
110 755 m 1,8,-1
 406 1257 l 1,9,-1
 416 1257 l 1,10,-1
 651 1145 l 1,11,-1
 422 755 l 1,12,-1
 651 365 l 1,13,-1
 416 253 l 1,14,-1
 406 253 l 1,15,-1
 110 755 l 1,8,-1
EndSplineSet
Validated: 19457
EndChar

StartChar: logicalnot
Encoding: 172 172 108
Width: 1240
GlyphClass: 2
Flags: W
HStem: 620 270<235 759>
LayerCount: 2
Fore
SplineSet
235 890 m 1,0,-1
 1130 890 l 1,1,-1
 1130 880 l 1,2,-1
 879 358 l 1,3,-1
 633 358 l 1,4,-1
 759 620 l 1,5,-1
 110 620 l 1,6,-1
 110 630 l 1,7,-1
 235 890 l 1,0,-1
EndSplineSet
Validated: 19457
EndChar

StartChar: uni00AD
Encoding: 173 173 109
Width: 1240
GlyphClass: 2
Flags: W
HStem: 620 270<235 1005>
LayerCount: 2
Fore
SplineSet
235 890 m 1,0,-1
 1130 890 l 1,1,-1
 1130 880 l 1,2,-1
 1005 620 l 1,3,-1
 110 620 l 1,4,-1
 110 630 l 1,5,-1
 235 890 l 1,0,-1
EndSplineSet
Validated: 19457
EndChar

StartChar: registered
Encoding: 174 174 110
Width: 1321
GlyphClass: 2
Flags: W
HStem: 386 48<505.181 810.676> 778 191<588 662> 1164 191<588 748.599> 1478 52<504.168 816.773>
VStem: 110 50<794.694 1125.05> 388 200<623 778 969 1164> 753 200<970.455 1160.59> 1160 51<785.868 1126.58>
LayerCount: 2
Fore
SplineSet
753 1148 m 2,0,1
 753 1164 753 1164 733 1164 c 2,2,-1
 588 1164 l 1,3,-1
 588 969 l 1,4,-1
 733 969 l 2,5,6
 753 969 753 969 753 985 c 2,7,-1
 753 1148 l 2,0,1
562 1355 m 1,8,-1
 728 1355 l 2,9,10
 953 1355 953 1355 953 1141 c 2,11,-1
 953 992 l 2,12,13
 953 874 953 874 883 822 c 1,14,-1
 1027 624 l 1,15,-1
 835 548 l 1,16,-1
 825 548 l 1,17,-1
 662 778 l 1,18,-1
 588 778 l 1,19,-1
 588 623 l 1,20,-1
 398 548 l 1,21,-1
 388 548 l 1,22,-1
 388 1278 l 1,23,-1
 562 1355 l 1,8,-1
661 1530 m 0,24,25
 903 1530 903 1530 1059 1357 c 0,26,27
 1211 1188 1211 1188 1211 953 c 0,28,29
 1211 701 1211 701 1050 549 c 0,30,31
 879 386 879 386 659 386 c 0,32,33
 436 386 436 386 271 549 c 0,34,35
 110 708 110 708 110 953 c 0,36,37
 110 1197 110 1197 268 1362 c 0,38,39
 429 1530 429 1530 661 1530 c 0,24,25
659 1478 m 0,40,41
 459 1478 459 1478 310 1330 c 0,42,43
 160 1181 160 1181 160 953 c 0,44,45
 160 750 160 750 307 587 c 0,46,47
 445 434 445 434 661 434 c 0,48,49
 862 434 862 434 1014 587 c 0,50,51
 1160 734 1160 734 1160 953 c 0,52,53
 1160 1185 1160 1185 1016 1327 c 0,54,55
 863 1478 863 1478 659 1478 c 0,40,41
EndSplineSet
Validated: 19457
EndChar

StartChar: macron
Encoding: 175 175 111
Width: 680
GlyphClass: 2
Flags: W
HStem: 1288 190<116 564>
VStem: 30 620
LayerCount: 2
Fore
SplineSet
116 1478 m 1,0,-1
 650 1478 l 1,1,-1
 650 1468 l 1,2,-1
 564 1288 l 1,3,-1
 30 1288 l 1,4,-1
 30 1298 l 1,5,-1
 116 1478 l 1,0,-1
EndSplineSet
Validated: 19457
EndChar

StartChar: degree
Encoding: 176 176 112
Width: 730
GlyphClass: 2
Flags: W
HStem: 889 194<219.062 510.938> 1383 187<219.062 510.938>
VStem: 30 188<1083.47 1382.41> 512 188<1083.47 1382.41>
LayerCount: 2
Fore
SplineSet
270 1383 m 2,0,1
 218 1383 218 1383 218 1332 c 2,2,-1
 218 1134 l 2,3,4
 218 1083 218 1083 270 1083 c 2,5,-1
 460 1083 l 2,6,7
 512 1083 512 1083 512 1134 c 2,8,-1
 512 1332 l 2,9,10
 512 1383 512 1383 460 1383 c 2,11,-1
 270 1383 l 2,0,1
286 1570 m 2,12,-1
 444 1570 l 2,13,14
 700 1570 700 1570 700 1316 c 2,15,-1
 700 1143 l 2,16,17
 700 889 700 889 444 889 c 2,18,-1
 286 889 l 2,19,20
 30 889 30 889 30 1143 c 2,21,-1
 30 1316 l 2,22,23
 30 1570 30 1570 286 1570 c 2,12,-1
EndSplineSet
Validated: 19457
EndChar

StartChar: plusminus
Encoding: 177 177 113
Width: 1240
GlyphClass: 2
Flags: W
HStem: 154 270<235 1005> 828 270<235 485 755 1005>
VStem: 485 270<578 828 1098 1348>
LayerCount: 2
Fore
SplineSet
235 424 m 1,0,-1
 1130 424 l 1,1,-1
 1130 414 l 1,2,-1
 1005 154 l 1,3,-1
 110 154 l 1,4,-1
 110 164 l 1,5,-1
 235 424 l 1,0,-1
745 1473 m 1,6,-1
 755 1473 l 1,7,-1
 755 1098 l 1,8,-1
 1130 1098 l 1,9,-1
 1130 1088 l 1,10,-1
 1005 828 l 1,11,-1
 755 828 l 1,12,-1
 755 578 l 1,13,-1
 495 453 l 1,14,-1
 485 453 l 1,15,-1
 485 828 l 1,16,-1
 110 828 l 1,17,-1
 110 838 l 1,18,-1
 235 1098 l 1,19,-1
 485 1098 l 1,20,-1
 485 1348 l 1,21,-1
 745 1473 l 1,6,-1
EndSplineSet
Validated: 19457
EndChar

StartChar: uni00B2
Encoding: 178 178 114
Width: 671
GlyphClass: 2
Flags: W
HStem: 765 191<397 569> 1369 191<259.401 430.599>
VStem: 435 200<1194.42 1362.92>
LayerCount: 2
Fore
SplineSet
280 1560 m 2,0,-1
 410 1560 l 2,1,2
 635 1560 635 1560 635 1350 c 2,3,-1
 635 1294 l 2,4,5
 635 1144 635 1144 483 1024 c 2,6,-1
 397 956 l 1,7,-1
 641 956 l 1,8,-1
 641 946 l 1,9,-1
 569 765 l 1,10,-1
 30 765 l 1,11,-1
 30 775 l 1,12,-1
 115 967 l 1,13,-1
 329 1134 l 2,14,15
 435 1217 435 1217 435 1288 c 2,16,-1
 435 1354 l 2,17,18
 435 1369 435 1369 415 1369 c 2,19,-1
 275 1369 l 2,20,21
 255 1369 255 1369 255 1354 c 2,22,-1
 255 1316 l 1,23,-1
 65 1241 l 1,24,-1
 55 1241 l 1,25,-1
 55 1350 l 2,26,27
 55 1560 55 1560 280 1560 c 2,0,-1
EndSplineSet
Validated: 19457
EndChar

StartChar: uni00B3
Encoding: 179 179 115
Width: 656
GlyphClass: 2
Flags: W
HStem: 765 191<235.309 410.691> 1369 191<167 298>
VStem: 416 200<962.08 1113.83>
LayerCount: 2
Fore
SplineSet
167 1560 m 1,0,-1
 626 1560 l 1,1,-1
 466 1296 l 1,2,3
 616 1264 616 1264 616 1093 c 2,4,-1
 616 975 l 2,5,6
 616 765 616 765 390 765 c 2,7,-1
 256 765 l 2,8,9
 30 765 30 765 30 980 c 2,10,-1
 30 990 l 1,11,-1
 220 1074 l 1,12,-1
 230 1074 l 1,13,-1
 230 971 l 2,14,15
 230 956 230 956 250 956 c 2,16,-1
 396 956 l 2,17,18
 416 956 416 956 416 971 c 2,19,-1
 416 1099 l 2,20,21
 416 1114 416 1114 396 1114 c 2,22,-1
 232 1114 l 1,23,-1
 179 1173 l 1,24,-1
 298 1369 l 1,25,-1
 87 1369 l 1,26,-1
 87 1379 l 1,27,-1
 167 1560 l 1,0,-1
EndSplineSet
Validated: 19457
EndChar

StartChar: acute
Encoding: 180 180 116
Width: 405
GlyphClass: 2
Flags: W
HStem: 1160 410
VStem: 30 345
DStem2: 30 1244 218 1160 0.429396 0.903116<4.86464 360.972>
LayerCount: 2
Fore
SplineSet
195 1570 m 1,0,-1
 375 1485 l 1,1,-1
 218 1160 l 1,2,-1
 208 1160 l 1,3,-1
 30 1244 l 1,4,-1
 185 1570 l 1,5,-1
 195 1570 l 1,0,-1
EndSplineSet
Validated: 19457
EndChar

StartChar: uni00B5
Encoding: 181 181 117
Width: 1230
GlyphClass: 2
Flags: W
HStem: -430 21G<140 192.029> 0 280<440.594 781.128> 1100 20G<387.971 440 1037.97 1090>
VStem: 140 300<-292 6 280 982> 790 300<288.112 982>
LayerCount: 2
Fore
SplineSet
750 0 m 2,0,-1
 480 0 l 2,1,2
 459 0 459 0 440 6 c 1,3,-1
 440 -292 l 1,4,-1
 150 -430 l 1,5,-1
 140 -430 l 1,6,-1
 140 982 l 1,7,-1
 430 1120 l 1,8,-1
 440 1120 l 1,9,-1
 440 315 l 2,10,11
 440 280 440 280 480 280 c 2,12,-1
 750 280 l 2,13,14
 790 280 790 280 790 315 c 2,15,-1
 790 982 l 1,16,-1
 1080 1120 l 1,17,-1
 1090 1120 l 1,18,-1
 1090 307 l 2,19,20
 1090 0 1090 0 750 0 c 2,0,-1
EndSplineSet
Validated: 19457
EndChar

StartChar: paragraph
Encoding: 182 182 118
Width: 1220
GlyphClass: 2
Flags: W
HStem: -20 21G<740 792.308> 1490 20G<280 890>
VStem: 740 120<32 513> 944 116<127 1144>
LayerCount: 2
Fore
SplineSet
750 -20 m 1,0,-1
 740 -20 l 1,1,-1
 740 513 l 1,2,3
 730 507 730 507 720 507 c 2,4,-1
 450 507 l 2,5,6
 110 507 110 507 110 822 c 2,7,-1
 110 1195 l 2,8,9
 110 1510 110 1510 450 1510 c 2,10,-1
 720 1510 l 2,11,12
 1060 1510 1060 1510 1060 1195 c 2,13,-1
 1060 127 l 1,14,-1
 944 72 l 1,15,-1
 944 1144 l 1,16,-1
 860 1106 l 1,17,-1
 860 32 l 1,18,-1
 750 -20 l 1,0,-1
EndSplineSet
Validated: 19457
EndChar

StartChar: periodcentered
Encoding: 183 183 119
Width: 420
GlyphClass: 2
Flags: W
HStem: 573 365<92.1309 326.878>
VStem: 30 360<635.566 875.578>
LayerCount: 2
Fore
SplineSet
210 938 m 128,-1,1
 285 938 285 938 337.5 884.5 c 128,-1,2
 390 831 390 831 390 756 c 128,-1,3
 390 681 390 681 337 627 c 128,-1,4
 284 573 284 573 210 573 c 0,5,6
 134 573 134 573 82 627 c 128,-1,7
 30 681 30 681 30 755 c 0,8,9
 30 831 30 831 82 884 c 0,10,0
 135 938 135 938 210 938 c 128,-1,1
EndSplineSet
Validated: 19457
EndChar

StartChar: cedilla
Encoding: 184 184 120
Width: 440
GlyphClass: 2
Flags: W
HStem: -410 410 -20 20G<136 299>
VStem: 136 163<-61.7314 0> 202 208<-207.507 -85.3716>
LayerCount: 2
Fore
SplineSet
30 -410 m 1,0,-1
 30 -400 l 1,1,-1
 116 -220 l 1,2,3
 202 -204 202 -204 202 -145 c 0,4,5
 202 -100 202 -100 136 -76 c 1,6,-1
 136 0 l 1,7,-1
 299 0 l 1,8,-1
 299 -40 l 1,9,10
 410 -83 410 -83 410 -187 c 0,11,12
 410 -410 410 -410 30 -410 c 1,0,-1
EndSplineSet
Validated: 19457
EndChar

StartChar: uni00B9
Encoding: 185 185 121
Width: 412
GlyphClass: 2
Flags: W
VStem: 152 200<831 1294>
LayerCount: 2
Fore
SplineSet
342 1570 m 1,0,-1
 352 1570 l 1,1,-1
 352 831 l 1,2,-1
 162 756 l 1,3,-1
 152 756 l 1,4,-1
 152 1294 l 1,5,-1
 30 1242 l 1,6,-1
 30 1432 l 1,7,-1
 342 1570 l 1,0,-1
EndSplineSet
Validated: 19457
EndChar

StartChar: ordmasculine
Encoding: 186 186 122
Width: 594
GlyphClass: 2
Flags: W
HStem: 733 180<101 483> 969 181<240 374> 1379 181<240 374>
VStem: 50 190<1150 1379> 374 190<1150 1379>
LayerCount: 2
Fore
SplineSet
374 1150 m 1,0,-1
 374 1379 l 1,1,-1
 240 1379 l 1,2,-1
 240 1150 l 1,3,-1
 374 1150 l 1,0,-1
240 1560 m 2,4,-1
 374 1560 l 2,5,6
 564 1560 564 1560 564 1387 c 2,7,-1
 564 1142 l 2,8,9
 564 969 564 969 374 969 c 2,10,-1
 240 969 l 2,11,12
 50 969 50 969 50 1142 c 2,13,-1
 50 1387 l 2,14,15
 50 1560 50 1560 240 1560 c 2,4,-1
101 913 m 1,16,-1
 564 913 l 1,17,-1
 564 903 l 1,18,-1
 483 733 l 1,19,-1
 20 733 l 1,20,-1
 20 743 l 1,21,-1
 101 913 l 1,16,-1
EndSplineSet
Validated: 1
EndChar

StartChar: guillemotright
Encoding: 187 187 123
Width: 1292
GlyphClass: 2
Flags: W
VStem: 389 312<599 911> 870 312<599 911>
DStem2: 405 1257 160 1145 0.50792 -0.861404<0 424.298> 160 365 405 253 0.50792 0.861404<27.963 452.261> 886 1257 641 1145 0.50792 -0.861404<0 424.298> 641 365 886 253 0.50792 0.861404<27.963 452.261>
LayerCount: 2
Fore
SplineSet
701 755 m 1,0,-1
 405 253 l 1,1,-1
 395 253 l 1,2,-1
 160 365 l 1,3,-1
 389 755 l 1,4,-1
 160 1145 l 1,5,-1
 395 1257 l 1,6,-1
 405 1257 l 1,7,-1
 701 755 l 1,0,-1
1182 755 m 1,8,-1
 886 253 l 1,9,-1
 876 253 l 1,10,-1
 641 365 l 1,11,-1
 870 755 l 1,12,-1
 641 1145 l 1,13,-1
 876 1257 l 1,14,-1
 886 1257 l 1,15,-1
 1182 755 l 1,8,-1
EndSplineSet
Validated: 19457
EndChar

StartChar: onequarter
Encoding: 188 188 124
Width: 1543
GlyphClass: 2
Flags: W
HStem: -20 21G<450.053 511.325 1158 1218.67> 142 191<1070 1158> 1510 20G<376.783 432 916.661 977.77>
VStem: 232 200<791 1254> 1158 200<55 133 333 450>
DStem2: 255 93 502 -20 0.423093 0.906086<2.11609 1585.94>
LayerCount: 2
Fore
SplineSet
422 1530 m 1,0,-1
 432 1530 l 1,1,-1
 432 791 l 1,2,-1
 242 716 l 1,3,-1
 232 716 l 1,4,-1
 232 1254 l 1,5,-1
 110 1202 l 1,6,-1
 110 1392 l 1,7,-1
 422 1530 l 1,0,-1
492 -20 m 1,8,-1
 255 93 l 1,9,-1
 926 1530 l 1,10,-1
 936 1530 l 1,11,-1
 1172 1417 l 1,12,-1
 502 -20 l 1,13,-1
 492 -20 l 1,8,-1
1070 333 m 1,14,-1
 1158 333 l 1,15,-1
 1158 450 l 1,16,-1
 1070 333 l 1,14,-1
1168 -20 m 1,17,-1
 1158 -20 l 1,18,-1
 1158 142 l 1,19,-1
 770 142 l 1,20,-1
 770 152 l 1,21,-1
 1153 708 l 1,22,-1
 1348 794 l 1,23,-1
 1358 794 l 1,24,-1
 1358 333 l 1,25,-1
 1433 333 l 1,26,-1
 1433 323 l 1,27,-1
 1358 133 l 1,28,-1
 1358 55 l 1,29,-1
 1168 -20 l 1,17,-1
EndSplineSet
Validated: 19457
EndChar

StartChar: onehalf
Encoding: 189 189 125
Width: 1677
GlyphClass: 2
Flags: W
HStem: -20 21G<450.053 511.325> 0 191<1323 1495> 604 191<1185.4 1356.6> 1510 20G<376.783 432 916.661 977.77>
VStem: 232 200<791 1254> 1361 200<429.42 597.92>
DStem2: 255 93 502 -20 0.423093 0.906086<2.11609 1585.94>
LayerCount: 2
Fore
SplineSet
956 0 m 1,0,-1
 956 10 l 1,1,-1
 1041 202 l 1,2,-1
 1255 369 l 2,3,4
 1361 452 1361 452 1361 523 c 2,5,-1
 1361 589 l 2,6,7
 1361 604 1361 604 1341 604 c 2,8,-1
 1201 604 l 2,9,10
 1181 604 1181 604 1181 589 c 2,11,-1
 1181 551 l 1,12,-1
 991 476 l 1,13,-1
 981 476 l 1,14,-1
 981 585 l 2,15,16
 981 795 981 795 1206 795 c 2,17,-1
 1336 795 l 2,18,19
 1561 795 1561 795 1561 585 c 2,20,-1
 1561 529 l 2,21,22
 1561 379 1561 379 1409 259 c 2,23,-1
 1323 191 l 1,24,-1
 1567 191 l 1,25,-1
 1567 181 l 1,26,-1
 1495 0 l 1,27,-1
 956 0 l 1,0,-1
422 1530 m 1,28,-1
 432 1530 l 1,29,-1
 432 791 l 1,30,-1
 242 716 l 1,31,-1
 232 716 l 1,32,-1
 232 1254 l 1,33,-1
 110 1202 l 1,34,-1
 110 1392 l 1,35,-1
 422 1530 l 1,28,-1
492 -20 m 1,36,-1
 255 93 l 1,37,-1
 926 1530 l 1,38,-1
 936 1530 l 1,39,-1
 1172 1417 l 1,40,-1
 502 -20 l 1,41,-1
 492 -20 l 1,36,-1
EndSplineSet
Validated: 19457
EndChar

StartChar: threequarters
Encoding: 190 190 126
Width: 1780
GlyphClass: 2
Flags: W
HStem: -20 21G<687.053 748.325 1395 1455.67> 142 191<1307 1395> 735 191<315.309 490.691> 1339 191<247 378>
VStem: 496 200<932.08 1083.83> 1395 200<55 133 333 450>
DStem2: 492 93 739 -20 0.423093 0.906086<2.11609 1585.94>
LayerCount: 2
Fore
SplineSet
247 1530 m 1,0,-1
 706 1530 l 1,1,-1
 546 1266 l 1,2,3
 696 1234 696 1234 696 1063 c 2,4,-1
 696 945 l 2,5,6
 696 735 696 735 470 735 c 2,7,-1
 336 735 l 2,8,9
 110 735 110 735 110 950 c 2,10,-1
 110 960 l 1,11,-1
 300 1044 l 1,12,-1
 310 1044 l 1,13,-1
 310 941 l 2,14,15
 310 926 310 926 330 926 c 2,16,-1
 476 926 l 2,17,18
 496 926 496 926 496 941 c 2,19,-1
 496 1069 l 2,20,21
 496 1084 496 1084 476 1084 c 2,22,-1
 312 1084 l 1,23,-1
 259 1143 l 1,24,-1
 378 1339 l 1,25,-1
 167 1339 l 1,26,-1
 167 1349 l 1,27,-1
 247 1530 l 1,0,-1
729 -20 m 1,28,-1
 492 93 l 1,29,-1
 1163 1530 l 1,30,-1
 1173 1530 l 1,31,-1
 1409 1417 l 1,32,-1
 739 -20 l 1,33,-1
 729 -20 l 1,28,-1
1307 333 m 1,34,-1
 1395 333 l 1,35,-1
 1395 450 l 1,36,-1
 1307 333 l 1,34,-1
1405 -20 m 1,37,-1
 1395 -20 l 1,38,-1
 1395 142 l 1,39,-1
 1007 142 l 1,40,-1
 1007 152 l 1,41,-1
 1390 708 l 1,42,-1
 1585 794 l 1,43,-1
 1595 794 l 1,44,-1
 1595 333 l 1,45,-1
 1670 333 l 1,46,-1
 1670 323 l 1,47,-1
 1595 133 l 1,48,-1
 1595 55 l 1,49,-1
 1405 -20 l 1,37,-1
EndSplineSet
Validated: 19457
EndChar

StartChar: questiondown
Encoding: 191 191 127
Width: 1300
GlyphClass: 2
Flags: W
HStem: -410 300<435.217 864.783> 755 365<578.122 812.869>
VStem: 110 320<-97.9102 203.064> 515 360<817.422 1057.43>
LayerCount: 2
Fore
SplineSet
780 -410 m 2,0,-1
 520 -410 l 2,1,2
 110 -410 110 -410 110 -30 c 2,3,-1
 110 44 l 2,4,5
 110 364 110 364 472 529 c 0,6,7
 529 555 529 555 529 594 c 1,8,-1
 842 741 l 1,9,-1
 852 741 l 1,10,11
 852 408 852 408 609 304 c 0,12,13
 430 228 430 228 430 62 c 2,14,-1
 430 -39 l 2,15,16
 430 -110 430 -110 510 -110 c 2,17,-1
 790 -110 l 2,18,19
 870 -110 870 -110 870 -39 c 2,20,-1
 870 0 l 1,21,-1
 1180 148 l 1,22,-1
 1190 148 l 1,23,-1
 1190 -30 l 2,24,25
 1190 -410 1190 -410 780 -410 c 2,0,-1
695 1120 m 0,26,27
 771 1120 771 1120 823 1066 c 128,-1,28
 875 1012 875 1012 875 938 c 0,29,30
 875 862 875 862 823 809 c 0,31,32
 770 755 770 755 695 755 c 128,-1,33
 620 755 620 755 567.5 808.5 c 128,-1,34
 515 862 515 862 515 937 c 128,-1,35
 515 1012 515 1012 568 1066 c 128,-1,36
 621 1120 621 1120 695 1120 c 0,26,27
EndSplineSet
Validated: 19457
EndChar

StartChar: endash
Encoding: 8211 8211 128
Width: 1240
GlyphClass: 2
Flags: W
HStem: 620 270<235 1005>
LayerCount: 2
Fore
SplineSet
235 890 m 1,0,-1
 1130 890 l 1,1,-1
 1130 880 l 1,2,-1
 1005 620 l 1,3,-1
 110 620 l 1,4,-1
 110 630 l 1,5,-1
 235 890 l 1,0,-1
EndSplineSet
Validated: 19457
EndChar

StartChar: emdash
Encoding: 8212 8212 129
Width: 1570
GlyphClass: 2
Flags: W
HStem: 620 270<235 1335>
LayerCount: 2
Fore
SplineSet
235 890 m 1,0,-1
 1460 890 l 1,1,-1
 1460 880 l 1,2,-1
 1335 620 l 1,3,-1
 110 620 l 1,4,-1
 110 630 l 1,5,-1
 235 890 l 1,0,-1
EndSplineSet
Validated: 19457
EndChar

StartChar: afii00208
Encoding: 8213 8213 130
Width: 1570
GlyphClass: 2
Flags: W
HStem: 620 270<235 1335>
LayerCount: 2
Fore
SplineSet
235 890 m 1,0,-1
 1460 890 l 1,1,-1
 1460 880 l 1,2,-1
 1335 620 l 1,3,-1
 110 620 l 1,4,-1
 110 630 l 1,5,-1
 235 890 l 1,0,-1
EndSplineSet
Validated: 19457
EndChar

StartChar: quoteleft
Encoding: 8216 8216 131
Width: 496
GlyphClass: 2
Flags: W
HStem: 934 666
VStem: 30 264<1158.4 1384.82>
LayerCount: 2
Fore
SplineSet
366 1600 m 1,0,-1
 373 1593 l 1,1,2
 294 1444 294 1444 294 1296 c 0,3,4
 294 1140 294 1140 466 1060 c 1,5,-1
 197 934 l 1,6,-1
 187 934 l 1,7,8
 30 1036 30 1036 30 1218 c 0,9,10
 30 1475 30 1475 366 1600 c 1,0,-1
EndSplineSet
Validated: 19457
EndChar

StartChar: quoteright
Encoding: 8217 8217 132
Width: 496
GlyphClass: 2
Flags: W
HStem: 934 666
VStem: 202 264<1149.18 1375.6>
LayerCount: 2
Fore
SplineSet
30 1474 m 1,0,-1
 299 1600 l 1,1,-1
 309 1600 l 1,2,3
 466 1498 466 1498 466 1316 c 0,4,5
 466 1059 466 1059 130 934 c 1,6,-1
 123 941 l 1,7,8
 202 1090 202 1090 202 1238 c 0,9,10
 202 1394 202 1394 30 1474 c 1,0,-1
EndSplineSet
Validated: 19457
EndChar

StartChar: quotesinglbase
Encoding: 8218 8218 133
Width: 496
GlyphClass: 2
Flags: W
HStem: -328 666
VStem: 202 264<-112.817 113.6>
LayerCount: 2
Fore
SplineSet
30 212 m 1,0,-1
 299 338 l 1,1,-1
 309 338 l 1,2,3
 466 236 466 236 466 54 c 0,4,5
 466 -203 466 -203 130 -328 c 1,6,-1
 123 -321 l 1,7,8
 202 -172 202 -172 202 -24 c 0,9,10
 202 132 202 132 30 212 c 1,0,-1
EndSplineSet
Validated: 19457
EndChar

StartChar: quotereversed
Encoding: 8219 8219 134
Width: 496
GlyphClass: 2
Flags: W
HStem: 934 666
VStem: 30 264<1149.18 1375.6>
LayerCount: 2
Fore
SplineSet
466 1474 m 1,0,1
 294 1394 294 1394 294 1238 c 0,2,3
 294 1090 294 1090 373 941 c 1,4,-1
 366 934 l 1,5,6
 30 1059 30 1059 30 1316 c 0,7,8
 30 1498 30 1498 187 1600 c 1,9,-1
 197 1600 l 1,10,-1
 466 1474 l 1,0,1
EndSplineSet
Validated: 19457
EndChar

StartChar: quotedblleft
Encoding: 8220 8220 135
Width: 914
GlyphClass: 2
Flags: W
HStem: 934 666
VStem: 30 264<1158.4 1384.82> 448 264<1158.4 1384.82>
LayerCount: 2
Fore
SplineSet
366 1600 m 1,0,-1
 373 1593 l 1,1,2
 294 1444 294 1444 294 1296 c 0,3,4
 294 1140 294 1140 466 1060 c 1,5,-1
 197 934 l 1,6,-1
 187 934 l 1,7,8
 30 1036 30 1036 30 1218 c 0,9,10
 30 1475 30 1475 366 1600 c 1,0,-1
784 1600 m 1,11,-1
 791 1593 l 1,12,13
 712 1444 712 1444 712 1296 c 0,14,15
 712 1140 712 1140 884 1060 c 1,16,-1
 615 934 l 1,17,-1
 605 934 l 1,18,19
 448 1036 448 1036 448 1218 c 0,20,21
 448 1475 448 1475 784 1600 c 1,11,-1
EndSplineSet
Validated: 19457
EndChar

StartChar: quotedblright
Encoding: 8221 8221 136
Width: 914
GlyphClass: 2
Flags: W
HStem: 934 666
VStem: 202 264<1149.18 1375.6> 620 264<1149.18 1375.6>
LayerCount: 2
Fore
SplineSet
448 1474 m 1,0,-1
 717 1600 l 1,1,-1
 727 1600 l 1,2,3
 884 1498 884 1498 884 1316 c 0,4,5
 884 1059 884 1059 548 934 c 1,6,-1
 541 941 l 1,7,8
 620 1090 620 1090 620 1238 c 0,9,10
 620 1394 620 1394 448 1474 c 1,0,-1
30 1474 m 1,11,-1
 299 1600 l 1,12,-1
 309 1600 l 1,13,14
 466 1498 466 1498 466 1316 c 0,15,16
 466 1059 466 1059 130 934 c 1,17,-1
 123 941 l 1,18,19
 202 1090 202 1090 202 1238 c 0,20,21
 202 1394 202 1394 30 1474 c 1,11,-1
EndSplineSet
Validated: 19457
EndChar

StartChar: quotedblbase
Encoding: 8222 8222 137
Width: 914
GlyphClass: 2
Flags: W
HStem: -328 666
VStem: 202 264<-112.817 113.6> 620 264<-112.817 113.6>
LayerCount: 2
Fore
SplineSet
448 212 m 1,0,-1
 717 338 l 1,1,-1
 727 338 l 1,2,3
 884 236 884 236 884 54 c 0,4,5
 884 -203 884 -203 548 -328 c 1,6,-1
 541 -321 l 1,7,8
 620 -172 620 -172 620 -24 c 0,9,10
 620 132 620 132 448 212 c 1,0,-1
30 212 m 1,11,-1
 299 338 l 1,12,-1
 309 338 l 1,13,14
 466 236 466 236 466 54 c 0,15,16
 466 -203 466 -203 130 -328 c 1,17,-1
 123 -321 l 1,18,19
 202 -172 202 -172 202 -24 c 0,20,21
 202 132 202 132 30 212 c 1,11,-1
EndSplineSet
Validated: 19457
EndChar

StartChar: dagger
Encoding: 8224 8224 138
Width: 1254
GlyphClass: 2
Flags: W
HStem: -20 21G<467 519.177> 914 300<249 467 787 1005> 1510 20G<735.108 787>
VStem: 467 320<127 914 1214 1382>
LayerCount: 2
Fore
SplineSet
477 -20 m 1,0,-1
 467 -20 l 1,1,-1
 467 914 l 1,2,-1
 110 914 l 1,3,-1
 110 924 l 1,4,-1
 249 1214 l 1,5,-1
 467 1214 l 1,6,-1
 467 1382 l 1,7,-1
 777 1530 l 1,8,-1
 787 1530 l 1,9,-1
 787 1214 l 1,10,-1
 1144 1214 l 1,11,-1
 1144 1204 l 1,12,-1
 1005 914 l 1,13,-1
 787 914 l 1,14,-1
 787 127 l 1,15,-1
 477 -20 l 1,0,-1
EndSplineSet
Validated: 19457
EndChar

StartChar: daggerdbl
Encoding: 8225 8225 139
Width: 1254
GlyphClass: 2
Flags: W
HStem: -20 21G<467 518.892> 296 300<249 467 787 1005> 914 300<249 467 787 1005> 1510 20G<735.108 787>
VStem: 467 320<128 296 596 914 1214 1382>
LayerCount: 2
Fore
SplineSet
477 -20 m 1,0,-1
 467 -20 l 1,1,-1
 467 296 l 1,2,-1
 110 296 l 1,3,-1
 110 306 l 1,4,-1
 249 596 l 1,5,-1
 467 596 l 1,6,-1
 467 914 l 1,7,-1
 110 914 l 1,8,-1
 110 924 l 1,9,-1
 249 1214 l 1,10,-1
 467 1214 l 1,11,-1
 467 1382 l 1,12,-1
 777 1530 l 1,13,-1
 787 1530 l 1,14,-1
 787 1214 l 1,15,-1
 1144 1214 l 1,16,-1
 1144 1204 l 1,17,-1
 1005 914 l 1,18,-1
 787 914 l 1,19,-1
 787 596 l 1,20,-1
 1144 596 l 1,21,-1
 1144 586 l 1,22,-1
 1005 296 l 1,23,-1
 787 296 l 1,24,-1
 787 128 l 1,25,-1
 477 -20 l 1,0,-1
EndSplineSet
Validated: 19457
EndChar

StartChar: bullet
Encoding: 8226 8226 140
Width: 950
GlyphClass: 2
Flags: W
HStem: 387 735<214.717 735.283>
VStem: 110 730<490.603 1018.4>
LayerCount: 2
Fore
SplineSet
392 1122 m 2,0,-1
 558 1122 l 2,1,2
 840 1122 840 1122 840 843 c 2,3,-1
 840 666 l 2,4,5
 840 387 840 387 558 387 c 2,6,-1
 392 387 l 2,7,8
 110 387 110 387 110 666 c 2,9,-1
 110 843 l 2,10,11
 110 1122 110 1122 392 1122 c 2,0,-1
EndSplineSet
Validated: 19457
EndChar

StartChar: ellipsis
Encoding: 8230 8230 141
Width: 1292
GlyphClass: 2
Flags: W
HStem: -20 365<92.1309 326.878 528.131 762.878 964.131 1198.88>
VStem: 30 360<42.5657 282.578> 466 360<42.5657 282.578> 902 360<42.5657 282.578>
CounterMasks: 1 70
LayerCount: 2
Fore
SplineSet
1082 -20 m 0,0,1
 1006 -20 1006 -20 954 34 c 128,-1,2
 902 88 902 88 902 162 c 0,3,4
 902 238 902 238 954 291 c 0,5,6
 1007 345 1007 345 1082 345 c 128,-1,7
 1157 345 1157 345 1209.5 291.5 c 128,-1,8
 1262 238 1262 238 1262 163 c 128,-1,9
 1262 88 1262 88 1209 34 c 128,-1,10
 1156 -20 1156 -20 1082 -20 c 0,0,1
646 -20 m 0,11,12
 570 -20 570 -20 518 34 c 128,-1,13
 466 88 466 88 466 162 c 0,14,15
 466 238 466 238 518 291 c 0,16,17
 571 345 571 345 646 345 c 128,-1,18
 721 345 721 345 773.5 291.5 c 128,-1,19
 826 238 826 238 826 163 c 128,-1,20
 826 88 826 88 773 34 c 128,-1,21
 720 -20 720 -20 646 -20 c 0,11,12
210 -20 m 0,22,23
 134 -20 134 -20 82 34 c 128,-1,24
 30 88 30 88 30 162 c 0,25,26
 30 238 30 238 82 291 c 0,27,28
 135 345 135 345 210 345 c 128,-1,29
 285 345 285 345 337.5 291.5 c 128,-1,30
 390 238 390 238 390 163 c 128,-1,31
 390 88 390 88 337 34 c 128,-1,32
 284 -20 284 -20 210 -20 c 0,22,23
EndSplineSet
Validated: 19457
EndChar

StartChar: perthousand
Encoding: 8240 8240 142
Width: 2750
GlyphClass: 2
Flags: W
HStem: -20 21G<709.053 770.325> 0 206<1306.26 1627.74 2110.26 2431.74> 536 213<1306.26 1627.74 2110.26 2431.74> 761 213<318.264 639.736> 1304 206<318.264 639.736> 1510 20G<1175.66 1236.77>
VStem: 110 207<982.306 1296.39> 641 207<982.306 1296.39> 1098 207<213.609 527.694> 1629 207<213.609 527.694> 1902 207<213.609 527.694> 2433 207<213.609 527.694>
DStem2: 514 93 761 -20 0.423093 0.906086<2.11609 1585.94>
LayerCount: 2
Fore
SplineSet
2376 206 m 2,0,1
 2433 206 2433 206 2433 262 c 2,2,-1
 2433 480 l 2,3,4
 2433 536 2433 536 2376 536 c 2,5,-1
 2166 536 l 2,6,7
 2109 536 2109 536 2109 480 c 2,8,-1
 2109 262 l 2,9,10
 2109 206 2109 206 2166 206 c 2,11,-1
 2376 206 l 2,0,1
2358 0 m 2,12,-1
 2184 0 l 2,13,14
 1902 0 1902 0 1902 279 c 2,15,-1
 1902 470 l 2,16,17
 1902 749 1902 749 2184 749 c 2,18,-1
 2358 749 l 2,19,20
 2640 749 2640 749 2640 470 c 2,21,-1
 2640 279 l 2,22,23
 2640 0 2640 0 2358 0 c 2,12,-1
1572 206 m 2,24,25
 1629 206 1629 206 1629 262 c 2,26,-1
 1629 480 l 2,27,28
 1629 536 1629 536 1572 536 c 2,29,-1
 1362 536 l 2,30,31
 1305 536 1305 536 1305 480 c 2,32,-1
 1305 262 l 2,33,34
 1305 206 1305 206 1362 206 c 2,35,-1
 1572 206 l 2,24,25
1554 0 m 2,36,-1
 1380 0 l 2,37,38
 1098 0 1098 0 1098 279 c 2,39,-1
 1098 470 l 2,40,41
 1098 749 1098 749 1380 749 c 2,42,-1
 1554 749 l 2,43,44
 1836 749 1836 749 1836 470 c 2,45,-1
 1836 279 l 2,46,47
 1836 0 1836 0 1554 0 c 2,36,-1
374 1304 m 2,48,49
 317 1304 317 1304 317 1248 c 2,50,-1
 317 1030 l 2,51,52
 317 974 317 974 374 974 c 2,53,-1
 584 974 l 2,54,55
 641 974 641 974 641 1030 c 2,56,-1
 641 1248 l 2,57,58
 641 1304 641 1304 584 1304 c 2,59,-1
 374 1304 l 2,48,49
392 1510 m 2,60,-1
 566 1510 l 2,61,62
 848 1510 848 1510 848 1231 c 2,63,-1
 848 1040 l 2,64,65
 848 761 848 761 566 761 c 2,66,-1
 392 761 l 2,67,68
 110 761 110 761 110 1040 c 2,69,-1
 110 1231 l 2,70,71
 110 1510 110 1510 392 1510 c 2,60,-1
751 -20 m 1,72,-1
 514 93 l 1,73,-1
 1185 1530 l 1,74,-1
 1195 1530 l 1,75,-1
 1431 1417 l 1,76,-1
 761 -20 l 1,77,-1
 751 -20 l 1,72,-1
EndSplineSet
Validated: 19457
EndChar

StartChar: minute
Encoding: 8242 8242 143
Width: 450
GlyphClass: 2
Flags: W
HStem: 1140 460
VStem: 30 390
LayerCount: 2
Fore
SplineSet
203 1600 m 1,0,-1
 213 1600 l 1,1,-1
 420 1501 l 1,2,-1
 188 1140 l 1,3,-1
 178 1140 l 1,4,-1
 30 1210 l 1,5,-1
 203 1600 l 1,0,-1
EndSplineSet
Validated: 19457
EndChar

StartChar: second
Encoding: 8243 8243 144
Width: 770
GlyphClass: 2
Flags: W
HStem: 1140 460
LayerCount: 2
Fore
SplineSet
523 1600 m 1,0,-1
 533 1600 l 1,1,-1
 740 1501 l 1,2,-1
 508 1140 l 1,3,-1
 498 1140 l 1,4,-1
 350 1210 l 1,5,-1
 523 1600 l 1,0,-1
203 1600 m 1,6,-1
 213 1600 l 1,7,-1
 420 1501 l 1,8,-1
 188 1140 l 1,9,-1
 178 1140 l 1,10,-1
 30 1210 l 1,11,-1
 203 1600 l 1,6,-1
EndSplineSet
Validated: 19457
EndChar

StartChar: guilsinglleft
Encoding: 8249 8249 145
Width: 811
GlyphClass: 2
Flags: W
VStem: 110 312<599 911>
DStem2: 422 755 110 755 0.50792 -0.861404<0 424.298> 110 755 422 755 0.50792 0.861404<158.471 582.769>
LayerCount: 2
Fore
SplineSet
110 755 m 1,0,-1
 406 1257 l 1,1,-1
 416 1257 l 1,2,-1
 651 1145 l 1,3,-1
 422 755 l 1,4,-1
 651 365 l 1,5,-1
 416 253 l 1,6,-1
 406 253 l 1,7,-1
 110 755 l 1,0,-1
EndSplineSet
Validated: 19457
EndChar

StartChar: guilsinglright
Encoding: 8250 8250 146
Width: 811
GlyphClass: 2
Flags: W
VStem: 389 312<599 911>
DStem2: 405 1257 160 1145 0.50792 -0.861404<0 424.298> 160 365 405 253 0.50792 0.861404<27.963 452.261>
LayerCount: 2
Fore
SplineSet
701 755 m 1,0,-1
 405 253 l 1,1,-1
 395 253 l 1,2,-1
 160 365 l 1,3,-1
 389 755 l 1,4,-1
 160 1145 l 1,5,-1
 395 1257 l 1,6,-1
 405 1257 l 1,7,-1
 701 755 l 1,0,-1
EndSplineSet
Validated: 19457
EndChar

StartChar: fraction
Encoding: 8260 8260 147
Width: 937
GlyphClass: 2
Flags: W
HStem: -20 21G<205.053 266.325> 1510 20G<671.661 732.77>
DStem2: 10 93 257 -20 0.423093 0.906086<2.11609 1585.94>
LayerCount: 2
Fore
SplineSet
247 -20 m 1,0,-1
 10 93 l 1,1,-1
 681 1530 l 1,2,-1
 691 1530 l 1,3,-1
 927 1417 l 1,4,-1
 257 -20 l 1,5,-1
 247 -20 l 1,0,-1
EndSplineSet
Validated: 1
EndChar

StartChar: Euro
Encoding: 8364 8364 148
Width: 1440
GlyphClass: 2
Flags: W
HStem: 0 300<565.217 1004.78> 586 140<101 240 560 909> 786 140<101 240 560 909> 1210 300<565.217 1004.78>
VStem: 240 320<312.09 586 726 786 926 1197.91> 1010 320<312.09 410 1122 1202.23>
LayerCount: 2
Fore
SplineSet
650 0 m 2,0,1
 240 0 240 0 240 380 c 2,2,-1
 240 586 l 1,3,-1
 40 586 l 1,4,-1
 40 596 l 1,5,-1
 101 726 l 1,6,-1
 240 726 l 1,7,-1
 240 786 l 1,8,-1
 40 786 l 1,9,-1
 40 796 l 1,10,-1
 101 926 l 1,11,-1
 240 926 l 1,12,-1
 240 1130 l 2,13,14
 240 1510 240 1510 650 1510 c 2,15,-1
 920 1510 l 2,16,17
 1330 1510 1330 1510 1330 1122 c 1,18,-1
 1020 974 l 1,19,-1
 1010 974 l 1,20,-1
 1010 1139 l 2,21,22
 1010 1210 1010 1210 930 1210 c 2,23,-1
 640 1210 l 2,24,25
 560 1210 560 1210 560 1139 c 2,26,-1
 560 926 l 1,27,-1
 970 926 l 1,28,-1
 970 916 l 1,29,-1
 909 786 l 1,30,-1
 560 786 l 1,31,-1
 560 726 l 1,32,-1
 970 726 l 1,33,-1
 970 716 l 1,34,-1
 909 586 l 1,35,-1
 560 586 l 1,36,-1
 560 371 l 2,37,38
 560 300 560 300 640 300 c 2,39,-1
 930 300 l 2,40,41
 1010 300 1010 300 1010 371 c 2,42,-1
 1010 410 l 1,43,-1
 1320 558 l 1,44,-1
 1330 558 l 1,45,-1
 1330 380 l 2,46,47
 1330 0 1330 0 920 0 c 2,48,-1
 650 0 l 2,0,1
EndSplineSet
Validated: 19457
EndChar

StartChar: afii61248
Encoding: 8453 8453 149
Width: 1734
GlyphClass: 2
Flags: W
HStem: -20 21G<593.053 654.325> 0 191<1223.31 1418.69> 604 191<1223.31 1418.69> 715 191<315.309 496> 1319 191<315.309 495.973> 1510 20G<1059.66 1120.77>
VStem: 110 200<912.08 1312.92> 496 200<912.08 950 1272.47 1318.64> 1018 200<197.08 597.92> 1424 200<197.08 597.92>
DStem2: 398 93 645 -20 0.423093 0.906086<2.11609 1585.94>
LayerCount: 2
Fore
SplineSet
1218 206 m 2,0,1
 1218 191 1218 191 1238 191 c 2,2,-1
 1404 191 l 2,3,4
 1424 191 1424 191 1424 206 c 2,5,-1
 1424 589 l 2,6,7
 1424 604 1424 604 1404 604 c 2,8,-1
 1238 604 l 2,9,10
 1218 604 1218 604 1218 589 c 2,11,-1
 1218 206 l 2,0,1
1398 0 m 2,12,-1
 1244 0 l 2,13,14
 1018 0 1018 0 1018 210 c 2,15,-1
 1018 585 l 2,16,17
 1018 795 1018 795 1244 795 c 2,18,-1
 1398 795 l 2,19,20
 1624 795 1624 795 1624 585 c 2,21,-1
 1624 210 l 2,22,23
 1624 0 1624 0 1398 0 c 2,12,-1
336 1510 m 2,24,-1
 470 1510 l 2,25,26
 684 1510 684 1510 699 1277 c 1,27,-1
 506 1201 l 1,28,-1
 496 1201 l 1,29,-1
 496 1304 l 2,30,31
 496 1319 496 1319 476 1319 c 2,32,-1
 330 1319 l 2,33,34
 310 1319 310 1319 310 1304 c 2,35,-1
 310 921 l 2,36,37
 310 906 310 906 330 906 c 2,38,-1
 476 906 l 2,39,40
 496 906 496 906 496 921 c 2,41,-1
 496 950 l 1,42,-1
 686 1034 l 1,43,-1
 696 1034 l 1,44,-1
 696 925 l 2,45,46
 696 715 696 715 470 715 c 2,47,-1
 336 715 l 2,48,49
 110 715 110 715 110 925 c 2,50,-1
 110 1300 l 2,51,52
 110 1510 110 1510 336 1510 c 2,24,-1
635 -20 m 1,53,-1
 398 93 l 1,54,-1
 1069 1530 l 1,55,-1
 1079 1530 l 1,56,-1
 1315 1417 l 1,57,-1
 645 -20 l 1,58,-1
 635 -20 l 1,53,-1
EndSplineSet
Validated: 19457
EndChar

StartChar: afii61289
Encoding: 8467 8467 150
Width: 1247
GlyphClass: 2
Flags: W
HStem: 0 1G<110 486.273 636 745> 1510 20G<804.5 902>
LayerCount: 2
Fore
SplineSet
690 -20 m 0,0,1
 582 -20 582 -20 501 44 c 1,2,-1
 474 0 l 1,3,-1
 110 0 l 1,4,5
 272 162 272 162 375 325 c 1,6,7
 364 420 364 420 364 524 c 0,8,9
 364 686 364 686 411 865 c 0,10,11
 509 1240 509 1240 661 1423 c 0,12,13
 749 1530 749 1530 860 1530 c 0,14,15
 944 1530 944 1530 994 1480 c 0,16,17
 1058 1416 1058 1416 1058 1281 c 0,18,19
 1058 1186 1058 1186 1029 1041 c 0,20,21
 959 688 959 688 676 272 c 1,22,23
 678 216 678 216 699 216 c 128,-1,24
 720 216 720 216 745 260 c 0,25,26
 760 286 760 286 771 319 c 1,27,-1
 1087 319 l 1,28,29
 994 144 994 144 897 62 c 128,-1,30
 800 -20 800 -20 690 -20 c 0,0,1
EndSplineSet
Validated: 19457
EndChar

StartChar: trademark
Encoding: 8482 8482 151
Width: 1791
GlyphClass: 2
Flags: W
HStem: 1339 191<140 273 473 614 875.401 1073.83 1276.24 1476.6>
VStem: 273 200<798 1339> 671 200<798 1332.92> 1076 200<798 1339> 1481 200<798 1332.92>
LayerCount: 2
Fore
SplineSet
896 1530 m 2,0,-1
 1051 1530 l 2,1,2
 1126 1530 1126 1530 1176 1505 c 1,3,4
 1227 1530 1227 1530 1301 1530 c 2,5,-1
 1456 1530 l 2,6,7
 1681 1530 1681 1530 1681 1320 c 2,8,-1
 1681 798 l 1,9,-1
 1491 723 l 1,10,-1
 1481 723 l 1,11,-1
 1481 1323 l 2,12,13
 1481 1339 1481 1339 1461 1339 c 2,14,-1
 1296 1339 l 2,15,16
 1276 1339 1276 1339 1276 1323 c 2,17,-1
 1276 798 l 1,18,-1
 1086 723 l 1,19,-1
 1076 723 l 1,20,-1
 1076 1323 l 2,21,22
 1076 1339 1076 1339 1056 1339 c 2,23,-1
 891 1339 l 2,24,25
 871 1339 871 1339 871 1323 c 2,26,-1
 871 798 l 1,27,-1
 681 723 l 1,28,-1
 671 723 l 1,29,-1
 671 1320 l 2,30,31
 671 1530 671 1530 896 1530 c 2,0,-1
140 1530 m 1,32,-1
 686 1530 l 1,33,-1
 686 1520 l 1,34,-1
 614 1339 l 1,35,-1
 473 1339 l 1,36,-1
 473 798 l 1,37,-1
 283 723 l 1,38,-1
 273 723 l 1,39,-1
 273 1339 l 1,40,-1
 60 1339 l 1,41,-1
 60 1349 l 1,42,-1
 140 1530 l 1,32,-1
EndSplineSet
Validated: 19457
EndChar

StartChar: uni2126
Encoding: 8486 8486 152
Width: 1450
GlyphClass: 2
Flags: W
HStem: 0 534<483.828 688 762 966.172> 0 300<296 452 997 1154> 1210 300<485.217 964.783>
VStem: 160 320<542.505 1197.91> 970 320<542.163 1197.91>
LayerCount: 2
Fore
SplineSet
688 0 m 1,0,-1
 160 0 l 1,1,-1
 160 10 l 1,2,-1
 296 300 l 1,3,-1
 452 300 l 1,4,5
 160 347 160 347 160 671 c 2,6,-1
 160 1130 l 2,7,8
 160 1510 160 1510 570 1510 c 2,9,-1
 880 1510 l 2,10,11
 1290 1510 1290 1510 1290 1130 c 2,12,-1
 1290 671 l 2,13,14
 1290 346 1290 346 997 300 c 1,15,-1
 1290 300 l 1,16,-1
 1290 290 l 1,17,-1
 1154 0 l 1,18,-1
 762 0 l 1,19,-1
 762 534 l 1,20,-1
 890 534 l 2,21,22
 970 534 970 534 970 605 c 2,23,-1
 970 1139 l 2,24,25
 970 1210 970 1210 890 1210 c 2,26,-1
 560 1210 l 2,27,28
 480 1210 480 1210 480 1139 c 2,29,-1
 480 605 l 2,30,31
 480 534 480 534 560 534 c 2,32,-1
 688 534 l 1,33,-1
 688 0 l 1,0,-1
EndSplineSet
Validated: 19457
EndChar

StartChar: estimated
Encoding: 8494 8494 153
Width: 1241
GlyphClass: 2
Flags: W
HStem: -20 183<441.95 798.867> 491 189<393 845> 935 185<439.039 799.176>
VStem: 60 333<316.826 491 680 791.88>
LayerCount: 2
Fore
SplineSet
619 -20 m 0,0,1
 368 -20 368 -20 214 145 c 128,-1,2
 60 310 60 310 60 553 c 0,3,4
 60 802 60 802 216 960 c 0,5,6
 374 1120 374 1120 616 1120 c 0,7,8
 859 1120 859 1120 1007 974 c 0,9,10
 1181 802 1181 802 1181 491 c 1,11,-1
 393 491 l 1,12,-1
 393 239 l 1,13,14
 488 163 488 163 619 163 c 0,15,16
 827 163 827 163 945 351 c 1,17,-1
 1109 255 l 1,18,19
 985 85 985 85 866 32.5 c 128,-1,20
 747 -20 747 -20 619 -20 c 0,0,1
845 680 m 1,21,-1
 845 862 l 1,22,23
 747 935 747 935 617 935 c 0,24,25
 485 935 485 935 393 861 c 1,26,-1
 393 680 l 1,27,-1
 845 680 l 1,21,-1
EndSplineSet
Validated: 19457
EndChar

StartChar: partialdiff
Encoding: 8706 8706 154
Width: 1325
GlyphClass: 2
Flags: W
HStem: -20 273<452.903 666.396> 823 260<577.1 826.76> 1257 273<502.596 826.913>
VStem: 110 305<291.814 617.824> 906 309<1024 1178.17>
LayerCount: 2
Fore
SplineSet
532 -20 m 0,0,1
 262 -20 262 -20 163 171 c 0,2,3
 110 273 110 273 110 416 c 0,4,5
 110 673 110 673 264 878 c 128,-1,6
 418 1083 418 1083 690 1083 c 0,7,8
 809 1083 809 1083 906 1024 c 1,9,10
 903 1115 903 1115 865 1173 c 0,11,12
 808 1257 808 1257 686 1257 c 0,13,14
 531 1257 531 1257 380 1132 c 1,15,-1
 380 1443 l 1,16,17
 526 1530 526 1530 723 1530 c 0,18,19
 1040 1530 1040 1530 1156 1271 c 0,20,21
 1215 1139 1215 1139 1215 950 c 0,22,23
 1215 563 1215 563 1032 272 c 0,24,25
 851 -20 851 -20 532 -20 c 0,0,1
879 699 m 1,26,27
 858 756 858 756 815 788 c 0,28,29
 768 823 768 823 700 823 c 0,30,31
 591 823 591 823 510 706 c 0,32,33
 415 567 415 567 415 431 c 0,34,35
 415 344 415 344 453 295 c 0,36,37
 485 253 485 253 545 253 c 0,38,39
 652 253 652 253 747 376 c 128,-1,40
 842 499 842 499 879 699 c 1,26,27
EndSplineSet
Validated: 19457
EndChar

StartChar: uni2206
Encoding: 8710 8710 155
Width: 1505
GlyphClass: 2
Flags: W
HStem: 0 300<440 1056> 1510 20G<822.846 883.17>
DStem2: 5 0 440 300 0.386112 0.922452<444.694 1255.31> 875 1530 750 1049 0.378162 -0.92574<398.011 1207.11>
LayerCount: 2
Fore
SplineSet
5 0 m 1,0,-1
 591 1400 l 1,1,-1
 865 1530 l 1,2,-1
 875 1530 l 1,3,-1
 1500 0 l 1,4,-1
 5 0 l 1,0,-1
440 300 m 1,5,-1
 1056 300 l 1,6,-1
 750 1049 l 1,7,-1
 440 300 l 1,5,-1
EndSplineSet
Validated: 1
EndChar

StartChar: product
Encoding: 8719 8719 156
Width: 1440
GlyphClass: 2
Flags: W
HStem: -430 21G<160 212.177 960 1012.18> 1210 300<480 960>
VStem: 160 320<-283 1210> 960 320<-283 1210>
LayerCount: 2
Fore
SplineSet
170 -430 m 1,0,-1
 160 -430 l 1,1,-1
 160 1384 l 1,2,-1
 428 1510 l 1,3,-1
 1280 1510 l 1,4,-1
 1280 -283 l 1,5,-1
 970 -430 l 1,6,-1
 960 -430 l 1,7,-1
 960 1210 l 1,8,-1
 480 1210 l 1,9,-1
 480 -283 l 1,10,-1
 170 -430 l 1,0,-1
EndSplineSet
Validated: 19457
EndChar

StartChar: summation
Encoding: 8721 8721 157
Width: 1284
GlyphClass: 2
Flags: W
HStem: -410 300<575 1038> 1210 300<578 1032>
DStem2: 60 -410 575 -110 0.462139 0.886807<504.044 1120.87> 578 1210 74 1427 0.513148 -0.8583<0 537.296>
LayerCount: 2
Fore
SplineSet
60 -410 m 1,0,-1
 578 584 l 1,1,-1
 74 1427 l 1,2,-1
 250 1510 l 1,3,-1
 1168 1510 l 1,4,-1
 1168 1500 l 1,5,-1
 1032 1210 l 1,6,-1
 578 1210 l 1,7,-1
 944 598 l 1,8,-1
 575 -110 l 1,9,-1
 1174 -110 l 1,10,-1
 1174 -120 l 1,11,-1
 1038 -410 l 1,12,-1
 60 -410 l 1,0,-1
EndSplineSet
Validated: 19457
EndChar

StartChar: minus
Encoding: 8722 8722 158
Width: 1240
GlyphClass: 2
Flags: W
HStem: 620 270<235 1005>
LayerCount: 2
Fore
SplineSet
235 890 m 1,0,-1
 1130 890 l 1,1,-1
 1130 880 l 1,2,-1
 1005 620 l 1,3,-1
 110 620 l 1,4,-1
 110 630 l 1,5,-1
 235 890 l 1,0,-1
EndSplineSet
Validated: 19457
EndChar

StartChar: uni2215
Encoding: 8725 8725 159
Width: 937
GlyphClass: 2
Flags: W
HStem: -20 21G<205.053 266.325> 1510 20G<671.661 732.77>
DStem2: 10 93 257 -20 0.423093 0.906086<2.11609 1585.94>
LayerCount: 2
Fore
SplineSet
247 -20 m 1,0,-1
 10 93 l 1,1,-1
 681 1530 l 1,2,-1
 691 1530 l 1,3,-1
 927 1417 l 1,4,-1
 257 -20 l 1,5,-1
 247 -20 l 1,0,-1
EndSplineSet
Validated: 1
EndChar

StartChar: uni2219
Encoding: 8729 8729 160
Width: 420
GlyphClass: 2
Flags: W
HStem: 573 365<92.1309 326.878>
VStem: 30 360<635.566 875.578>
LayerCount: 2
Fore
SplineSet
210 938 m 128,-1,1
 285 938 285 938 337.5 884.5 c 128,-1,2
 390 831 390 831 390 756 c 128,-1,3
 390 681 390 681 337 627 c 128,-1,4
 284 573 284 573 210 573 c 0,5,6
 134 573 134 573 82 627 c 128,-1,7
 30 681 30 681 30 755 c 0,8,9
 30 831 30 831 82 884 c 0,10,0
 135 938 135 938 210 938 c 128,-1,1
EndSplineSet
Validated: 19457
EndChar

StartChar: radical
Encoding: 8730 8730 161
Width: 1120
GlyphClass: 2
Flags: W
HStem: -20 21G<294.255 354.222> 1510 20G<846.886 907.609>
DStem2: 429 480 578 106 0.37651 0.926413<0 1122.6>
LayerCount: 2
Fore
SplineSet
312 -20 m 1,0,-1
 302 -20 l 1,1,-1
 10 734 l 1,2,-1
 273 858 l 1,3,-1
 283 858 l 1,4,-1
 429 480 l 1,5,-1
 855 1530 l 1,6,-1
 865 1530 l 1,7,-1
 1110 1415 l 1,8,-1
 578 106 l 1,9,-1
 312 -20 l 1,0,-1
EndSplineSet
Validated: 19457
EndChar

StartChar: infinity
Encoding: 8734 8734 162
Width: 1473
GlyphClass: 2
Flags: W
HStem: 387 206<318.264 631.638 840.772 1154.74> 909 213<318.264 631.638 843.317 1154.74>
VStem: 110 207<600.609 900.694> 633 207<593.875 908.125> 1156 207<600.609 900.694>
CounterMasks: 1 38
LayerCount: 2
Fore
SplineSet
1099 593 m 2,0,1
 1156 593 1156 593 1156 649 c 2,2,-1
 1156 853 l 2,3,4
 1156 909 1156 909 1099 909 c 2,5,-1
 897 909 l 2,6,7
 840 909 840 909 840 853 c 2,8,-1
 840 649 l 2,9,10
 840 593 840 593 897 593 c 2,11,-1
 1099 593 l 2,0,1
576 593 m 2,12,13
 633 593 633 593 633 649 c 2,14,-1
 633 853 l 2,15,16
 633 909 633 909 576 909 c 2,17,-1
 374 909 l 2,18,19
 317 909 317 909 317 853 c 2,20,-1
 317 649 l 2,21,22
 317 593 317 593 374 593 c 2,23,-1
 576 593 l 2,12,13
392 1122 m 2,24,-1
 558 1122 l 2,25,26
 668 1122 668 1122 736 1079 c 1,27,28
 803 1122 803 1122 915 1122 c 2,29,-1
 1081 1122 l 2,30,31
 1363 1122 1363 1122 1363 843 c 2,32,-1
 1363 666 l 2,33,34
 1363 387 1363 387 1081 387 c 2,35,-1
 915 387 l 2,36,37
 804 387 804 387 736 430 c 1,38,39
 668 387 668 387 558 387 c 2,40,-1
 392 387 l 2,41,42
 110 387 110 387 110 666 c 2,43,-1
 110 843 l 2,44,45
 110 1122 110 1122 392 1122 c 2,24,-1
EndSplineSet
Validated: 19457
EndChar

StartChar: approxequal
Encoding: 8776 8776 163
Width: 1178
GlyphClass: 2
Flags: W
VStem: 110 277<392 475.875 892 975.875> 791 277<536.125 620 1036.12 1120>
LayerCount: 2
Fore
SplineSet
1058 747 m 1,0,-1
 1068 747 l 1,1,2
 1068 265 1068 265 752 265 c 0,3,4
 616 265 616 265 489 416 c 0,5,6
 453 459 453 459 444 468 c 0,7,8
 433 479 433 479 421 479 c 0,9,10
 387 479 387 479 387 392 c 1,11,-1
 120 265 l 1,12,-1
 110 265 l 1,13,14
 110 747 110 747 426 747 c 0,15,16
 562 747 562 747 689 596 c 0,17,18
 725 553 725 553 734 544 c 0,19,20
 745 533 745 533 757 533 c 0,21,22
 791 533 791 533 791 620 c 1,23,-1
 1058 747 l 1,0,-1
1058 1247 m 1,24,-1
 1068 1247 l 1,25,26
 1068 765 1068 765 752 765 c 0,27,28
 616 765 616 765 489 916 c 0,29,30
 453 959 453 959 444 968 c 0,31,32
 433 979 433 979 421 979 c 0,33,34
 387 979 387 979 387 892 c 1,35,-1
 120 765 l 1,36,-1
 110 765 l 1,37,38
 110 1247 110 1247 426 1247 c 0,39,40
 562 1247 562 1247 689 1096 c 0,41,42
 725 1053 725 1053 734 1044 c 0,43,44
 745 1033 745 1033 757 1033 c 0,45,46
 791 1033 791 1033 791 1120 c 1,47,-1
 1058 1247 l 1,24,-1
EndSplineSet
Validated: 19457
EndChar

StartChar: notequal
Encoding: 8800 8800 164
Width: 1240
GlyphClass: 2
Flags: W
HStem: 390 270<235 365 660 1005> 850 270<235 579 875 1005>
DStem2: 262 170 430 166 0.422674 0.906282<67.3842 242.917 612.302 750.259 1120.07 1296.51>
LayerCount: 2
Fore
SplineSet
235 1120 m 1,0,-1
 705 1120 l 1,1,-1
 810 1345 l 1,2,-1
 969 1345 l 1,3,-1
 978 1341 l 1,4,-1
 875 1120 l 1,5,-1
 1130 1120 l 1,6,-1
 1130 1110 l 1,7,-1
 1005 850 l 1,8,-1
 749 850 l 1,9,-1
 660 660 l 1,10,-1
 1130 660 l 1,11,-1
 1130 650 l 1,12,-1
 1005 390 l 1,13,-1
 534 390 l 1,14,-1
 430 166 l 1,15,-1
 271 166 l 1,16,-1
 262 170 l 1,17,-1
 365 390 l 1,18,-1
 110 390 l 1,19,-1
 110 400 l 1,20,-1
 235 660 l 1,21,-1
 491 660 l 1,22,-1
 579 850 l 1,23,-1
 110 850 l 1,24,-1
 110 860 l 1,25,-1
 235 1120 l 1,0,-1
EndSplineSet
Validated: 19457
EndChar

StartChar: lessequal
Encoding: 8804 8804 165
Width: 1355
GlyphClass: 2
Flags: W
HStem: 154 270<235 1070>
DStem2: 586 919 110 806 0.942398 -0.334493<0 620.627> 227 1059 586 919 0.937801 0.347172<288.067 915.972>
LayerCount: 2
Fore
SplineSet
235 424 m 1,0,-1
 1195 424 l 1,1,-1
 1195 414 l 1,2,-1
 1070 154 l 1,3,-1
 110 154 l 1,4,-1
 110 164 l 1,5,-1
 235 424 l 1,0,-1
110 806 m 1,6,-1
 110 816 l 1,7,-1
 227 1059 l 1,8,-1
 1086 1377 l 1,9,-1
 1195 1151 l 1,10,-1
 1195 1141 l 1,11,-1
 586 919 l 1,12,-1
 1195 707 l 1,13,-1
 1195 697 l 1,14,-1
 1082 461 l 1,15,-1
 110 806 l 1,6,-1
EndSplineSet
Validated: 19457
EndChar

StartChar: greaterequal
Encoding: 8805 8805 166
Width: 1355
GlyphClass: 2
Flags: W
HStem: 154 270<285 1120>
DStem2: 273 1377 160 1131 0.942398 -0.334493<0 620.627> 160 697 269 461 0.937801 0.347172<20.2877 648.193>
LayerCount: 2
Fore
SplineSet
285 424 m 1,0,-1
 1245 424 l 1,1,-1
 1245 414 l 1,2,-1
 1120 154 l 1,3,-1
 160 154 l 1,4,-1
 160 164 l 1,5,-1
 285 424 l 1,0,-1
1245 1032 m 1,6,-1
 1245 1022 l 1,7,-1
 1128 779 l 1,8,-1
 269 461 l 1,9,-1
 160 687 l 1,10,-1
 160 697 l 1,11,-1
 769 919 l 1,12,-1
 160 1131 l 1,13,-1
 160 1141 l 1,14,-1
 273 1377 l 1,15,-1
 1245 1032 l 1,6,-1
EndSplineSet
Validated: 19457
EndChar

StartChar: lozenge
Encoding: 9674 9674 167
Width: 1178
GlyphClass: 2
Flags: W
HStem: -20 21G<575.042 602.903> 1510 20G<575.641 602.409>
DStem2: 60 738 365 756 0.555427 0.831565<184.373 560.738> 365 756 60 738 0.5723 -0.820044<0 422.804> 589 1530 574 1069 0.556885 -0.83059<374.549 800.569> 608 410 589 -20 0.57078 0.821103<0 369.659>
LayerCount: 2
Fore
SplineSet
608 410 m 1,0,-1
 814 717 l 1,1,-1
 574 1069 l 1,2,-1
 365 756 l 1,3,-1
 608 410 l 1,0,-1
589 -20 m 1,4,-1
 60 738 l 1,5,-1
 589 1530 l 1,6,-1
 1118 741 l 1,7,-1
 589 -20 l 1,4,-1
EndSplineSet
Validated: 19457
EndChar

StartChar: Oslash
Encoding: 216 216 168
Width: 1370
Flags: W
HStem: 0 300<539 924.783> 1210 300<445.217 831>
VStem: 120 320<372.382 1197.91> 930 320<312.09 1137.62>
DStem2: 289 48 380 -40 0.422823 0.906212<-41.2698 4.18282 356.553 1259.71 1612.08 1657.53>
LayerCount: 2
Fore
SplineSet
840 0 m 2,0,-1
 530 0 l 2,1,2
 461 0 461 0 404 11 c 1,3,-1
 380 -40 l 1,4,-1
 259 -40 l 1,5,-1
 250 -36 l 1,6,-1
 289 48 l 1,7,8
 120 135 120 135 120 380 c 2,9,-1
 120 1130 l 2,10,11
 120 1510 120 1510 530 1510 c 2,12,-1
 840 1510 l 2,13,14
 909 1510 909 1510 966 1499 c 1,15,-1
 990 1550 l 1,16,-1
 1111 1550 l 1,17,-1
 1120 1546 l 1,18,-1
 1081 1462 l 1,19,20
 1250 1375 1250 1375 1250 1130 c 2,21,-1
 1250 380 l 2,22,23
 1250 0 1250 0 840 0 c 2,0,-1
440 371 m 1,24,-1
 831 1210 l 1,25,-1
 520 1210 l 2,26,27
 440 1210 440 1210 440 1139 c 2,28,-1
 440 371 l 1,24,-1
930 1139 m 1,29,-1
 539 300 l 1,30,-1
 850 300 l 2,31,32
 930 300 930 300 930 371 c 2,33,-1
 930 1139 l 1,29,-1
EndSplineSet
Validated: 19457
EndChar

StartChar: oslash
Encoding: 248 248 169
Width: 1190
Flags: W
HStem: 0 280<535 761.128> 820 280<428.872 655>
VStem: 120 300<317 811.888> 770 300<288.112 783>
DStem2: 285 28 386 -40 0.423012 0.906124<-18.8922 0 334.096 874.165 1208.26 1227.15>
LayerCount: 2
Fore
SplineSet
730 0 m 2,0,-1
 460 0 l 2,1,2
 432 0 432 0 406 2 c 1,3,-1
 386 -40 l 1,4,-1
 265 -40 l 1,5,-1
 255 -36 l 1,6,-1
 285 28 l 1,7,8
 120 93 120 93 120 307 c 2,9,-1
 120 793 l 2,10,11
 120 1100 120 1100 460 1100 c 2,12,-1
 730 1100 l 2,13,14
 758 1100 758 1100 784 1098 c 1,15,-1
 804 1140 l 1,16,-1
 925 1140 l 1,17,-1
 935 1136 l 1,18,-1
 905 1072 l 1,19,20
 1070 1007 1070 1007 1070 793 c 2,21,-1
 1070 307 l 2,22,23
 1070 0 1070 0 730 0 c 2,0,-1
730 280 m 2,24,25
 770 280 770 280 770 315 c 2,26,-1
 770 783 l 1,27,-1
 535 280 l 1,28,-1
 730 280 l 2,24,25
420 317 m 1,29,-1
 655 820 l 1,30,-1
 460 820 l 2,31,32
 420 820 420 820 420 785 c 2,33,-1
 420 317 l 1,29,-1
EndSplineSet
Validated: 19457
EndChar

StartChar: multiply
Encoding: 215 215 170
Width: 1232
Flags: W
DStem2: 439 1123 160 1020 0.707107 -0.707107<0 250.316 520.431 770.746> 160 490 439 387 0.707107 0.707107<124.451 374.767 644.881 895.197>
LayerCount: 2
Fore
SplineSet
1065 1027 m 1,0,-1
 1072 1020 l 1,1,-1
 807 755 l 1,2,-1
 1072 490 l 1,3,-1
 1065 483 l 1,4,-1
 793 387 l 1,5,-1
 616 564 l 1,6,-1
 439 387 l 1,7,-1
 167 483 l 1,8,-1
 160 490 l 1,9,-1
 425 755 l 1,10,-1
 160 1020 l 1,11,-1
 167 1027 l 1,12,-1
 439 1123 l 1,13,-1
 616 946 l 1,14,-1
 793 1123 l 1,15,-1
 1065 1027 l 1,0,-1
EndSplineSet
Validated: 19457
EndChar

StartChar: divide
Encoding: 247 247 171
Width: 1240
Flags: W
HStem: 155 365<502.131 736.878> 620 270<235 1005> 990 365<502.131 736.878>
VStem: 440 360<217.566 457.578 1052.57 1292.58>
CounterMasks: 1 e0
LayerCount: 2
Fore
SplineSet
235 890 m 1,0,-1
 1130 890 l 1,1,-1
 1130 880 l 1,2,-1
 1005 620 l 1,3,-1
 110 620 l 1,4,-1
 110 630 l 1,5,-1
 235 890 l 1,0,-1
620 1355 m 128,-1,7
 695 1355 695 1355 747.5 1301.5 c 128,-1,8
 800 1248 800 1248 800 1173 c 128,-1,9
 800 1098 800 1098 747 1044 c 128,-1,10
 694 990 694 990 620 990 c 0,11,12
 544 990 544 990 492 1044 c 128,-1,13
 440 1098 440 1098 440 1172 c 0,14,15
 440 1248 440 1248 492 1301 c 0,16,6
 545 1355 545 1355 620 1355 c 128,-1,7
620 155 m 0,17,18
 544 155 544 155 492 209 c 128,-1,19
 440 263 440 263 440 337 c 0,20,21
 440 413 440 413 492 466 c 0,22,23
 545 520 545 520 620 520 c 128,-1,24
 695 520 695 520 747.5 466.5 c 128,-1,25
 800 413 800 413 800 338 c 128,-1,26
 800 263 800 263 747 209 c 128,-1,27
 694 155 694 155 620 155 c 0,17,18
EndSplineSet
Validated: 19457
EndChar

StartChar: uni1E02
Encoding: 7682 7682 172
Width: 1300
Flags: W
HStem: 0 300<480 924.783> 676 285<480 857.188> 1225 285<480 857.188> 1590 364<533.131 767.338>
VStem: 160 320<300 676 961 1225> 471 360<1654.3 1891.73> 860 300<965.932 1219.35> 930 320<312.09 671.133>
LayerCount: 2
Fore
SplineSet
480 300 m 1,0,-1
 850 300 l 2,1,2
 930 300 930 300 930 367 c 2,3,-1
 930 609 l 2,4,5
 930 676 930 676 850 676 c 2,6,-1
 480 676 l 1,7,-1
 480 300 l 1,0,-1
160 0 m 1,8,-1
 160 1384 l 1,9,-1
 428 1510 l 1,10,-1
 750 1510 l 2,11,12
 1160 1510 1160 1510 1160 1168 c 2,13,-1
 1160 1072 l 2,14,15
 1160 966 1160 966 1110 893 c 1,16,17
 1250 802 1250 802 1250 590 c 2,18,-1
 1250 380 l 2,19,20
 1250 0 1250 0 840 0 c 2,21,-1
 160 0 l 1,8,-1
480 961 m 1,22,-1
 780 961 l 2,23,24
 860 961 860 961 860 1027 c 2,25,-1
 860 1159 l 2,26,27
 860 1225 860 1225 780 1225 c 2,28,-1
 480 1225 l 1,29,-1
 480 961 l 1,22,-1
651 1954 m 0,30,31
 727 1954 727 1954 779 1901 c 128,-1,32
 831 1848 831 1848 831 1773 c 0,33,34
 831 1699 831 1699 778 1644 c 0,35,36
 726 1590 726 1590 651 1590 c 0,37,38
 574 1590 574 1590 522.5 1644 c 128,-1,39
 471 1698 471 1698 471 1772 c 0,40,41
 471 1848 471 1848 523 1900 c 0,42,43
 576 1954 576 1954 651 1954 c 0,30,31
EndSplineSet
Validated: 19457
EndChar

StartChar: uni1E03
Encoding: 7683 7683 173
Width: 1210
Flags: W
HStem: 0 280<448.872 781.128> 820 280<440.625 781.128> 1180 364<574.131 808.338> 1510 20G<387.971 440>
VStem: 140 300<288.112 820 1094 1392> 512 360<1244.3 1481.73> 790 300<288.112 811.888>
LayerCount: 2
Fore
SplineSet
480 0 m 2,0,1
 140 0 140 0 140 307 c 2,2,-1
 140 1392 l 1,3,-1
 430 1530 l 1,4,-1
 440 1530 l 1,5,-1
 440 1094 l 1,6,7
 460 1100 460 1100 480 1100 c 2,8,-1
 750 1100 l 2,9,10
 1090 1100 1090 1100 1090 793 c 2,11,-1
 1090 307 l 2,12,13
 1090 0 1090 0 750 0 c 2,14,-1
 480 0 l 2,0,1
480 280 m 2,15,16
 750 280 l 2,17,18
 790 280 790 280 790 315 c 2,19,-1
 790 785 l 2,20,21
 790 820 790 820 750 820 c 2,22,-1
 480 820 l 2,23,24
 440 820 440 820 440 785 c 2,25,-1
 440 315 l 2,26,27
 440 280 440 280 480 280 c 2,15,16
692 1544 m 0,28,29
 768 1544 768 1544 820 1491 c 128,-1,30
 872 1438 872 1438 872 1363 c 0,31,32
 872 1289 872 1289 819 1234 c 0,33,34
 767 1180 767 1180 692 1180 c 0,35,36
 615 1180 615 1180 563.5 1234 c 128,-1,37
 512 1288 512 1288 512 1362 c 0,38,39
 512 1438 512 1438 564 1490 c 0,40,41
 617 1544 617 1544 692 1544 c 0,28,29
EndSplineSet
Validated: 19457
EndChar

StartChar: uni1E0A
Encoding: 7690 7690 174
Width: 1390
Flags: W
HStem: 0 300<480 944.783> 1210 300<480 944.783> 1590 364<568.131 802.338>
VStem: 160 320<300 1210> 506 360<1654.3 1891.73> 950 320<312.09 1197.91>
LayerCount: 2
Fore
SplineSet
480 300 m 1,0,-1
 870 300 l 2,1,2
 950 300 950 300 950 371 c 2,3,-1
 950 1139 l 2,4,5
 950 1210 950 1210 870 1210 c 2,6,-1
 480 1210 l 1,7,-1
 480 300 l 1,0,-1
160 0 m 1,8,-1
 160 1383 l 1,9,-1
 428 1510 l 1,10,-1
 860 1510 l 2,11,12
 1270 1510 1270 1510 1270 1130 c 2,13,-1
 1270 380 l 2,14,15
 1270 0 1270 0 860 0 c 2,16,-1
 160 0 l 1,8,-1
686 1954 m 0,17,18
 762 1954 762 1954 814 1901 c 128,-1,19
 866 1848 866 1848 866 1773 c 0,20,21
 866 1699 866 1699 813 1644 c 0,22,23
 761 1590 761 1590 686 1590 c 0,24,25
 609 1590 609 1590 557.5 1644 c 128,-1,26
 506 1698 506 1698 506 1772 c 0,27,28
 506 1848 506 1848 558 1900 c 0,29,30
 611 1954 611 1954 686 1954 c 0,17,18
EndSplineSet
Validated: 19457
EndChar

StartChar: uni1E0B
Encoding: 7691 7691 175
Width: 1210
Flags: W
HStem: 0 280<428.872 761.128> 820 280<428.872 769.375> 1180 364<390.131 624.338>
VStem: 120 300<288.112 811.888> 328 360<1244.3 1481.73> 770 300<288.112 820 1094 1392>
LayerCount: 2
Fore
SplineSet
460 0 m 2,0,1
 120 0 120 0 120 307 c 2,2,-1
 120 793 l 2,3,4
 120 1100 120 1100 460 1100 c 2,5,-1
 730 1100 l 2,6,7
 750 1100 750 1100 770 1094 c 1,8,-1
 770 1392 l 1,9,-1
 1060 1530 l 1,10,-1
 1070 1530 l 1,11,-1
 1070 307 l 2,12,13
 1070 0 1070 0 730 0 c 2,14,-1
 460 0 l 2,0,1
730 280 m 2,15,16
 770 280 770 280 770 315 c 2,17,-1
 770 785 l 2,18,19
 770 820 770 820 730 820 c 2,20,-1
 460 820 l 2,21,22
 420 820 420 820 420 785 c 2,23,-1
 420 315 l 2,24,25
 420 280 420 280 460 280 c 2,26,-1
 730 280 l 2,15,16
508 1544 m 0,27,28
 584 1544 584 1544 636 1491 c 128,-1,29
 688 1438 688 1438 688 1363 c 0,30,31
 688 1289 688 1289 635 1234 c 0,32,33
 583 1180 583 1180 508 1180 c 0,34,35
 431 1180 431 1180 379.5 1234 c 128,-1,36
 328 1288 328 1288 328 1362 c 0,37,38
 328 1438 328 1438 380 1490 c 0,39,40
 433 1544 433 1544 508 1544 c 0,27,28
EndSplineSet
Validated: 19457
EndChar

StartChar: uni1E1E
Encoding: 7710 7710 176
Width: 1050
Flags: W
HStem: -20 21G<160 212.177> 605 300<480 904> 1210 300<480 904> 1590 364<491.131 725.338>
VStem: 160 320<127 605 905 1210> 429 360<1654.3 1891.73>
LayerCount: 2
Fore
SplineSet
609 1954 m 0,0,1
 685 1954 685 1954 737 1901 c 128,-1,2
 789 1848 789 1848 789 1773 c 0,3,4
 789 1699 789 1699 736 1644 c 0,5,6
 684 1590 684 1590 609 1590 c 0,7,8
 532 1590 532 1590 480.5 1644 c 128,-1,9
 429 1698 429 1698 429 1772 c 0,10,11
 429 1848 429 1848 481 1900 c 0,12,13
 534 1954 534 1954 609 1954 c 0,0,1
170 -20 m 1,14,-1
 160 -20 l 1,15,-1
 160 1384 l 1,16,-1
 428 1510 l 1,17,-1
 1040 1510 l 1,18,-1
 1040 1500 l 1,19,-1
 904 1210 l 1,20,-1
 480 1210 l 1,21,-1
 480 905 l 1,22,-1
 1040 905 l 1,23,-1
 1040 895 l 1,24,-1
 904 605 l 1,25,-1
 480 605 l 1,26,-1
 480 127 l 1,27,-1
 170 -20 l 1,14,-1
EndSplineSet
Validated: 19457
EndChar

StartChar: uni1E1F
Encoding: 7711 7711 177
Width: 860
Flags: W
HStem: -20 21G<140 192.029> 662 280<440 682> 1230 280<448.872 721> 1590 364<348.131 582.338>
VStem: 140 300<118 662 942 1221.89> 286 360<1654.3 1891.73>
LayerCount: 2
Fore
SplineSet
150 -20 m 1,0,-1
 140 -20 l 1,1,-1
 140 1203 l 2,2,3
 140 1510 140 1510 480 1510 c 2,4,-1
 850 1510 l 1,5,-1
 850 1500 l 1,6,-1
 721 1230 l 1,7,-1
 480 1230 l 2,8,9
 440 1230 440 1230 440 1195 c 2,10,-1
 440 942 l 1,11,-1
 811 942 l 1,12,-1
 811 932 l 1,13,-1
 682 662 l 1,14,-1
 440 662 l 1,15,-1
 440 118 l 1,16,-1
 150 -20 l 1,0,-1
466 1954 m 0,17,18
 542 1954 542 1954 594 1901 c 128,-1,19
 646 1848 646 1848 646 1773 c 0,20,21
 646 1699 646 1699 593 1644 c 0,22,23
 541 1590 541 1590 466 1590 c 0,24,25
 389 1590 389 1590 337.5 1644 c 128,-1,26
 286 1698 286 1698 286 1772 c 0,27,28
 286 1848 286 1848 338 1900 c 0,29,30
 391 1954 391 1954 466 1954 c 0,17,18
EndSplineSet
Validated: 19457
EndChar

StartChar: uni1E40
Encoding: 7744 7744 178
Width: 2220
Flags: W
HStem: -20 21G<140 192.177 950 1002.18 1760 1812.18> 1210 300<465.217 946.172 1273.83 1754.78> 1590 364<986.131 1220.34>
VStem: 140 320<127 1197.91> 924 360<1654.3 1891.73> 950 320<127 1205.56> 1760 320<127 1197.91>
LayerCount: 2
Fore
SplineSet
150 -20 m 1,0,-1
 140 -20 l 1,1,-1
 140 1130 l 2,2,3
 140 1510 140 1510 550 1510 c 2,4,-1
 860 1510 l 2,5,6
 1014 1510 1014 1510 1110 1456 c 1,7,8
 1206 1510 1206 1510 1360 1510 c 2,9,-1
 1670 1510 l 2,10,11
 2080 1510 2080 1510 2080 1130 c 2,12,-1
 2080 127 l 1,13,-1
 1770 -20 l 1,14,-1
 1760 -20 l 1,15,-1
 1760 1139 l 2,16,17
 1760 1210 1760 1210 1680 1210 c 2,18,-1
 1350 1210 l 2,19,20
 1270 1210 1270 1210 1270 1139 c 2,21,-1
 1270 127 l 1,22,-1
 960 -20 l 1,23,-1
 950 -20 l 1,24,-1
 950 1139 l 2,25,26
 950 1210 950 1210 870 1210 c 2,27,-1
 540 1210 l 2,28,29
 460 1210 460 1210 460 1139 c 2,30,-1
 460 127 l 1,31,-1
 150 -20 l 1,0,-1
1104 1954 m 0,32,33
 1180 1954 1180 1954 1232 1901 c 128,-1,34
 1284 1848 1284 1848 1284 1773 c 0,35,36
 1284 1699 1284 1699 1231 1644 c 0,37,38
 1179 1590 1179 1590 1104 1590 c 0,39,40
 1027 1590 1027 1590 975.5 1644 c 128,-1,41
 924 1698 924 1698 924 1772 c 0,42,43
 924 1848 924 1848 976 1900 c 0,44,45
 1029 1954 1029 1954 1104 1954 c 0,32,33
EndSplineSet
Validated: 19457
EndChar

StartChar: uni1E41
Encoding: 7745 7745 179
Width: 1880
Flags: W
HStem: -20 21G<140 192.029 790 842.029 1440 1492.03> 820 280<448.872 788.065 1091.94 1431.13> 1180 364<814.131 1048.34>
VStem: 140 300<118 811.888> 752 360<1244.3 1481.73> 790 300<118 820> 1440 300<118 811.888>
LayerCount: 2
Fore
SplineSet
150 -20 m 1,0,-1
 140 -20 l 1,1,-1
 140 793 l 2,2,3
 140 1100 140 1100 480 1100 c 2,4,-1
 750 1100 l 2,5,6
 864 1100 864 1100 940 1065 c 1,7,8
 1016 1100 1016 1100 1130 1100 c 2,9,-1
 1400 1100 l 2,10,11
 1740 1100 1740 1100 1740 793 c 2,12,-1
 1740 118 l 1,13,-1
 1450 -20 l 1,14,-1
 1440 -20 l 1,15,-1
 1440 785 l 2,16,17
 1440 820 1440 820 1400 820 c 2,18,-1
 1130 820 l 2,19,20
 1090 820 1090 820 1090 785 c 2,21,-1
 1090 118 l 1,22,-1
 800 -20 l 1,23,-1
 790 -20 l 1,24,-1
 790 785 l 2,25,26
 790 820 790 820 750 820 c 2,27,-1
 480 820 l 2,28,29
 440 820 440 820 440 785 c 2,30,-1
 440 118 l 1,31,-1
 150 -20 l 1,0,-1
932 1544 m 0,32,33
 1008 1544 1008 1544 1060 1491 c 128,-1,34
 1112 1438 1112 1438 1112 1363 c 0,35,36
 1112 1289 1112 1289 1059 1234 c 0,37,38
 1007 1180 1007 1180 932 1180 c 0,39,40
 855 1180 855 1180 803.5 1234 c 128,-1,41
 752 1288 752 1288 752 1362 c 0,42,43
 752 1438 752 1438 804 1490 c 0,44,45
 857 1544 857 1544 932 1544 c 0,32,33
EndSplineSet
Validated: 19457
EndChar

StartChar: uni1E56
Encoding: 7766 7766 180
Width: 1250
Flags: W
HStem: -20 21G<160 212.177> 440 300<480 884.783> 1210 300<480 884.783> 1590 364<524.131 758.338>
VStem: 160 320<127 440 740 1210> 462 360<1654.3 1891.73> 890 320<747.767 1202.23>
LayerCount: 2
Fore
SplineSet
170 -20 m 1,0,-1
 160 -20 l 1,1,-1
 160 1383 l 1,2,-1
 428 1510 l 1,3,-1
 800 1510 l 2,4,5
 1210 1510 1210 1510 1210 1122 c 2,6,-1
 1210 828 l 2,7,8
 1210 440 1210 440 800 440 c 2,9,-1
 480 440 l 1,10,-1
 480 127 l 1,11,-1
 170 -20 l 1,0,-1
480 740 m 1,12,-1
 810 740 l 2,13,14
 890 740 890 740 890 811 c 2,15,-1
 890 1139 l 2,16,17
 890 1210 890 1210 810 1210 c 2,18,-1
 480 1210 l 1,19,-1
 480 740 l 1,12,-1
642 1954 m 0,20,21
 718 1954 718 1954 770 1901 c 128,-1,22
 822 1848 822 1848 822 1773 c 0,23,24
 822 1699 822 1699 769 1644 c 0,25,26
 717 1590 717 1590 642 1590 c 0,27,28
 565 1590 565 1590 513.5 1644 c 128,-1,29
 462 1698 462 1698 462 1772 c 0,30,31
 462 1848 462 1848 514 1900 c 0,32,33
 567 1954 567 1954 642 1954 c 0,20,21
EndSplineSet
Validated: 19457
EndChar

StartChar: uni1E57
Encoding: 7767 7767 181
Width: 1210
Flags: W
HStem: -430 21G<140 192.029> 0 280<440.625 781.128> 820 280<448.872 781.128> 1180 364<495.131 729.338>
VStem: 140 300<-292 6 280 811.888> 433 360<1244.3 1481.73> 790 300<288.112 811.888>
LayerCount: 2
Fore
SplineSet
750 0 m 2,0,-1
 480 0 l 2,1,2
 460 0 460 0 440 6 c 1,3,-1
 440 -292 l 1,4,-1
 150 -430 l 1,5,-1
 140 -430 l 1,6,-1
 140 793 l 2,7,8
 140 1100 140 1100 480 1100 c 2,9,-1
 750 1100 l 2,10,11
 1090 1100 1090 1100 1090 793 c 2,12,-1
 1090 307 l 2,13,14
 1090 0 1090 0 750 0 c 2,0,-1
480 820 m 2,15,16
 440 820 440 820 440 785 c 2,17,-1
 440 315 l 2,18,19
 440 280 440 280 480 280 c 2,20,-1
 750 280 l 2,21,22
 790 280 790 280 790 315 c 2,23,-1
 790 785 l 2,24,25
 790 820 790 820 750 820 c 2,26,-1
 480 820 l 2,15,16
613 1544 m 0,27,28
 689 1544 689 1544 741 1491 c 128,-1,29
 793 1438 793 1438 793 1363 c 0,30,31
 793 1289 793 1289 740 1234 c 0,32,33
 688 1180 688 1180 613 1180 c 0,34,35
 536 1180 536 1180 484.5 1234 c 128,-1,36
 433 1288 433 1288 433 1362 c 0,37,38
 433 1438 433 1438 485 1490 c 0,39,40
 538 1544 538 1544 613 1544 c 0,27,28
EndSplineSet
Validated: 19457
EndChar

StartChar: uni1E6A
Encoding: 7786 7786 182
Width: 1190
Flags: W
HStem: -20 21G<435 487.466> 1210 300<146 435 755 1044> 1590 364<471.131 705.338>
VStem: 409 360<1654.3 1891.73> 435 320<126 1210>
LayerCount: 2
Fore
SplineSet
589 1954 m 0,0,1
 665 1954 665 1954 717 1901 c 128,-1,2
 769 1848 769 1848 769 1773 c 0,3,4
 769 1699 769 1699 716 1644 c 0,5,6
 664 1590 664 1590 589 1590 c 0,7,8
 512 1590 512 1590 460.5 1644 c 128,-1,9
 409 1698 409 1698 409 1772 c 0,10,11
 409 1848 409 1848 461 1900 c 0,12,13
 514 1954 514 1954 589 1954 c 0,0,1
445 -20 m 1,14,-1
 435 -20 l 1,15,-1
 435 1210 l 1,16,-1
 10 1210 l 1,17,-1
 10 1220 l 1,18,-1
 146 1510 l 1,19,-1
 1180 1510 l 1,20,-1
 1180 1500 l 1,21,-1
 1044 1210 l 1,22,-1
 755 1210 l 1,23,-1
 755 126 l 1,24,-1
 445 -20 l 1,14,-1
EndSplineSet
Validated: 1
EndChar

StartChar: uni1E6B
Encoding: 7787 7787 183
Width: 890
Flags: W
HStem: -20 21G<300 352.105> 820 280<139 300 590 751> 1510 20G<537.895 590> 1590 364<327.131 561.338>
VStem: 265 360<1654.3 1891.73> 300 290<113 820 1100 1397>
LayerCount: 2
Fore
SplineSet
310 -20 m 1,0,-1
 300 -20 l 1,1,-1
 300 820 l 1,2,-1
 10 820 l 1,3,-1
 10 830 l 1,4,-1
 139 1100 l 1,5,-1
 300 1100 l 1,6,-1
 300 1397 l 1,7,-1
 580 1530 l 1,8,-1
 590 1530 l 1,9,-1
 590 1100 l 1,10,-1
 880 1100 l 1,11,-1
 880 1090 l 1,12,-1
 751 820 l 1,13,-1
 590 820 l 1,14,-1
 590 113 l 1,15,-1
 310 -20 l 1,0,-1
445 1954 m 0,16,17
 521 1954 521 1954 573 1901 c 128,-1,18
 625 1848 625 1848 625 1773 c 0,19,20
 625 1699 625 1699 572 1644 c 0,21,22
 520 1590 520 1590 445 1590 c 0,23,24
 368 1590 368 1590 316.5 1644 c 128,-1,25
 265 1698 265 1698 265 1772 c 0,26,27
 265 1848 265 1848 317 1900 c 0,28,29
 370 1954 370 1954 445 1954 c 0,16,17
EndSplineSet
Validated: 1
EndChar

StartChar: uni1E60
Encoding: 7776 7776 184
Width: 1160
Flags: W
HStem: 0 300<355.217 784.783> 683 301<439.406 784.783> 1220 290<439.406 710.242> 1590 364<461.131 695.338>
VStem: 123 310<991.872 1211.17> 399 360<1654.3 1891.73> 790 320<314.554 669.446>
LayerCount: 2
Fore
SplineSet
700 0 m 2,0,1
 440 0 l 2,2,3
 30 0 30 0 30 378 c 1,4,-1
 340 526 l 1,5,-1
 350 526 l 1,6,-1
 350 367 l 2,7,8
 350 300 350 300 430 300 c 2,9,-1
 710 300 l 2,10,11
 790 300 790 300 790 367 c 2,12,-1
 790 616 l 2,13,14
 790 683 790 683 710 683 c 2,15,-1
 483 683 l 2,16,17
 123 683 123 683 123 1023 c 2,18,-1
 123 1170 l 2,19,20
 123 1510 123 1510 483 1510 c 2,21,-1
 667 1510 l 2,22,23
 1024 1510 1024 1510 1027 1179 c 1,24,-1
 727 1036 l 1,25,-1
 717 1036 l 1,26,-1
 717 1158 l 2,27,28
 717 1220 717 1220 637 1220 c 2,29,-1
 513 1220 l 2,30,31
 433 1220 433 1220 433 1154 c 2,32,-1
 433 1050 l 2,33,34
 433 984 433 984 513 984 c 2,35,-1
 700 984 l 2,36,37
 1110 984 1110 984 1110 601 c 2,38,-1
 1110 383 l 2,39,40
 1110 0 1110 0 700 0 c 2,0,1
579 1954 m 0,41,42
 655 1954 655 1954 707 1901 c 128,-1,43
 759 1848 759 1848 759 1773 c 0,44,45
 759 1699 759 1699 706 1644 c 0,46,47
 654 1590 654 1590 579 1590 c 0,48,49
 502 1590 502 1590 450.5 1644 c 128,-1,50
 399 1698 399 1698 399 1772 c 0,51,52
 399 1848 399 1848 451 1900 c 0,53,54
 504 1954 504 1954 579 1954 c 0,41,42
EndSplineSet
Validated: 19457
EndChar

StartChar: uni1E61
Encoding: 7777 7777 185
Width: 950
Flags: W
HStem: 0 255<328.872 611.172> 443 251<360.534 617.65> 850 250<360.534 580.955> 1180 364<353.131 587.338>
VStem: 88 270<696.125 847.452> 291 360<1244.3 1481.73> 620 290<255.421 438.734>
LayerCount: 2
Fore
SplineSet
360 0 m 2,0,1
 20 0 20 0 20 287 c 1,2,-1
 310 423 l 1,3,-1
 320 423 l 1,4,-1
 320 286 l 2,5,6
 320 255 320 255 360 255 c 2,7,-1
 580 255 l 2,8,9
 620 255 620 255 620 286 c 2,10,-1
 620 411 l 2,11,12
 620 443 620 443 580 443 c 2,13,-1
 388 443 l 2,14,15
 88 443 88 443 88 731 c 2,16,-1
 88 822 l 2,17,18
 88 1100 88 1100 388 1100 c 2,19,-1
 556 1100 l 2,20,21
 828 1100 828 1100 852 863 c 1,22,-1
 594 740 l 1,23,-1
 584 740 l 1,24,-1
 584 824 l 2,25,26
 584 850 584 850 544 850 c 2,27,-1
 398 850 l 2,28,29
 358 850 358 850 358 821 c 2,30,-1
 358 724 l 2,31,32
 358 694 358 694 398 694 c 2,33,-1
 566 694 l 2,34,35
 910 694 910 694 910 422 c 2,36,-1
 910 311 l 2,37,38
 910 0 910 0 570 0 c 2,39,-1
 360 0 l 2,0,1
471 1544 m 0,40,41
 547 1544 547 1544 599 1491 c 128,-1,42
 651 1438 651 1438 651 1363 c 0,43,44
 651 1289 651 1289 598 1234 c 0,45,46
 546 1180 546 1180 471 1180 c 0,47,48
 394 1180 394 1180 342.5 1234 c 128,-1,49
 291 1288 291 1288 291 1362 c 0,50,51
 291 1438 291 1438 343 1490 c 0,52,53
 396 1544 396 1544 471 1544 c 0,40,41
EndSplineSet
Validated: 19457
EndChar

StartChar: Wgrave
Encoding: 7808 7808 186
Width: 2220
Flags: W
HStem: 0 300<465.217 946.172 1273.83 1754.78> 1510 20G<407.823 460 1217.82 1270 2027.82 2080>
VStem: 140 320<312.09 1383> 950 320<304.438 1383> 1760 320<312.09 1383>
DStem2: 1090 1980 900 1895 0.429396 -0.903116<0 356.108>
CounterMasks: 1 38
LayerCount: 2
Fore
SplineSet
550 0 m 2,0,1
 140 0 140 0 140 380 c 2,2,-1
 140 1383 l 1,3,-1
 450 1530 l 1,4,-1
 460 1530 l 1,5,-1
 460 371 l 2,6,7
 460 300 460 300 540 300 c 2,8,-1
 870 300 l 2,9,10
 950 300 950 300 950 371 c 2,11,-1
 950 1383 l 1,12,-1
 1260 1530 l 1,13,-1
 1270 1530 l 1,14,-1
 1270 371 l 2,15,16
 1270 300 1270 300 1350 300 c 2,17,-1
 1680 300 l 2,18,19
 1760 300 1760 300 1760 371 c 2,20,-1
 1760 1383 l 1,21,-1
 2070 1530 l 1,22,-1
 2080 1530 l 1,23,-1
 2080 380 l 2,24,25
 2080 0 2080 0 1670 0 c 2,26,-1
 1360 0 l 2,27,28
 1206 0 1206 0 1110 54 c 1,29,30
 1014 0 1014 0 860 0 c 2,31,-1
 550 0 l 2,0,1
1080 1980 m 1,32,-1
 1090 1980 l 1,33,-1
 1245 1654 l 1,34,-1
 1067 1570 l 1,35,-1
 1057 1570 l 1,36,-1
 900 1895 l 1,37,-1
 1080 1980 l 1,32,-1
EndSplineSet
Validated: 19457
EndChar

StartChar: wgrave
Encoding: 7809 7809 187
Width: 1880
Flags: W
HStem: 0 280<448.872 788.065 1091.94 1431.13> 1100 20G<387.971 440 1037.97 1090 1687.97 1740>
VStem: 140 300<288.112 982> 790 300<280 982> 1440 300<288.112 982>
DStem2: 909 1570 719 1485 0.429396 -0.903116<0 356.108>
CounterMasks: 1 38
LayerCount: 2
Fore
SplineSet
480 0 m 2,0,1
 140 0 140 0 140 307 c 2,2,-1
 140 982 l 1,3,-1
 430 1120 l 1,4,-1
 440 1120 l 1,5,-1
 440 315 l 2,6,7
 440 280 440 280 480 280 c 2,8,-1
 750 280 l 2,9,10
 790 280 790 280 790 315 c 2,11,-1
 790 982 l 1,12,-1
 1080 1120 l 1,13,-1
 1090 1120 l 1,14,-1
 1090 315 l 2,15,16
 1090 280 1090 280 1130 280 c 2,17,-1
 1400 280 l 2,18,19
 1440 280 1440 280 1440 315 c 2,20,-1
 1440 982 l 1,21,-1
 1730 1120 l 1,22,-1
 1740 1120 l 1,23,-1
 1740 307 l 2,24,25
 1740 0 1740 0 1400 0 c 2,26,-1
 1130 0 l 2,27,28
 1016 0 1016 0 940 35 c 1,29,30
 864 0 864 0 750 0 c 2,31,-1
 480 0 l 2,0,1
899 1570 m 1,32,-1
 909 1570 l 1,33,-1
 1064 1244 l 1,34,-1
 886 1160 l 1,35,-1
 876 1160 l 1,36,-1
 719 1485 l 1,37,-1
 899 1570 l 1,32,-1
EndSplineSet
Validated: 19457
EndChar

StartChar: Wacute
Encoding: 7810 7810 188
Width: 2220
Flags: W
HStem: 0 300<465.217 946.172 1273.83 1754.78> 1510 20G<407.823 460 1217.82 1270 2027.82 2080>
VStem: 140 320<312.09 1383> 950 320<304.438 1383> 1760 320<312.09 1383>
DStem2: 946 1654 1134 1570 0.429396 0.903116<4.86464 360.972>
CounterMasks: 1 38
LayerCount: 2
Fore
SplineSet
550 0 m 2,0,1
 140 0 140 0 140 380 c 2,2,-1
 140 1383 l 1,3,-1
 450 1530 l 1,4,-1
 460 1530 l 1,5,-1
 460 371 l 2,6,7
 460 300 460 300 540 300 c 2,8,-1
 870 300 l 2,9,10
 950 300 950 300 950 371 c 2,11,-1
 950 1383 l 1,12,-1
 1260 1530 l 1,13,-1
 1270 1530 l 1,14,-1
 1270 371 l 2,15,16
 1270 300 1270 300 1350 300 c 2,17,-1
 1680 300 l 2,18,19
 1760 300 1760 300 1760 371 c 2,20,-1
 1760 1383 l 1,21,-1
 2070 1530 l 1,22,-1
 2080 1530 l 1,23,-1
 2080 380 l 2,24,25
 2080 0 2080 0 1670 0 c 2,26,-1
 1360 0 l 2,27,28
 1206 0 1206 0 1110 54 c 1,29,30
 1014 0 1014 0 860 0 c 2,31,-1
 550 0 l 2,0,1
1111 1980 m 1,32,-1
 1291 1895 l 1,33,-1
 1134 1570 l 1,34,-1
 1124 1570 l 1,35,-1
 946 1654 l 1,36,-1
 1101 1980 l 1,37,-1
 1111 1980 l 1,32,-1
EndSplineSet
Validated: 19457
EndChar

StartChar: wacute
Encoding: 7811 7811 189
Width: 1880
Flags: W
HStem: 0 280<448.872 788.065 1091.94 1431.13> 1100 20G<387.971 440 1037.97 1090 1687.97 1740>
VStem: 140 300<288.112 982> 790 300<280 982> 1440 300<288.112 982>
DStem2: 766 1244 954 1160 0.429396 0.903116<4.86464 360.972>
CounterMasks: 1 38
LayerCount: 2
Fore
SplineSet
480 0 m 2,0,1
 140 0 140 0 140 307 c 2,2,-1
 140 982 l 1,3,-1
 430 1120 l 1,4,-1
 440 1120 l 1,5,-1
 440 315 l 2,6,7
 440 280 440 280 480 280 c 2,8,-1
 750 280 l 2,9,10
 790 280 790 280 790 315 c 2,11,-1
 790 982 l 1,12,-1
 1080 1120 l 1,13,-1
 1090 1120 l 1,14,-1
 1090 315 l 2,15,16
 1090 280 1090 280 1130 280 c 2,17,-1
 1400 280 l 2,18,19
 1440 280 1440 280 1440 315 c 2,20,-1
 1440 982 l 1,21,-1
 1730 1120 l 1,22,-1
 1740 1120 l 1,23,-1
 1740 307 l 2,24,25
 1740 0 1740 0 1400 0 c 2,26,-1
 1130 0 l 2,27,28
 1016 0 1016 0 940 35 c 1,29,30
 864 0 864 0 750 0 c 2,31,-1
 480 0 l 2,0,1
931 1570 m 1,32,-1
 1111 1485 l 1,33,-1
 954 1160 l 1,34,-1
 944 1160 l 1,35,-1
 766 1244 l 1,36,-1
 921 1570 l 1,37,-1
 931 1570 l 1,32,-1
EndSplineSet
Validated: 19457
EndChar

StartChar: Wdieresis
Encoding: 7812 7812 190
Width: 2220
Flags: W
HStem: 0 300<465.217 946.172 1273.83 1754.78> 1510 20G<407.823 460 1217.82 1270 2027.82 2080> 1620 297<821.833 1025.65 1159.83 1364.17>
VStem: 140 320<312.09 1383> 778 292<1665.38 1871.62> 950 320<304.438 1383> 1116 292<1665.38 1871.62> 1760 320<312.09 1383>
LayerCount: 2
Fore
SplineSet
550 0 m 2,0,1
 140 0 140 0 140 380 c 2,2,-1
 140 1383 l 1,3,-1
 450 1530 l 1,4,-1
 460 1530 l 1,5,-1
 460 371 l 2,6,7
 460 300 460 300 540 300 c 2,8,-1
 870 300 l 2,9,10
 950 300 950 300 950 371 c 2,11,-1
 950 1383 l 1,12,-1
 1260 1530 l 1,13,-1
 1270 1530 l 1,14,-1
 1270 371 l 2,15,16
 1270 300 1270 300 1350 300 c 2,17,-1
 1680 300 l 2,18,19
 1760 300 1760 300 1760 371 c 2,20,-1
 1760 1383 l 1,21,-1
 2070 1530 l 1,22,-1
 2080 1530 l 1,23,-1
 2080 380 l 2,24,25
 2080 0 2080 0 1670 0 c 2,26,-1
 1360 0 l 2,27,28
 1206 0 1206 0 1110 54 c 1,29,30
 1014 0 1014 0 860 0 c 2,31,-1
 550 0 l 2,0,1
1262.5 1917 m 128,-1,33
 1323 1917 1323 1917 1365.5 1873 c 128,-1,34
 1408 1829 1408 1829 1408 1768.5 c 128,-1,35
 1408 1708 1408 1708 1365.5 1664 c 128,-1,36
 1323 1620 1323 1620 1262 1620 c 128,-1,37
 1201 1620 1201 1620 1158.5 1664 c 128,-1,38
 1116 1708 1116 1708 1116 1768 c 0,39,40
 1116 1829 1116 1829 1159 1872 c 0,41,32
 1202 1917 1202 1917 1262.5 1917 c 128,-1,33
923.5 1917 m 128,-1,43
 984 1917 984 1917 1027 1873 c 128,-1,44
 1070 1829 1070 1829 1070 1768.5 c 128,-1,45
 1070 1708 1070 1708 1027 1664 c 128,-1,46
 984 1620 984 1620 924 1620 c 0,47,48
 863 1620 863 1620 820.5 1664 c 128,-1,49
 778 1708 778 1708 778 1768 c 0,50,51
 778 1829 778 1829 820 1872 c 0,52,42
 863 1917 863 1917 923.5 1917 c 128,-1,43
EndSplineSet
Validated: 19457
EndChar

StartChar: wdieresis
Encoding: 7813 7813 191
Width: 1880
Flags: W
HStem: 0 280<448.872 788.065 1091.94 1431.13> 1100 20G<387.971 440 1037.97 1090 1687.97 1740> 1210 297<657.833 861.652 995.833 1200.17>
VStem: 140 300<288.112 982> 614 292<1255.38 1461.62> 790 300<280 982> 952 292<1255.38 1461.62> 1440 300<288.112 982>
LayerCount: 2
Fore
SplineSet
480 0 m 2,0,1
 140 0 140 0 140 307 c 2,2,-1
 140 982 l 1,3,-1
 430 1120 l 1,4,-1
 440 1120 l 1,5,-1
 440 315 l 2,6,7
 440 280 440 280 480 280 c 2,8,-1
 750 280 l 2,9,10
 790 280 790 280 790 315 c 2,11,-1
 790 982 l 1,12,-1
 1080 1120 l 1,13,-1
 1090 1120 l 1,14,-1
 1090 315 l 2,15,16
 1090 280 1090 280 1130 280 c 2,17,-1
 1400 280 l 2,18,19
 1440 280 1440 280 1440 315 c 2,20,-1
 1440 982 l 1,21,-1
 1730 1120 l 1,22,-1
 1740 1120 l 1,23,-1
 1740 307 l 2,24,25
 1740 0 1740 0 1400 0 c 2,26,-1
 1130 0 l 2,27,28
 1016 0 1016 0 940 35 c 1,29,30
 864 0 864 0 750 0 c 2,31,-1
 480 0 l 2,0,1
1098.5 1507 m 128,-1,33
 1159 1507 1159 1507 1201.5 1463 c 128,-1,34
 1244 1419 1244 1419 1244 1358.5 c 128,-1,35
 1244 1298 1244 1298 1201.5 1254 c 128,-1,36
 1159 1210 1159 1210 1098 1210 c 128,-1,37
 1037 1210 1037 1210 994.5 1254 c 128,-1,38
 952 1298 952 1298 952 1358 c 0,39,40
 952 1419 952 1419 995 1462 c 0,41,32
 1038 1507 1038 1507 1098.5 1507 c 128,-1,33
759.5 1507 m 128,-1,43
 820 1507 820 1507 863 1463 c 128,-1,44
 906 1419 906 1419 906 1358.5 c 128,-1,45
 906 1298 906 1298 863 1254 c 128,-1,46
 820 1210 820 1210 760 1210 c 0,47,48
 699 1210 699 1210 656.5 1254 c 128,-1,49
 614 1298 614 1298 614 1358 c 0,50,51
 614 1419 614 1419 656 1462 c 0,52,42
 699 1507 699 1507 759.5 1507 c 128,-1,43
EndSplineSet
Validated: 19457
EndChar

StartChar: Ygrave
Encoding: 7922 7922 192
Width: 1250
Flags: W
HStem: -20 21G<465 517.177> 1510 20G<347.823 400 1117.82 1170>
VStem: 80 320<730.959 1383> 465 320<127 417> 850 320<730.959 1383>
DStem2: 678 1980 488 1895 0.429396 -0.903116<0 356.108>
CounterMasks: 1 38
LayerCount: 2
Fore
SplineSet
475 -20 m 1,0,-1
 465 -20 l 1,1,-1
 465 417 l 1,2,3
 80 428 80 428 80 797 c 2,4,-1
 80 1383 l 1,5,-1
 390 1530 l 1,6,-1
 400 1530 l 1,7,-1
 400 788 l 2,8,9
 400 717 400 717 480 717 c 2,10,-1
 770 717 l 2,11,12
 850 717 850 717 850 788 c 2,13,-1
 850 1383 l 1,14,-1
 1160 1530 l 1,15,-1
 1170 1530 l 1,16,-1
 1170 797 l 2,17,18
 1170 428 1170 428 785 417 c 1,19,-1
 785 127 l 1,20,-1
 475 -20 l 1,0,-1
668 1980 m 1,21,-1
 678 1980 l 1,22,-1
 833 1654 l 1,23,-1
 655 1570 l 1,24,-1
 645 1570 l 1,25,-1
 488 1895 l 1,26,-1
 668 1980 l 1,21,-1
EndSplineSet
Validated: 19457
EndChar

StartChar: ygrave
Encoding: 7923 7923 193
Width: 1250
Flags: W
HStem: -410 250<395 781.128> 0 280<448.872 789.375> 1100 20G<387.971 440 1037.97 1090>
VStem: 140 300<288.112 982> 790 300<-157.864 6 280 982>
DStem2: 649 1570 459 1485 0.429396 -0.903116<0 356.108>
LayerCount: 2
Fore
SplineSet
480 0 m 2,0,1
 140 0 140 0 140 307 c 2,2,-1
 140 982 l 1,3,-1
 430 1120 l 1,4,-1
 440 1120 l 1,5,-1
 440 315 l 2,6,7
 440 280 440 280 480 280 c 2,8,-1
 750 280 l 2,9,10
 790 280 790 280 790 315 c 2,11,-1
 790 982 l 1,12,-1
 1080 1120 l 1,13,-1
 1090 1120 l 1,14,-1
 1090 -103 l 2,15,16
 1090 -410 1090 -410 750 -410 c 2,17,-1
 280 -410 l 1,18,-1
 280 -400 l 1,19,-1
 395 -160 l 1,20,-1
 750 -160 l 2,21,22
 790 -160 790 -160 790 -125 c 2,23,-1
 790 6 l 1,24,25
 770 0 770 0 750 0 c 2,26,-1
 480 0 l 2,0,1
639 1570 m 1,27,-1
 649 1570 l 1,28,-1
 804 1244 l 1,29,-1
 626 1160 l 1,30,-1
 616 1160 l 1,31,-1
 459 1485 l 1,32,-1
 639 1570 l 1,27,-1
EndSplineSet
Validated: 19457
EndChar

StartChar: AE
Encoding: 198 198 194
Width: 1728
Flags: W
HStem: -20 21G<140 192.177> 0 300<1108 1582> 605 300<460 788 1108 1532> 1210 300<465.217 788 1108 1532>
VStem: 140 320<127 605 905 1197.91> 788 320<300 605 905 1210>
LayerCount: 2
Fore
SplineSet
1582 0 m 1,0,-1
 788 0 l 1,1,-1
 788 605 l 1,2,-1
 460 605 l 1,3,-1
 460 127 l 1,4,-1
 150 -20 l 1,5,-1
 140 -20 l 1,6,-1
 140 1130 l 2,7,8
 140 1510 140 1510 550 1510 c 2,9,-1
 1668 1510 l 1,10,-1
 1668 1500 l 1,11,-1
 1532 1210 l 1,12,-1
 1108 1210 l 1,13,-1
 1108 905 l 1,14,-1
 1668 905 l 1,15,-1
 1668 895 l 1,16,-1
 1532 605 l 1,17,-1
 1108 605 l 1,18,-1
 1108 300 l 1,19,-1
 1718 300 l 1,20,-1
 1718 290 l 1,21,-1
 1582 0 l 1,0,-1
788 1210 m 9,22,-1
 540 1210 l 2,23,24
 460 1210 460 1210 460 1139 c 2,25,26
 460 905 l 1,27,-1
 788 905 l 1,28,-1
 788 1210 l 9,22,-1
EndSplineSet
Validated: 19457
EndChar

StartChar: Eth
Encoding: 208 208 195
Width: 1390
Flags: W
HStem: 0 300<480 944.783> 665 180<81 160 480 724> 1210 300<480 944.783>
VStem: 160 320<300 665 845 1210> 950 320<312.09 1197.91>
CounterMasks: 1 e0
LayerCount: 2
Fore
SplineSet
160 0 m 1,0,-1
 160 665 l 1,1,-1
 0 665 l 1,2,-1
 0 675 l 1,3,-1
 81 845 l 1,4,-1
 160 845 l 1,5,-1
 160 1383 l 1,6,-1
 428 1510 l 1,7,-1
 860 1510 l 2,8,9
 1270 1510 1270 1510 1270 1130 c 2,10,-1
 1270 380 l 2,11,12
 1270 0 1270 0 860 0 c 2,13,-1
 160 0 l 1,0,-1
480 300 m 1,14,-1
 870 300 l 2,15,16
 950 300 950 300 950 371 c 2,17,-1
 950 1139 l 2,18,19
 950 1210 950 1210 870 1210 c 2,20,-1
 480 1210 l 1,21,-1
 480 845 l 1,22,-1
 805 845 l 1,23,-1
 805 835 l 1,24,-1
 724 665 l 1,25,-1
 480 665 l 1,26,-1
 480 300 l 1,14,-1
EndSplineSet
Validated: 19457
EndChar

StartChar: Dcroat
Encoding: 272 272 196
Width: 1390
Flags: W
HStem: 0 300<480 944.783> 665 180<81 160 480 724> 1210 300<480 944.783>
VStem: 160 320<300 665 845 1210> 950 320<312.09 1197.91>
CounterMasks: 1 e0
LayerCount: 2
Fore
SplineSet
160 0 m 1,0,-1
 160 665 l 1,1,-1
 0 665 l 1,2,-1
 0 675 l 1,3,-1
 81 845 l 1,4,-1
 160 845 l 1,5,-1
 160 1383 l 1,6,-1
 428 1510 l 1,7,-1
 860 1510 l 2,8,9
 1270 1510 1270 1510 1270 1130 c 2,10,-1
 1270 380 l 2,11,12
 1270 0 1270 0 860 0 c 2,13,-1
 160 0 l 1,0,-1
480 300 m 1,14,-1
 870 300 l 2,15,16
 950 300 950 300 950 371 c 2,17,-1
 950 1139 l 2,18,19
 950 1210 950 1210 870 1210 c 2,20,-1
 480 1210 l 1,21,-1
 480 845 l 1,22,-1
 805 845 l 1,23,-1
 805 835 l 1,24,-1
 724 665 l 1,25,-1
 480 665 l 1,26,-1
 480 300 l 1,14,-1
EndSplineSet
Validated: 19457
EndChar

StartChar: Hbar
Encoding: 294 294 197
Width: 1440
Flags: W
HStem: -20 21G<160 212.177 960 1012.18> 605 300<480 960> 1197 180<111 160 480 960 1280 1329> 1510 20G<427.823 480 1227.82 1280>
VStem: 160 320<127 605 905 1197 1377 1383> 960 320<127 605 905 1197 1377 1383>
LayerCount: 2
Fore
SplineSet
170 -20 m 1,0,-1
 160 -20 l 1,1,-1
 160 1197 l 1,2,-1
 30 1197 l 1,3,-1
 30 1207 l 1,4,-1
 111 1377 l 1,5,-1
 160 1377 l 1,6,-1
 160 1383 l 1,7,-1
 470 1530 l 1,8,-1
 480 1530 l 1,9,-1
 480 1377 l 1,10,-1
 960 1377 l 1,11,-1
 960 1383 l 1,12,-1
 1270 1530 l 1,13,-1
 1280 1530 l 1,14,-1
 1280 1377 l 1,15,-1
 1410 1377 l 1,16,-1
 1410 1367 l 1,17,-1
 1329 1197 l 1,18,-1
 1280 1197 l 1,19,-1
 1280 127 l 1,20,-1
 970 -20 l 1,21,-1
 960 -20 l 1,22,-1
 960 605 l 1,23,-1
 480 605 l 1,24,-1
 480 127 l 1,25,-1
 170 -20 l 1,0,-1
480 1197 m 1,26,-1
 480 905 l 1,27,-1
 960 905 l 1,28,-1
 960 1197 l 1,29,-1
 480 1197 l 1,26,-1
EndSplineSet
Validated: 19457
EndChar

StartChar: IJ
Encoding: 306 306 198
Width: 1831
Flags: W
HStem: -20 21G<160 212.177> 0 300<986.217 1385.78> 1210 300<882 1391> 1510 20G<427.823 480>
VStem: 160 320<127 1383> 1391 320<312.09 1210>
LayerCount: 2
Fore
SplineSet
1301 0 m 2,0,-1
 1071 0 l 2,1,2
 661 0 661 0 661 389 c 1,3,-1
 971 535 l 1,4,-1
 981 535 l 1,5,-1
 981 371 l 2,6,7
 981 300 981 300 1061 300 c 2,8,-1
 1311 300 l 2,9,10
 1391 300 1391 300 1391 371 c 2,11,-1
 1391 1210 l 1,12,-1
 746 1210 l 1,13,-1
 746 1220 l 1,14,-1
 882 1510 l 1,15,-1
 1711 1510 l 1,16,-1
 1711 380 l 2,17,18
 1711 0 1711 0 1301 0 c 2,0,-1
170 -20 m 1,19,-1
 160 -20 l 1,20,-1
 160 1383 l 1,21,-1
 470 1530 l 1,22,-1
 480 1530 l 1,23,-1
 480 127 l 1,24,-1
 170 -20 l 1,19,-1
EndSplineSet
Validated: 19457
EndChar

StartChar: lslash
Encoding: 322 322 199
Width: 766
Flags: W
HStem: -20 21G<233 285.029> 1510 20G<480.971 533>
VStem: 233 300<118 588 926 1392>
LayerCount: 2
Fore
SplineSet
243 -20 m 1,0,-1
 233 -20 l 1,1,-1
 233 588 l 1,2,-1
 54 505 l 1,3,-1
 50 514 l 1,4,-1
 50 701 l 1,5,-1
 233 786 l 1,6,-1
 233 1392 l 1,7,-1
 523 1530 l 1,8,-1
 533 1530 l 1,9,-1
 533 926 l 1,10,-1
 712 1009 l 1,11,-1
 716 1000 l 1,12,-1
 716 813 l 1,13,-1
 533 728 l 1,14,-1
 533 118 l 1,15,-1
 243 -20 l 1,0,-1
EndSplineSet
Validated: 19457
EndChar

StartChar: Lslash
Encoding: 321 321 200
Width: 1100
Flags: W
HStem: 0 300<480 954> 1510 20G<427.534 480>
VStem: 160 320<300 540 887 1384>
LayerCount: 2
Fore
SplineSet
160 0 m 1,0,-1
 160 540 l 1,1,-1
 84 505 l 1,2,-1
 80 514 l 1,3,-1
 80 701 l 1,4,-1
 160 738 l 1,5,-1
 160 1384 l 1,6,-1
 470 1530 l 1,7,-1
 480 1530 l 1,8,-1
 480 887 l 1,9,-1
 742 1009 l 1,10,-1
 746 1000 l 1,11,-1
 746 813 l 1,12,-1
 480 689 l 1,13,-1
 480 300 l 1,14,-1
 1090 300 l 1,15,-1
 1090 290 l 1,16,-1
 954 0 l 1,17,-1
 160 0 l 1,0,-1
EndSplineSet
Validated: 19457
EndChar

StartChar: Eng
Encoding: 330 330 201
Width: 1410
Flags: W
HStem: -410 300<785 944.783> -20 21G<140 192.177> 1210 300<465.217 944.783>
VStem: 140 320<127 1197.91> 950 320<-97.9102 1197.91>
LayerCount: 2
Fore
SplineSet
150 -20 m 1,0,-1
 140 -20 l 1,1,-1
 140 1130 l 2,2,3
 140 1510 140 1510 550 1510 c 2,4,-1
 860 1510 l 2,5,6
 1270 1510 1270 1510 1270 1130 c 2,7,-1
 1270 -30 l 2,8,9
 1270 -410 1270 -410 860 -410 c 2,10,-1
 646 -410 l 1,11,-1
 646 -400 l 1,12,-1
 785 -110 l 1,13,-1
 870 -110 l 2,14,15
 950 -110 950 -110 950 -39 c 2,16,-1
 950 1139 l 2,17,18
 950 1210 950 1210 870 1210 c 2,19,-1
 540 1210 l 2,20,21
 460 1210 460 1210 460 1139 c 2,22,-1
 460 127 l 1,23,-1
 150 -20 l 1,0,-1
EndSplineSet
Validated: 19457
EndChar

StartChar: OE
Encoding: 338 338 202
Width: 1714
Flags: W
HStem: 0 300<445.217 774 1094 1568> 605 300<1094 1518> 1210 300<445.217 774 1094 1518>
VStem: 120 320<312.09 1197.91> 774 320<300 605 905 1210>
CounterMasks: 1 e0
LayerCount: 2
Fore
SplineSet
774 300 m 1,0,-1
 774 1210 l 9,1,-1
 520 1210 l 2,2,3
 440 1210 440 1210 440 1139 c 2,4,5
 440 371 l 2,6,7
 440 300 440 300 520 300 c 2,8,-1
 774 300 l 1,0,-1
530 0 m 2,9,10
 120 0 120 0 120 380 c 2,11,-1
 120 1130 l 2,12,13
 120 1510 120 1510 530 1510 c 2,14,-1
 1654 1510 l 1,15,-1
 1654 1500 l 1,16,-1
 1518 1210 l 1,17,-1
 1094 1210 l 1,18,-1
 1094 905 l 1,19,-1
 1654 905 l 1,20,-1
 1654 895 l 1,21,-1
 1518 605 l 1,22,-1
 1094 605 l 1,23,-1
 1094 300 l 1,24,-1
 1704 300 l 1,25,-1
 1704 290 l 1,26,-1
 1568 0 l 1,27,-1
 530 0 l 2,9,10
EndSplineSet
Validated: 19457
EndChar

StartChar: Thorn
Encoding: 222 222 203
Width: 1250
Flags: W
HStem: -20 21G<160 212.177> 220 300<480 884.783> 990 300<480 884.783> 1510 20G<427.823 480>
VStem: 160 320<127 220 520 990 1290 1383> 890 320<527.767 982.233>
LayerCount: 2
Fore
SplineSet
170 -20 m 1,0,-1
 160 -20 l 1,1,-1
 160 1383 l 1,2,-1
 470 1530 l 1,3,-1
 480 1530 l 1,4,-1
 480 1290 l 1,5,-1
 800 1290 l 2,6,7
 1210 1290 1210 1290 1210 902 c 2,8,-1
 1210 608 l 2,9,10
 1210 220 1210 220 800 220 c 2,11,-1
 480 220 l 1,12,-1
 480 127 l 1,13,-1
 170 -20 l 1,0,-1
480 990 m 1,14,-1
 480 520 l 1,15,-1
 810 520 l 2,16,17
 890 520 890 520 890 591 c 2,18,-1
 890 919 l 2,19,20
 890 990 890 990 810 990 c 2,21,-1
 480 990 l 1,14,-1
EndSplineSet
Validated: 19457
EndChar

StartChar: Tbar
Encoding: 358 358 204
Width: 1190
Flags: W
HStem: -20 21G<435 487.466> 416 180<321 435 755 869> 1210 300<146 435 755 1044>
VStem: 435 320<126 416 596 1210>
LayerCount: 2
Fore
SplineSet
445 -20 m 1,0,-1
 435 -20 l 1,1,-1
 435 416 l 1,2,-1
 240 416 l 1,3,-1
 240 426 l 1,4,-1
 321 596 l 1,5,-1
 435 596 l 1,6,-1
 435 1210 l 1,7,-1
 10 1210 l 1,8,-1
 10 1220 l 1,9,-1
 146 1510 l 1,10,-1
 1180 1510 l 1,11,-1
 1180 1500 l 1,12,-1
 1044 1210 l 1,13,-1
 755 1210 l 1,14,-1
 755 596 l 1,15,-1
 950 596 l 1,16,-1
 950 586 l 1,17,-1
 869 416 l 1,18,-1
 755 416 l 1,19,-1
 755 126 l 1,20,-1
 445 -20 l 1,0,-1
EndSplineSet
Validated: 1
EndChar

StartChar: tbar
Encoding: 359 359 205
Width: 890
Flags: W
HStem: -20 21G<300 352.105> 416 180<176 300 590 714> 820 280<139 300 590 751> 1510 20G<537.895 590>
VStem: 300 290<113 416 596 820 1100 1397>
LayerCount: 2
Fore
SplineSet
95 416 m 1,0,-1
 95 426 l 1,1,-1
 176 596 l 1,2,-1
 300 596 l 1,3,-1
 300 820 l 1,4,-1
 10 820 l 1,5,-1
 10 830 l 1,6,-1
 139 1100 l 1,7,-1
 300 1100 l 1,8,-1
 300 1397 l 1,9,-1
 580 1530 l 1,10,-1
 590 1530 l 1,11,-1
 590 1100 l 1,12,-1
 880 1100 l 1,13,-1
 880 1090 l 1,14,-1
 751 820 l 1,15,-1
 590 820 l 1,16,-1
 590 596 l 1,17,-1
 795 596 l 1,18,-1
 795 586 l 1,19,-1
 714 416 l 1,20,-1
 590 416 l 1,21,-1
 590 113 l 1,22,-1
 310 -20 l 1,23,-1
 300 -20 l 1,24,-1
 300 416 l 1,25,-1
 95 416 l 1,0,-1
EndSplineSet
Validated: 1
EndChar

StartChar: thorn
Encoding: 254 254 206
Width: 1230
Flags: W
HStem: -430 21G<160 212.029> 0 280<460.625 801.128> 820 280<460.625 801.128> 1510 20G<407.971 460>
VStem: 160 300<-292 6 280 820 1094 1392> 810 300<288.112 811.888>
LayerCount: 2
Fore
SplineSet
770 0 m 2,0,-1
 500 0 l 2,1,2
 480 0 480 0 460 6 c 1,3,-1
 460 -292 l 1,4,-1
 170 -430 l 1,5,-1
 160 -430 l 1,6,-1
 160 1392 l 1,7,-1
 450 1530 l 1,8,-1
 460 1530 l 1,9,-1
 460 1094 l 1,10,11
 480 1100 480 1100 500 1100 c 2,12,-1
 770 1100 l 2,13,14
 1110 1100 1110 1100 1110 793 c 2,15,-1
 1110 307 l 2,16,17
 1110 0 1110 0 770 0 c 2,0,-1
500 820 m 2,18,19
 460 820 460 820 460 785 c 2,20,-1
 460 315 l 2,21,22
 460 280 460 280 500 280 c 2,23,-1
 770 280 l 2,24,25
 810 280 810 280 810 315 c 2,26,-1
 810 785 l 2,27,28
 810 820 810 820 770 820 c 2,29,-1
 500 820 l 2,18,19
EndSplineSet
Validated: 19457
EndChar

StartChar: eth
Encoding: 240 240 207
Width: 1190
Flags: W
HStem: 0 280<428.872 761.128> 820 280<428.872 571> 1510 20G<470.886 541.333>
VStem: 120 300<288.112 811.888> 770 300<288.112 818.57>
LayerCount: 2
Fore
SplineSet
730 0 m 2,0,-1
 460 0 l 2,1,2
 120 0 120 0 120 307 c 2,3,-1
 120 793 l 2,4,5
 120 1100 120 1100 460 1100 c 2,6,-1
 571 1100 l 1,7,-1
 442 1225 l 1,8,-1
 245 1134 l 1,9,-1
 241 1143 l 1,10,-1
 241 1330 l 1,11,-1
 304 1359 l 1,12,-1
 254 1407 l 1,13,-1
 513 1530 l 1,14,-1
 523 1530 l 1,15,-1
 567 1482 l 1,16,-1
 740 1562 l 1,17,-1
 744 1553 l 1,18,-1
 744 1366 l 1,19,-1
 694 1343 l 1,20,-1
 994 1015 l 2,21,22
 1070 932 1070 932 1070 793 c 2,23,-1
 1070 307 l 2,24,25
 1070 0 1070 0 730 0 c 2,0,-1
730 280 m 2,26,27
 770 280 770 280 770 315 c 2,28,-1
 770 785 l 2,29,30
 770 820 770 820 730 820 c 2,31,-1
 460 820 l 2,32,33
 420 820 420 820 420 785 c 2,34,-1
 420 315 l 2,35,36
 420 280 420 280 460 280 c 2,37,-1
 730 280 l 2,26,27
EndSplineSet
Validated: 19457
EndChar

StartChar: oe
Encoding: 339 339 208
Width: 1777
Flags: W
HStem: 0 280<428.872 768.59 1070.65 1348.13> 820 280<428.872 768.59 1070.79 1348.13>
VStem: 120 300<288.112 811.888> 770 300<280 363 588 820> 1357 300<288.112 327 724 811.888>
DStem2: 1070 588 1070 363 0.903769 0.42802<0 317.592>
LayerCount: 2
Fore
SplineSet
730 280 m 2,0,1
 770 280 770 280 770 315 c 2,2,-1
 770 785 l 2,3,4
 770 820 770 820 730 820 c 2,5,-1
 460 820 l 2,6,7
 420 820 420 820 420 785 c 2,8,-1
 420 315 l 2,9,10
 420 280 420 280 460 280 c 2,11,-1
 730 280 l 2,0,1
730 0 m 2,12,-1
 460 0 l 2,13,14
 120 0 120 0 120 307 c 2,15,-1
 120 793 l 2,16,17
 120 1100 120 1100 460 1100 c 2,18,-1
 730 1100 l 2,19,20
 836 1100 836 1100 909 1070 c 1,21,22
 982 1100 982 1100 1087 1100 c 2,23,-1
 1317 1100 l 2,24,25
 1657 1100 1657 1100 1657 793 c 2,26,-1
 1657 641 l 1,27,-1
 1070 363 l 1,28,-1
 1070 307 l 2,29,30
 1070 280 1070 280 1087 280 c 2,31,-1
 1317 280 l 2,32,33
 1357 280 1357 280 1357 315 c 2,34,-1
 1357 327 l 1,35,-1
 1647 465 l 1,36,-1
 1657 465 l 1,37,-1
 1657 307 l 2,38,39
 1657 0 1657 0 1317 0 c 2,40,-1
 1087 0 l 2,41,42
 981 0 981 0 909 30 c 1,43,44
 836 0 836 0 730 0 c 2,12,-1
1070 793 m 2,45,-1
 1070 588 l 1,46,-1
 1357 724 l 1,47,-1
 1357 785 l 2,48,49
 1357 820 1357 820 1317 820 c 2,50,-1
 1087 820 l 2,51,52
 1070 820 1070 820 1070 793 c 2,45,-1
EndSplineSet
Validated: 19457
EndChar

StartChar: eng
Encoding: 331 331 209
Width: 1230
Flags: W
HStem: -410 21G<555 920> -20 21G<140 192.029> 820 280<448.872 781.128>
VStem: 140 300<118 811.888> 790 300<-121.888 811.888>
LayerCount: 2
Fore
SplineSet
150 -20 m 1,0,-1
 140 -20 l 1,1,-1
 140 793 l 2,2,3
 140 1100 140 1100 480 1100 c 2,4,-1
 750 1100 l 2,5,6
 1090 1100 1090 1100 1090 793 c 2,7,-1
 1090 -103 l 2,8,9
 1090 -410 1090 -410 750 -410 c 2,10,-1
 555 -410 l 1,11,-1
 555 -400 l 1,12,-1
 684 -130 l 1,13,-1
 750 -130 l 2,14,15
 790 -130 790 -130 790 -95 c 2,16,-1
 790 785 l 2,17,18
 790 820 790 820 750 820 c 2,19,-1
 480 820 l 2,20,21
 440 820 440 820 440 785 c 2,22,-1
 440 118 l 1,23,-1
 150 -20 l 1,0,-1
EndSplineSet
Validated: 19457
EndChar

StartChar: kgreenlandic
Encoding: 312 312 210
Width: 1210
Flags: W
HStem: -20 21G<160 212.029 790 842.029> 1100 20G<407.971 460 790.4 866.034>
VStem: 160 300<118 537 820 982> 790 300<118 533.713>
LayerCount: 2
Fore
SplineSet
170 -20 m 1,0,-1
 160 -20 l 1,1,-1
 160 982 l 1,2,-1
 450 1120 l 1,3,-1
 460 1120 l 1,4,-1
 460 820 l 1,5,-1
 814 1120 l 1,6,-1
 824 1120 l 1,7,-1
 1072 1002 l 1,8,-1
 836 810 l 1,9,10
 1090 768 1090 768 1090 510 c 2,11,-1
 1090 118 l 1,12,-1
 800 -20 l 1,13,-1
 790 -20 l 1,14,-1
 790 502 l 2,15,16
 790 537 790 537 750 537 c 2,17,-1
 500 537 l 2,18,19
 460 537 460 537 460 502 c 2,20,-1
 460 118 l 1,21,-1
 170 -20 l 1,0,-1
EndSplineSet
Validated: 19457
EndChar

StartChar: ij
Encoding: 307 307 211
Width: 1220
Flags: W
HStem: -410 21G<525 890> -20 21G<160 212.029> 1100 20G<407.971 460 1007.97 1060> 1180 364<192.131 426.338 792.131 1026.34>
VStem: 130 360<1244.3 1481.73> 160 300<118 982> 730 360<1244.3 1481.73> 760 300<-121.888 982>
LayerCount: 2
Fore
SplineSet
1050 1120 m 1,0,-1
 1060 1120 l 1,1,-1
 1060 -103 l 2,2,3
 1060 -410 1060 -410 720 -410 c 2,4,-1
 525 -410 l 1,5,-1
 525 -400 l 1,6,-1
 654 -130 l 1,7,-1
 720 -130 l 2,8,9
 760 -130 760 -130 760 -95 c 2,10,-1
 760 982 l 1,11,-1
 1050 1120 l 1,0,-1
910 1544 m 0,12,13
 986 1544 986 1544 1038 1491 c 128,-1,14
 1090 1438 1090 1438 1090 1363 c 0,15,16
 1090 1289 1090 1289 1037 1234 c 0,17,18
 985 1180 985 1180 910 1180 c 0,19,20
 833 1180 833 1180 781.5 1234 c 128,-1,21
 730 1288 730 1288 730 1362 c 0,22,23
 730 1438 730 1438 782 1490 c 0,24,25
 835 1544 835 1544 910 1544 c 0,12,13
170 -20 m 1,26,-1
 160 -20 l 1,27,-1
 160 982 l 1,28,-1
 450 1120 l 1,29,-1
 460 1120 l 1,30,-1
 460 118 l 1,31,-1
 170 -20 l 1,26,-1
310 1544 m 0,32,33
 386 1544 386 1544 438 1491 c 128,-1,34
 490 1438 490 1438 490 1363 c 0,35,36
 490 1289 490 1289 437 1234 c 0,37,38
 385 1180 385 1180 310 1180 c 0,39,40
 233 1180 233 1180 181.5 1234 c 128,-1,41
 130 1288 130 1288 130 1362 c 0,42,43
 130 1438 130 1438 182 1490 c 0,44,45
 235 1544 235 1544 310 1544 c 0,32,33
EndSplineSet
Validated: 19457
EndChar

StartChar: hbar
Encoding: 295 295 212
Width: 1250
Flags: W
HStem: -20 21G<160 212.029 810 862.029> 820 280<460.533 801.128> 1197 180<111 160 460 609> 1510 20G<407.971 460>
VStem: 160 300<118 820 1093 1197 1377 1392> 810 300<118 811.888>
LayerCount: 2
Fore
SplineSet
170 -20 m 1,0,-1
 160 -20 l 1,1,-1
 160 1197 l 1,2,-1
 30 1197 l 1,3,-1
 30 1207 l 1,4,-1
 111 1377 l 1,5,-1
 160 1377 l 1,6,-1
 160 1392 l 1,7,-1
 450 1530 l 1,8,-1
 460 1530 l 1,9,-1
 460 1377 l 1,10,-1
 690 1377 l 1,11,-1
 690 1367 l 1,12,-1
 609 1197 l 1,13,-1
 460 1197 l 1,14,-1
 460 1093 l 1,15,16
 477 1100 477 1100 500 1100 c 2,17,-1
 770 1100 l 2,18,19
 1110 1100 1110 1100 1110 793 c 2,20,-1
 1110 118 l 1,21,-1
 820 -20 l 1,22,-1
 810 -20 l 1,23,-1
 810 785 l 2,24,25
 810 820 810 820 770 820 c 2,26,-1
 500 820 l 2,27,28
 460 820 460 820 460 785 c 2,29,-1
 460 118 l 1,30,-1
 170 -20 l 1,0,-1
EndSplineSet
Validated: 19457
EndChar

StartChar: longs
Encoding: 383 383 213
Width: 940
Flags: W
HStem: -20 21G<220 272.029> 1230 280<528.872 801>
VStem: 220 300<118 662 942 1221.89>
LayerCount: 2
Fore
SplineSet
230 -20 m 1,0,-1
 220 -20 l 1,1,-1
 220 662 l 1,2,-1
 10 662 l 1,3,-1
 10 672 l 1,4,-1
 139 942 l 1,5,-1
 220 942 l 1,6,-1
 220 1203 l 2,7,8
 220 1510 220 1510 560 1510 c 2,9,-1
 930 1510 l 1,10,-1
 930 1500 l 1,11,-1
 801 1230 l 1,12,-1
 560 1230 l 2,13,14
 520 1230 520 1230 520 1195 c 2,15,-1
 520 118 l 1,16,-1
 230 -20 l 1,0,-1
EndSplineSet
Validated: 1
EndChar

StartChar: florin
Encoding: 402 402 214
Width: 880
Flags: W
HStem: -410 21G<-75 290> 662 280<460 702> 1230 280<468.872 741>
VStem: 160 300<-121.888 662 942 1221.89>
LayerCount: 2
Fore
SplineSet
-75 -410 m 1,0,-1
 -75 -400 l 1,1,-1
 54 -130 l 1,2,-1
 120 -130 l 2,3,4
 160 -130 160 -130 160 -95 c 2,5,-1
 160 1203 l 2,6,7
 160 1510 160 1510 500 1510 c 2,8,-1
 870 1510 l 1,9,-1
 870 1500 l 1,10,-1
 741 1230 l 1,11,-1
 500 1230 l 2,12,13
 460 1230 460 1230 460 1195 c 2,14,-1
 460 942 l 1,15,-1
 831 942 l 1,16,-1
 831 932 l 1,17,-1
 702 662 l 1,18,-1
 460 662 l 1,19,-1
 460 -103 l 2,20,21
 460 -410 460 -410 120 -410 c 2,22,-1
 -75 -410 l 1,0,-1
EndSplineSet
Validated: 19457
EndChar

StartChar: dcroat
Encoding: 273 273 215
Width: 1210
Flags: W
HStem: 0 280<428.872 761.128> 820 280<428.872 769.375> 1197 180<621 770 1070 1089> 1510 20G<1017.97 1070>
VStem: 120 300<288.112 811.888> 770 300<288.112 820 1094 1197 1377 1392>
LayerCount: 2
Fore
SplineSet
730 0 m 2,0,-1
 460 0 l 2,1,2
 120 0 120 0 120 307 c 2,3,-1
 120 793 l 2,4,5
 120 1100 120 1100 460 1100 c 2,6,-1
 730 1100 l 2,7,8
 750 1100 750 1100 770 1094 c 1,9,-1
 770 1197 l 1,10,-1
 540 1197 l 1,11,-1
 540 1207 l 1,12,-1
 621 1377 l 1,13,-1
 770 1377 l 1,14,-1
 770 1392 l 1,15,-1
 1060 1530 l 1,16,-1
 1070 1530 l 1,17,-1
 1070 1377 l 1,18,-1
 1170 1377 l 1,19,-1
 1170 1367 l 1,20,-1
 1089 1197 l 1,21,-1
 1070 1197 l 1,22,-1
 1070 307 l 2,23,24
 1070 0 1070 0 730 0 c 2,0,-1
730 280 m 2,25,26
 770 280 770 280 770 315 c 2,27,-1
 770 785 l 2,28,29
 770 820 770 820 730 820 c 2,30,-1
 460 820 l 2,31,32
 420 820 420 820 420 785 c 2,33,-1
 420 315 l 2,34,35
 420 280 420 280 460 280 c 2,36,-1
 730 280 l 2,25,26
EndSplineSet
Validated: 19457
EndChar

StartChar: germandbls
Encoding: 223 223 216
Width: 1219
Flags: W
HStem: -20 21G<140 192.029> 0 280<604 870.128> 681 280<603 789> 1230 280<448.872 781.036>
VStem: 140 300<118 1221.89> 789 300<962.854 1221.89> 879 300<288.112 677.172>
LayerCount: 2
Fore
SplineSet
839 0 m 2,0,-1
 475 0 l 17,1,-1
 475 10 l 1,2,-1
 604 280 l 9,3,-1
 839 280 l 2,4,5
 879 280 879 280 879 315 c 2,6,-1
 879 646 l 2,7,8
 879 681 879 681 839 681 c 2,9,-1
 474 681 l 17,10,-1
 474 691 l 1,11,-1
 603 961 l 1,12,-1
 749 961 l 2,13,14
 789 961 789 961 789 996 c 2,15,-1
 789 1195 l 2,16,17
 789 1230 789 1230 749 1230 c 2,18,-1
 480 1230 l 2,19,20
 440 1230 440 1230 440 1195 c 2,21,-1
 440 118 l 1,22,-1
 150 -20 l 1,23,-1
 140 -20 l 1,24,-1
 140 1203 l 2,25,26
 140 1510 140 1510 480 1510 c 2,27,-1
 750 1510 l 2,28,29
 1089 1510 1089 1510 1089 1203 c 2,30,-1
 1089 1072 l 2,31,32
 1089 974 1089 974 1050 916 c 1,33,34
 1179 843 1179 843 1179 654 c 2,35,-1
 1179 307 l 2,36,37
 1179 0 1179 0 839 0 c 2,0,-1
EndSplineSet
Validated: 19457
EndChar

StartChar: ae
Encoding: 230 230 217
Width: 1661
Flags: W
HStem: -20 21G<654 706.182> 0 280<956.777 1232.13> 0 250<358.872 653.406> 469 251<358.872 653.344> 840 260<313 652.59 954.789 1232.13>
VStem: 50 300<252.957 467.043> 654 300<280.031 363 713 840> 1241 300<288.112 327 724 839.095>
DStem2: 954 588 954 363 0.903769 0.42802<0 317.592>
LayerCount: 2
Fore
SplineSet
1201 0 m 2,0,-1
 971 0 l 2,1,2
 856 0 856 0 780 35 c 1,3,-1
 664 -20 l 1,4,-1
 654 -20 l 1,5,-1
 654 7 l 1,6,7
 635 0 635 0 614 0 c 2,8,-1
 390 0 l 2,9,10
 50 0 50 0 50 308 c 2,11,-1
 50 412 l 2,12,13
 50 720 50 720 390 720 c 2,14,-1
 614 720 l 2,15,16
 633 720 633 720 654 713 c 1,17,-1
 654 805 l 2,18,19
 654 840 654 840 624 840 c 2,20,-1
 194 840 l 1,21,-1
 194 850 l 1,22,-1
 313 1100 l 1,23,-1
 614 1100 l 2,24,25
 720 1100 720 1100 793 1070 c 1,26,27
 866 1100 866 1100 971 1100 c 2,28,-1
 1201 1100 l 2,29,30
 1541 1100 1541 1100 1541 793 c 2,31,-1
 1541 641 l 1,32,-1
 954 363 l 1,33,-1
 954 282 l 1,34,35
 961 280 961 280 971 280 c 2,36,-1
 1201 280 l 2,37,38
 1241 280 1241 280 1241 315 c 2,39,-1
 1241 327 l 1,40,-1
 1531 465 l 1,41,-1
 1541 465 l 1,42,-1
 1541 307 l 2,43,44
 1541 0 1541 0 1201 0 c 2,0,-1
350 282 m 18,45,46
 350 250 350 250 390 250 c 2,47,-1
 619 250 l 2,48,49
 659 250 659 250 659 282 c 2,50,-1
 659 437 l 2,51,52
 659 469 659 469 619 469 c 2,53,-1
 390 469 l 2,54,55
 350 469 350 469 350 437 c 2,56,-1
 350 282 l 18,45,46
971 840 m 2,57,58
 954 840 954 840 954 816 c 2,59,-1
 954 588 l 1,60,-1
 1241 724 l 1,61,-1
 1241 805 l 2,62,63
 1241 840 1241 840 1201 840 c 2,64,-1
 971 840 l 2,57,58
EndSplineSet
Validated: 19457
EndChar

StartChar: S
Encoding: 83 83 218
Width: 1160
Flags: W
HStem: 0 300<355.217 784.783> 683 301<439.406 784.783> 1220 290<439.406 710.242>
VStem: 123 310<991.872 1211.17> 790 320<314.554 669.446>
LayerCount: 2
Fore
SplineSet
700 0 m 2,0,1
 440 0 l 2,2,3
 30 0 30 0 30 378 c 1,4,-1
 340 526 l 1,5,-1
 350 526 l 1,6,-1
 350 367 l 2,7,8
 350 300 350 300 430 300 c 2,9,-1
 710 300 l 2,10,11
 790 300 790 300 790 367 c 2,12,-1
 790 616 l 2,13,14
 790 683 790 683 710 683 c 2,15,-1
 483 683 l 2,16,17
 123 683 123 683 123 1023 c 2,18,-1
 123 1170 l 2,19,20
 123 1510 123 1510 483 1510 c 2,21,-1
 667 1510 l 2,22,23
 1024 1510 1024 1510 1027 1179 c 1,24,-1
 727 1036 l 1,25,-1
 717 1036 l 1,26,-1
 717 1158 l 2,27,28
 717 1220 717 1220 637 1220 c 2,29,-1
 513 1220 l 2,30,31
 433 1220 433 1220 433 1154 c 2,32,-1
 433 1050 l 2,33,34
 433 984 433 984 513 984 c 2,35,-1
 700 984 l 2,36,37
 1110 984 1110 984 1110 601 c 2,38,-1
 1110 383 l 2,39,40
 1110 0 1110 0 700 0 c 2,0,1
EndSplineSet
Validated: 19457
EndChar

StartChar: s
Encoding: 115 115 219
Width: 950
Flags: W
HStem: 0 255<328.872 611.172> 443 251<360.534 617.65> 850 250<360.534 580.955>
VStem: 88 270<696.125 847.452> 620 290<255.421 438.734>
LayerCount: 2
Fore
SplineSet
360 0 m 2,0,1
 20 0 20 0 20 287 c 1,2,-1
 310 423 l 1,3,-1
 320 423 l 1,4,-1
 320 286 l 2,5,6
 320 255 320 255 360 255 c 2,7,-1
 580 255 l 2,8,9
 620 255 620 255 620 286 c 2,10,-1
 620 411 l 2,11,12
 620 443 620 443 580 443 c 2,13,-1
 388 443 l 2,14,15
 88 443 88 443 88 731 c 2,16,-1
 88 822 l 2,17,18
 88 1100 88 1100 388 1100 c 2,19,-1
 556 1100 l 2,20,21
 828 1100 828 1100 852 863 c 1,22,-1
 594 740 l 1,23,-1
 584 740 l 1,24,-1
 584 824 l 2,25,26
 584 850 584 850 544 850 c 2,27,-1
 398 850 l 2,28,29
 358 850 358 850 358 821 c 2,30,-1
 358 724 l 2,31,32
 358 694 358 694 398 694 c 2,33,-1
 566 694 l 2,34,35
 910 694 910 694 910 422 c 2,36,-1
 910 311 l 2,37,38
 910 0 910 0 570 0 c 2,39,-1
 360 0 l 2,0,1
EndSplineSet
Validated: 19457
EndChar

StartChar: circumflex
Encoding: 710 710 220
Width: 642
Flags: W
HStem: 1160 410
VStem: 30 582
LayerCount: 2
Fore
SplineSet
386 1570 m 1,0,-1
 396 1570 l 1,1,-1
 612 1245 l 1,2,-1
 434 1160 l 1,3,-1
 424 1160 l 1,4,-1
 323 1322 l 1,5,-1
 218 1160 l 1,6,-1
 208 1160 l 1,7,-1
 30 1245 l 1,8,-1
 206 1484 l 1,9,-1
 386 1570 l 1,0,-1
EndSplineSet
Validated: 19457
EndChar

StartChar: caron
Encoding: 711 711 221
Width: 642
Flags: W
HStem: 1160 410
VStem: 30 582
LayerCount: 2
Fore
SplineSet
208 1570 m 1,0,-1
 218 1570 l 1,1,-1
 319 1408 l 1,2,-1
 424 1570 l 1,3,-1
 434 1570 l 1,4,-1
 612 1485 l 1,5,-1
 436 1246 l 1,6,-1
 256 1160 l 1,7,-1
 246 1160 l 1,8,-1
 30 1485 l 1,9,-1
 208 1570 l 1,0,-1
EndSplineSet
Validated: 19457
EndChar

StartChar: uni02C9
Encoding: 713 713 222
Width: 680
Flags: W
HStem: 1270 190<116 564>
VStem: 30 620
LayerCount: 2
Fore
SplineSet
116 1460 m 1,0,-1
 650 1460 l 1,1,-1
 650 1450 l 1,2,-1
 564 1270 l 1,3,-1
 30 1270 l 1,4,-1
 30 1280 l 1,5,-1
 116 1460 l 1,0,-1
EndSplineSet
Validated: 19457
EndChar

StartChar: breve
Encoding: 728 728 223
Width: 680
Flags: W
HStem: 1240 200<172.531 507.469>
VStem: 30 620<1308.34 1346>
LayerCount: 2
Fore
SplineSet
120 1535 m 1,0,1
 190 1440 190 1440 340 1440 c 128,-1,2
 490 1440 490 1440 560 1535 c 1,3,-1
 650 1346 l 1,4,-1
 650 1336 l 1,5,6
 518 1240 518 1240 340 1240 c 128,-1,7
 162 1240 162 1240 30 1336 c 1,8,-1
 30 1346 l 1,9,-1
 120 1535 l 1,0,1
EndSplineSet
Validated: 19457
EndChar

StartChar: dotaccent
Encoding: 729 729 224
Width: 420
Flags: W
HStem: 1180 364<92.1309 326.338>
VStem: 30 360<1244.3 1481.73>
LayerCount: 2
Fore
SplineSet
210 1544 m 0,0,1
 286 1544 286 1544 338 1491 c 128,-1,2
 390 1438 390 1438 390 1363 c 0,3,4
 390 1289 390 1289 337 1234 c 0,5,6
 285 1180 285 1180 210 1180 c 0,7,8
 133 1180 133 1180 81.5 1234 c 128,-1,9
 30 1288 30 1288 30 1362 c 0,10,11
 30 1438 30 1438 82 1490 c 0,12,13
 135 1544 135 1544 210 1544 c 0,0,1
EndSplineSet
Validated: 19457
EndChar

StartChar: ring
Encoding: 730 730 225
Width: 456
Flags: W
HStem: 1160 112<160.15 297.342> 1448 112<159.9 297.373>
VStem: 30 111<1291.16 1428.97> 315 111<1292.14 1428.97>
LayerCount: 2
Fore
SplineSet
229.5 1448 m 128,-1,1
 192 1448 192 1448 166.5 1422 c 128,-1,2
 141 1396 141 1396 141 1360 c 128,-1,3
 141 1324 141 1324 166.5 1298 c 128,-1,4
 192 1272 192 1272 228 1272 c 256,5,6
 266 1272 266 1272 292 1300 c 0,7,8
 315 1325 315 1325 315 1360 c 0,9,10
 315 1396 315 1396 291 1422 c 128,-1,0
 267 1448 267 1448 229.5 1448 c 128,-1,1
230 1560 m 0,11,12
 310 1560 310 1560 368 1502 c 0,13,14
 426 1442 426 1442 426 1361 c 0,15,16
 426 1277 426 1277 368 1219 c 0,17,18
 309 1160 309 1160 228 1160 c 256,19,20
 148 1160 148 1160 88 1219 c 0,21,22
 30 1277 30 1277 30 1361 c 0,23,24
 30 1442 30 1442 88 1502 c 0,25,26
 146 1560 146 1560 230 1560 c 0,11,12
EndSplineSet
Validated: 19457
EndChar

StartChar: ogonek
Encoding: 731 731 226
Width: 399
Flags: W
HStem: -430 430 -20 20G<191 274>
VStem: 30 207<-275.73 -100.771>
LayerCount: 2
Fore
SplineSet
191 0 m 1,0,-1
 311 0 l 1,1,2
 237 -75 237 -75 237 -164 c 0,3,4
 237 -287 237 -287 369 -320 c 1,5,-1
 139 -430 l 1,6,-1
 129 -430 l 1,7,8
 30 -354 30 -354 30 -236 c 0,9,10
 30 -94 30 -94 191 0 c 1,0,-1
EndSplineSet
Validated: 19457
EndChar

StartChar: tilde
Encoding: 732 732 227
Width: 680
Flags: W
HStem: 1210 182<400.253 463.619> 1339 182<216.381 279.747>
VStem: 30 620
LayerCount: 2
Fore
SplineSet
640 1521 m 1,0,-1
 650 1521 l 1,1,2
 650 1210 650 1210 451 1210 c 0,3,4
 353 1210 353 1210 272 1305 c 0,5,6
 243 1339 243 1339 234 1339 c 0,7,8
 216 1339 216 1339 216 1294 c 1,9,-1
 40 1210 l 1,10,-1
 30 1210 l 1,11,12
 30 1521 30 1521 229 1521 c 0,13,14
 327 1521 327 1521 408 1426 c 0,15,16
 437 1392 437 1392 446 1392 c 0,17,18
 464 1392 464 1392 464 1437 c 1,19,-1
 640 1521 l 1,0,-1
EndSplineSet
Validated: 19457
EndChar

StartChar: hungarumlaut
Encoding: 733 733 228
Width: 668
Flags: W
HStem: 1170 390
VStem: 30 608
DStem2: 30 1246 199 1170 0.426352 0.904557<3.30711 347.131> 319 1246 488 1170 0.426352 0.904557<3.30711 347.131>
LayerCount: 2
Fore
SplineSet
477 1560 m 1,0,-1
 638 1483 l 1,1,-1
 488 1170 l 1,2,-1
 478 1170 l 1,3,-1
 319 1246 l 1,4,-1
 467 1560 l 1,5,-1
 477 1560 l 1,0,-1
188 1560 m 1,6,-1
 349 1483 l 1,7,-1
 199 1170 l 1,8,-1
 189 1170 l 1,9,-1
 30 1246 l 1,10,-1
 178 1560 l 1,11,-1
 188 1560 l 1,6,-1
EndSplineSet
Validated: 19457
EndChar

StartChar: uni1E9E
Encoding: 7838 7838 229
Width: 1290
Flags: W
HStem: -20 21G<160 212.177> 0 300<681 924.783> 1210 300<480 774.68>
VStem: 160 320<127 1210> 930 320<308.805 686.931>
LayerCount: 2
Fore
SplineSet
840 0 m 2,0,-1
 545 0 l 1,1,-1
 545 10 l 1,2,-1
 681 300 l 1,3,-1
 850 300 l 2,4,5
 930 300 930 300 930 371 c 2,6,-1
 930 623 l 2,7,8
 930 694 930 694 850 694 c 2,9,-1
 545 694 l 1,10,-1
 545 704 l 1,11,-1
 778 1198 l 1,12,13
 759 1210 759 1210 735 1210 c 2,14,-1
 480 1210 l 1,15,-1
 480 127 l 1,16,-1
 170 -20 l 1,17,-1
 160 -20 l 1,18,-1
 160 1383 l 1,19,-1
 428 1510 l 1,20,-1
 750 1510 l 2,21,22
 1017 1510 1017 1510 1124 1303 c 1,23,-1
 952 952 l 1,24,25
 1250 943 1250 943 1250 583 c 2,26,-1
 1250 376 l 2,27,28
 1250 0 1250 0 840 0 c 2,0,-1
EndSplineSet
Validated: 19457
EndChar

StartChar: uni203D
Encoding: 8253 8253 230
Width: 1300
Flags: W
HStem: -20 365<487.131 721.878> 1210 300<435.217 864.783>
VStem: 425 360<42.5657 282.578> 501 230<815 963> 870 320<896.936 1197.91>
LayerCount: 2
Fore
SplineSet
605 -20 m 0,0,1
 529 -20 529 -20 477 34 c 128,-1,2
 425 88 425 88 425 162 c 0,3,4
 425 238 425 238 477 291 c 0,5,6
 530 345 530 345 605 345 c 128,-1,7
 680 345 680 345 732.5 291.5 c 128,-1,8
 785 238 785 238 785 163 c 128,-1,9
 785 88 785 88 732 34 c 128,-1,10
 679 -20 679 -20 605 -20 c 0,0,1
520 1510 m 2,11,-1
 780 1510 l 2,12,13
 1190 1510 1190 1510 1190 1130 c 2,14,-1
 1190 1056 l 2,15,16
 1190 736 1190 736 828 571 c 0,17,18
 771 545 771 545 771 506 c 1,19,-1
 458 359 l 1,20,-1
 448 359 l 1,21,22
 448 515 448 515 501 620 c 1,23,-1
 501 963 l 1,24,-1
 721 1068 l 1,25,-1
 731 1068 l 1,26,-1
 731 815 l 1,27,28
 870 891 870 891 870 1038 c 2,29,-1
 870 1139 l 2,30,31
 870 1210 870 1210 790 1210 c 2,32,-1
 510 1210 l 2,33,34
 430 1210 430 1210 430 1139 c 2,35,-1
 430 1100 l 1,36,-1
 120 952 l 1,37,-1
 110 952 l 1,38,-1
 110 1130 l 2,39,40
 110 1510 110 1510 520 1510 c 2,11,-1
EndSplineSet
Validated: 19457
EndChar

StartChar: afii61352
Encoding: 8470 8470 231
Width: 2010
Flags: W
HStem: -20 21G<140 192.177 950 1002.18> 0 180<1437 1819> 236 181<1576 1710> 646 181<1576 1710> 1210 300<465.217 944.783>
VStem: 140 320<127 1197.91> 950 320<127 1197.91> 1386 190<417 646> 1710 190<417 646>
LayerCount: 2
Fore
SplineSet
1710 417 m 1,0,-1
 1710 646 l 1,1,-1
 1576 646 l 1,2,-1
 1576 417 l 1,3,-1
 1710 417 l 1,0,-1
1576 827 m 2,4,-1
 1710 827 l 2,5,6
 1900 827 1900 827 1900 654 c 2,7,-1
 1900 409 l 2,8,9
 1900 236 1900 236 1710 236 c 2,10,-1
 1576 236 l 2,11,12
 1386 236 1386 236 1386 409 c 2,13,-1
 1386 654 l 2,14,15
 1386 827 1386 827 1576 827 c 2,4,-1
150 -20 m 1,16,-1
 140 -20 l 1,17,-1
 140 1130 l 2,18,19
 140 1510 140 1510 550 1510 c 2,20,-1
 860 1510 l 2,21,22
 1270 1510 1270 1510 1270 1130 c 2,23,-1
 1270 127 l 1,24,-1
 960 -20 l 1,25,-1
 950 -20 l 1,26,-1
 950 1139 l 2,27,28
 950 1210 950 1210 870 1210 c 2,29,-1
 540 1210 l 2,30,31
 460 1210 460 1210 460 1139 c 2,32,-1
 460 127 l 1,33,-1
 150 -20 l 1,16,-1
1819 0 m 1,34,-1
 1356 0 l 1,35,-1
 1356 10 l 1,36,-1
 1437 180 l 1,37,-1
 1900 180 l 1,38,-1
 1900 170 l 1,39,-1
 1819 0 l 1,34,-1
EndSplineSet
Validated: 19457
EndChar

StartChar: uni2117
Encoding: 8471 8471 232
Width: 1321
Flags: W
HStem: 386 48<505.181 810.676> 757 191<611 771.599> 1143 191<611 771.599> 1478 52<504.168 816.773>
VStem: 110 50<794.694 1125.05> 411 200<602 757 948 1143> 776 200<951.408 1139.59> 1160 51<785.868 1126.58>
LayerCount: 2
Fore
SplineSet
776 1127 m 2,0,1
 776 1143 776 1143 756 1143 c 2,2,-1
 611 1143 l 1,3,-1
 611 948 l 1,4,-1
 756 948 l 2,5,6
 776 948 776 948 776 964 c 2,7,-1
 776 1127 l 2,0,1
585 1334 m 1,8,-1
 751 1334 l 2,9,10
 976 1334 976 1334 976 1120 c 2,11,-1
 976 971 l 2,12,13
 976 757 976 757 751 757 c 2,14,-1
 611 757 l 1,15,-1
 611 602 l 1,16,-1
 421 527 l 1,17,-1
 411 527 l 1,18,-1
 411 1257 l 1,19,-1
 585 1334 l 1,8,-1
661 1530 m 0,20,21
 903 1530 903 1530 1059 1357 c 0,22,23
 1211 1188 1211 1188 1211 953 c 0,24,25
 1211 701 1211 701 1050 549 c 0,26,27
 879 386 879 386 659 386 c 0,28,29
 436 386 436 386 271 549 c 0,30,31
 110 708 110 708 110 953 c 0,32,33
 110 1197 110 1197 268 1362 c 0,34,35
 429 1530 429 1530 661 1530 c 0,20,21
659 1478 m 0,36,37
 459 1478 459 1478 310 1330 c 0,38,39
 160 1181 160 1181 160 953 c 0,40,41
 160 750 160 750 307 587 c 0,42,43
 445 434 445 434 661 434 c 0,44,45
 862 434 862 434 1014 587 c 0,46,47
 1160 734 1160 734 1160 953 c 0,48,49
 1160 1185 1160 1185 1016 1327 c 0,50,51
 863 1478 863 1478 659 1478 c 0,36,37
EndSplineSet
Validated: 19457
EndChar

StartChar: integral
Encoding: 8747 8747 233
Width: 948
Flags: W
HStem: -410 300<149 308.783> 1480 300<639.217 799>
VStem: 314 320<-97.9102 1467.91>
LayerCount: 2
Fore
SplineSet
10 -410 m 1,0,-1
 10 -400 l 1,1,-1
 149 -110 l 1,2,-1
 234 -110 l 2,3,4
 314 -110 314 -110 314 -39 c 2,5,-1
 314 1400 l 2,6,7
 314 1780 314 1780 724 1780 c 2,8,-1
 938 1780 l 1,9,-1
 938 1770 l 1,10,-1
 799 1480 l 1,11,-1
 714 1480 l 2,12,13
 634 1480 634 1480 634 1409 c 2,14,-1
 634 -30 l 2,15,16
 634 -410 634 -410 224 -410 c 2,17,-1
 10 -410 l 1,0,-1
EndSplineSet
Validated: 19457
EndChar

StartChar: Agrave
Encoding: 192 192 234
Width: 1410
Flags: W
HStem: -20 21G<140 192.177 950 1002.18> 605 300<460 950> 1210 300<465.217 944.783>
VStem: 140 320<127 605 905 1197.91> 950 320<127 605 905 1197.91>
DStem2: 730 1980 540 1895 0.429396 -0.903116<0 356.108>
LayerCount: 2
Fore
SplineSet
150 -20 m 1,0,-1
 140 -20 l 1,1,-1
 140 1130 l 2,2,3
 140 1510 140 1510 550 1510 c 2,4,-1
 860 1510 l 2,5,6
 1270 1510 1270 1510 1270 1130 c 2,7,-1
 1270 127 l 1,8,-1
 960 -20 l 1,9,-1
 950 -20 l 1,10,-1
 950 605 l 1,11,-1
 460 605 l 1,12,-1
 460 127 l 1,13,-1
 150 -20 l 1,0,-1
460 905 m 1,14,-1
 950 905 l 1,15,-1
 950 1139 l 2,16,17
 950 1210 950 1210 870 1210 c 2,18,19
 540 1210 l 2,20,21
 460 1210 460 1210 460 1139 c 2,22,-1
 460 905 l 1,14,-1
720 1980 m 1,23,-1
 730 1980 l 1,24,-1
 885 1654 l 1,25,-1
 707 1570 l 1,26,-1
 697 1570 l 1,27,-1
 540 1895 l 1,28,-1
 720 1980 l 1,23,-1
EndSplineSet
Validated: 19457
EndChar

StartChar: Aacute
Encoding: 193 193 235
Width: 1410
Flags: W
HStem: -20 21G<140 192.177 950 1002.18> 605 300<460 950> 1210 300<465.217 944.783>
VStem: 140 320<127 605 905 1197.91> 950 320<127 605 905 1197.91>
DStem2: 532 1654 720 1570 0.429396 0.903116<4.86464 360.972>
LayerCount: 2
Fore
SplineSet
150 -20 m 1,0,-1
 140 -20 l 1,1,-1
 140 1130 l 2,2,3
 140 1510 140 1510 550 1510 c 2,4,-1
 860 1510 l 2,5,6
 1270 1510 1270 1510 1270 1130 c 2,7,-1
 1270 127 l 1,8,-1
 960 -20 l 1,9,-1
 950 -20 l 1,10,-1
 950 605 l 1,11,-1
 460 605 l 1,12,-1
 460 127 l 1,13,-1
 150 -20 l 1,0,-1
460 905 m 1,14,-1
 950 905 l 1,15,-1
 950 1139 l 2,16,17
 950 1210 950 1210 870 1210 c 2,18,19
 540 1210 l 2,20,21
 460 1210 460 1210 460 1139 c 2,22,-1
 460 905 l 1,14,-1
697 1980 m 1,23,-1
 877 1895 l 1,24,-1
 720 1570 l 1,25,-1
 710 1570 l 1,26,-1
 532 1654 l 1,27,-1
 687 1980 l 1,28,-1
 697 1980 l 1,23,-1
EndSplineSet
Validated: 19457
EndChar

StartChar: Acircumflex
Encoding: 194 194 236
Width: 1410
Flags: W
HStem: -20 21G<140 192.177 950 1002.18> 605 300<460 950> 1210 300<465.217 944.783>
VStem: 140 320<127 605 905 1197.91> 950 320<127 605 905 1197.91>
LayerCount: 2
Fore
SplineSet
150 -20 m 1,0,-1
 140 -20 l 1,1,-1
 140 1130 l 2,2,3
 140 1510 140 1510 550 1510 c 2,4,-1
 860 1510 l 2,5,6
 1270 1510 1270 1510 1270 1130 c 2,7,-1
 1270 127 l 1,8,-1
 960 -20 l 1,9,-1
 950 -20 l 1,10,-1
 950 605 l 1,11,-1
 460 605 l 1,12,-1
 460 127 l 1,13,-1
 150 -20 l 1,0,-1
460 905 m 1,14,-1
 950 905 l 1,15,-1
 950 1139 l 2,16,17
 950 1210 950 1210 870 1210 c 2,18,19
 540 1210 l 2,20,21
 460 1210 460 1210 460 1139 c 2,22,-1
 460 905 l 1,14,-1
774 1980 m 1,23,-1
 784 1980 l 1,24,-1
 1000 1655 l 1,25,-1
 822 1570 l 1,26,-1
 812 1570 l 1,27,-1
 711 1732 l 1,28,-1
 606 1570 l 1,29,-1
 596 1570 l 1,30,-1
 418 1655 l 1,31,-1
 594 1894 l 1,32,-1
 774 1980 l 1,23,-1
EndSplineSet
Validated: 19457
EndChar

StartChar: Atilde
Encoding: 195 195 237
Width: 1410
Flags: W
HStem: -20 21G<140 192.177 950 1002.18> 605 300<460 950> 1210 300<465.217 944.783> 1620 182<770.253 833.619> 1749 182<586.381 649.747>
VStem: 140 320<127 605 905 1197.91> 950 320<127 605 905 1197.91>
LayerCount: 2
Fore
SplineSet
150 -20 m 1,0,-1
 140 -20 l 1,1,-1
 140 1130 l 2,2,3
 140 1510 140 1510 550 1510 c 2,4,-1
 860 1510 l 2,5,6
 1270 1510 1270 1510 1270 1130 c 2,7,-1
 1270 127 l 1,8,-1
 960 -20 l 1,9,-1
 950 -20 l 1,10,-1
 950 605 l 1,11,-1
 460 605 l 1,12,-1
 460 127 l 1,13,-1
 150 -20 l 1,0,-1
460 905 m 1,14,-1
 950 905 l 1,15,-1
 950 1139 l 2,16,17
 950 1210 950 1210 870 1210 c 2,18,19
 540 1210 l 2,20,21
 460 1210 460 1210 460 1139 c 2,22,-1
 460 905 l 1,14,-1
1010 1931 m 1,23,-1
 1020 1931 l 1,24,25
 1020 1620 1020 1620 821 1620 c 0,26,27
 723 1620 723 1620 642 1715 c 0,28,29
 613 1749 613 1749 604 1749 c 0,30,31
 586 1749 586 1749 586 1704 c 1,32,-1
 410 1620 l 1,33,-1
 400 1620 l 1,34,35
 400 1931 400 1931 599 1931 c 0,36,37
 697 1931 697 1931 778 1836 c 0,38,39
 807 1802 807 1802 816 1802 c 0,40,41
 834 1802 834 1802 834 1847 c 1,42,-1
 1010 1931 l 1,23,-1
EndSplineSet
Validated: 19457
EndChar

StartChar: Adieresis
Encoding: 196 196 238
Width: 1410
Flags: W
HStem: -20 21G<140 192.177 950 1002.18> 605 300<460 950> 1210 300<465.217 944.783> 1620 297<433.833 637.652 771.833 976.167>
VStem: 140 320<127 605 905 1197.91> 390 292<1665.38 1871.62> 728 292<1665.38 1871.62> 950 320<127 605 905 1197.91>
LayerCount: 2
Fore
SplineSet
150 -20 m 1,0,-1
 140 -20 l 1,1,-1
 140 1130 l 2,2,3
 140 1510 140 1510 550 1510 c 2,4,-1
 860 1510 l 2,5,6
 1270 1510 1270 1510 1270 1130 c 2,7,-1
 1270 127 l 1,8,-1
 960 -20 l 1,9,-1
 950 -20 l 1,10,-1
 950 605 l 1,11,-1
 460 605 l 1,12,-1
 460 127 l 1,13,-1
 150 -20 l 1,0,-1
460 905 m 1,14,-1
 950 905 l 1,15,-1
 950 1139 l 2,16,17
 950 1210 950 1210 870 1210 c 2,18,19
 540 1210 l 2,20,21
 460 1210 460 1210 460 1139 c 2,22,-1
 460 905 l 1,14,-1
874.5 1917 m 128,-1,24
 935 1917 935 1917 977.5 1873 c 128,-1,25
 1020 1829 1020 1829 1020 1768.5 c 128,-1,26
 1020 1708 1020 1708 977.5 1664 c 128,-1,27
 935 1620 935 1620 874 1620 c 128,-1,28
 813 1620 813 1620 770.5 1664 c 128,-1,29
 728 1708 728 1708 728 1768 c 0,30,31
 728 1829 728 1829 771 1872 c 0,32,23
 814 1917 814 1917 874.5 1917 c 128,-1,24
535.5 1917 m 128,-1,34
 596 1917 596 1917 639 1873 c 128,-1,35
 682 1829 682 1829 682 1768.5 c 128,-1,36
 682 1708 682 1708 639 1664 c 128,-1,37
 596 1620 596 1620 536 1620 c 0,38,39
 475 1620 475 1620 432.5 1664 c 128,-1,40
 390 1708 390 1708 390 1768 c 0,41,42
 390 1829 390 1829 432 1872 c 0,43,33
 475 1917 475 1917 535.5 1917 c 128,-1,34
EndSplineSet
Validated: 19457
EndChar

StartChar: Aring
Encoding: 197 197 239
Width: 1410
Flags: W
HStem: -20 21G<140 192.177 950 1002.18> 605 300<460 950> 1210 300<465.217 944.783> 1570 112<640.15 777.342> 1858 112<639.9 777.373>
VStem: 140 320<127 605 905 1197.91> 510 111<1701.16 1838.97> 795 111<1702.14 1838.97> 950 320<127 605 905 1197.91>
LayerCount: 2
Fore
SplineSet
150 -20 m 1,0,-1
 140 -20 l 1,1,-1
 140 1130 l 2,2,3
 140 1510 140 1510 550 1510 c 2,4,-1
 860 1510 l 2,5,6
 1270 1510 1270 1510 1270 1130 c 2,7,-1
 1270 127 l 1,8,-1
 960 -20 l 1,9,-1
 950 -20 l 1,10,-1
 950 605 l 1,11,-1
 460 605 l 1,12,-1
 460 127 l 1,13,-1
 150 -20 l 1,0,-1
460 905 m 1,14,-1
 950 905 l 1,15,-1
 950 1139 l 2,16,17
 950 1210 950 1210 870 1210 c 2,18,19
 540 1210 l 2,20,21
 460 1210 460 1210 460 1139 c 2,22,-1
 460 905 l 1,14,-1
709.5 1858 m 128,-1,24
 672 1858 672 1858 646.5 1832 c 128,-1,25
 621 1806 621 1806 621 1770 c 128,-1,26
 621 1734 621 1734 646.5 1708 c 128,-1,27
 672 1682 672 1682 708 1682 c 256,28,29
 746 1682 746 1682 772 1710 c 0,30,31
 795 1735 795 1735 795 1770 c 0,32,33
 795 1806 795 1806 771 1832 c 128,-1,23
 747 1858 747 1858 709.5 1858 c 128,-1,24
710 1970 m 0,34,35
 790 1970 790 1970 848 1912 c 0,36,37
 906 1852 906 1852 906 1771 c 0,38,39
 906 1687 906 1687 848 1629 c 0,40,41
 789 1570 789 1570 708 1570 c 256,42,43
 628 1570 628 1570 568 1629 c 0,44,45
 510 1687 510 1687 510 1771 c 0,46,47
 510 1852 510 1852 568 1912 c 0,48,49
 626 1970 626 1970 710 1970 c 0,34,35
EndSplineSet
Validated: 19457
EndChar

StartChar: Amacron
Encoding: 256 256 240
Width: 1410
Flags: W
HStem: -20 21G<140 192.177 950 1002.18> 605 300<460 950> 1210 300<465.217 944.783> 1680 190<498 946>
VStem: 140 320<127 605 905 1197.91> 950 320<127 605 905 1197.91>
LayerCount: 2
Fore
SplineSet
150 -20 m 1,0,-1
 140 -20 l 1,1,-1
 140 1130 l 2,2,3
 140 1510 140 1510 550 1510 c 2,4,-1
 860 1510 l 2,5,6
 1270 1510 1270 1510 1270 1130 c 2,7,-1
 1270 127 l 1,8,-1
 960 -20 l 1,9,-1
 950 -20 l 1,10,-1
 950 605 l 1,11,-1
 460 605 l 1,12,-1
 460 127 l 1,13,-1
 150 -20 l 1,0,-1
460 905 m 1,14,-1
 950 905 l 1,15,-1
 950 1139 l 2,16,17
 950 1210 950 1210 870 1210 c 2,18,19
 540 1210 l 2,20,21
 460 1210 460 1210 460 1139 c 2,22,-1
 460 905 l 1,14,-1
498 1870 m 1,23,-1
 1032 1870 l 1,24,-1
 1032 1860 l 1,25,-1
 946 1680 l 1,26,-1
 412 1680 l 1,27,-1
 412 1690 l 1,28,-1
 498 1870 l 1,23,-1
EndSplineSet
Validated: 19457
EndChar

StartChar: Abreve
Encoding: 258 258 241
Width: 1410
Flags: W
HStem: -20 21G<140 192.177 950 1002.18> 605 300<460 950> 1210 300<465.217 944.783> 1650 200<542.531 877.469>
VStem: 140 320<127 605 905 1197.91> 950 320<127 605 905 1197.91>
LayerCount: 2
Fore
SplineSet
150 -20 m 1,0,-1
 140 -20 l 1,1,-1
 140 1130 l 2,2,3
 140 1510 140 1510 550 1510 c 2,4,-1
 860 1510 l 2,5,6
 1270 1510 1270 1510 1270 1130 c 2,7,-1
 1270 127 l 1,8,-1
 960 -20 l 1,9,-1
 950 -20 l 1,10,-1
 950 605 l 1,11,-1
 460 605 l 1,12,-1
 460 127 l 1,13,-1
 150 -20 l 1,0,-1
460 905 m 1,14,-1
 950 905 l 1,15,-1
 950 1139 l 2,16,17
 950 1210 950 1210 870 1210 c 2,18,19
 540 1210 l 2,20,21
 460 1210 460 1210 460 1139 c 2,22,-1
 460 905 l 1,14,-1
490 1945 m 1,23,24
 560 1850 560 1850 710 1850 c 128,-1,25
 860 1850 860 1850 930 1945 c 1,26,-1
 1020 1756 l 1,27,-1
 1020 1746 l 1,28,29
 888 1650 888 1650 710 1650 c 128,-1,30
 532 1650 532 1650 400 1746 c 1,31,-1
 400 1756 l 1,32,-1
 490 1945 l 1,23,24
EndSplineSet
Validated: 19457
EndChar

StartChar: Aogonek
Encoding: 260 260 242
Width: 1410
Flags: W
HStem: -430 21G<839.5 940.818> -20 21G<140 192.177> 605 300<460 950> 1210 300<465.217 944.783>
VStem: 140 320<127 605 905 1197.91> 950 320<127 605 905 1197.91>
LayerCount: 2
Fore
SplineSet
150 -20 m 1,0,-1
 140 -20 l 1,1,-1
 140 1130 l 2,2,3
 140 1510 140 1510 550 1510 c 2,4,5
 860 1510 l 2,6,7
 1270 1510 1270 1510 1270 1130 c 2,8,-1
 1270 127 l 1,9,-1
 1105 49 l 1,10,11
 997 -60 997 -60 997 -164 c 0,12,13
 997 -287 997 -287 1129 -320 c 1,14,-1
 899 -430 l 1,15,-1
 889 -430 l 1,16,17
 790 -354 790 -354 790 -236 c 0,18,19
 790 -94 790 -94 950 -1 c 1,20,-1
 950 605 l 1,21,-1
 460 605 l 1,22,-1
 460 127 l 1,23,-1
 150 -20 l 1,0,-1
460 905 m 1,24,-1
 950 905 l 1,25,-1
 950 1139 l 2,26,27
 950 1210 950 1210 870 1210 c 2,28,-1
 540 1210 l 2,29,30
 460 1210 460 1210 460 1139 c 2,31,-1
 460 905 l 1,24,-1
EndSplineSet
Validated: 19457
EndChar

StartChar: Aringacute
Encoding: 506 506 243
Width: 1410
Flags: W
HStem: -20 21G<140 192.177 950 1002.18> 605 300<460 950> 1210 300<465.217 944.783> 1570 112<542.15 679.342> 1858 112<541.9 679.373>
VStem: 140 320<127 605 905 1197.91> 412 111<1701.16 1838.97> 697 111<1702.14 1838.97> 950 320<127 605 905 1197.91>
DStem2: 802 1644 990 1560 0.429396 0.903116<4.86464 360.972>
LayerCount: 2
Fore
SplineSet
150 -20 m 1,0,-1
 140 -20 l 1,1,-1
 140 1130 l 2,2,3
 140 1510 140 1510 550 1510 c 2,4,-1
 860 1510 l 2,5,6
 1270 1510 1270 1510 1270 1130 c 2,7,-1
 1270 127 l 1,8,-1
 960 -20 l 1,9,-1
 950 -20 l 1,10,-1
 950 605 l 1,11,-1
 460 605 l 1,12,-1
 460 127 l 1,13,-1
 150 -20 l 1,0,-1
460 905 m 1,14,-1
 950 905 l 1,15,-1
 950 1139 l 2,16,17
 950 1210 950 1210 870 1210 c 2,18,19
 540 1210 l 2,20,21
 460 1210 460 1210 460 1139 c 2,22,-1
 460 905 l 1,14,-1
611.5 1858 m 128,-1,24
 574 1858 574 1858 548.5 1832 c 128,-1,25
 523 1806 523 1806 523 1770 c 128,-1,26
 523 1734 523 1734 548.5 1708 c 128,-1,27
 574 1682 574 1682 610 1682 c 256,28,29
 648 1682 648 1682 674 1710 c 0,30,31
 697 1735 697 1735 697 1770 c 0,32,33
 697 1806 697 1806 673 1832 c 128,-1,23
 649 1858 649 1858 611.5 1858 c 128,-1,24
612 1970 m 0,34,35
 692 1970 692 1970 750 1912 c 0,36,37
 808 1852 808 1852 808 1771 c 0,38,39
 808 1687 808 1687 750 1629 c 0,40,41
 691 1570 691 1570 610 1570 c 256,42,43
 530 1570 530 1570 470 1629 c 0,44,45
 412 1687 412 1687 412 1771 c 0,46,47
 412 1852 412 1852 470 1912 c 0,48,49
 528 1970 528 1970 612 1970 c 0,34,35
967 1970 m 1,50,-1
 1147 1885 l 1,51,-1
 990 1560 l 1,52,-1
 980 1560 l 1,53,-1
 802 1644 l 1,54,-1
 957 1970 l 1,55,-1
 967 1970 l 1,50,-1
EndSplineSet
Validated: 19457
EndChar

StartChar: Ccedilla
Encoding: 199 199 244
Width: 1250
Flags: W
HStem: -410 21G<481 671> 0 300<445.217 587 750 884.783> 1210 300<445.217 884.783>
VStem: 120 320<312.09 1197.91> 587 163<-61.7314 0> 653 208<-207.507 -85.3716> 890 320<312.09 410 1122 1202.23>
LayerCount: 2
Fore
SplineSet
530 0 m 2,0,1
 120 0 120 0 120 380 c 2,2,-1
 120 1130 l 2,3,4
 120 1510 120 1510 530 1510 c 2,5,-1
 800 1510 l 2,6,7
 1210 1510 1210 1510 1210 1122 c 1,8,-1
 900 974 l 1,9,-1
 890 974 l 1,10,-1
 890 1139 l 2,11,12
 890 1210 890 1210 810 1210 c 2,13,-1
 520 1210 l 2,14,15
 440 1210 440 1210 440 1139 c 2,16,-1
 440 371 l 2,17,18
 440 300 440 300 520 300 c 2,19,-1
 810 300 l 2,20,21
 890 300 890 300 890 371 c 2,22,-1
 890 410 l 1,23,-1
 1200 558 l 1,24,-1
 1210 558 l 1,25,-1
 1210 380 l 2,26,27
 1210 0 1210 0 800 0 c 2,28,-1
 750 0 l 1,29,-1
 750 -40 l 1,30,31
 861 -83 861 -83 861 -187 c 0,32,33
 861 -410 861 -410 481 -410 c 1,34,-1
 481 -400 l 1,35,-1
 567 -220 l 1,36,37
 653 -204 653 -204 653 -145 c 0,38,39
 653 -100 653 -100 587 -76 c 1,40,-1
 587 0 l 1,41,-1
 530 0 l 2,0,1
EndSplineSet
Validated: 19457
EndChar

StartChar: Cacute
Encoding: 262 262 245
Width: 1250
Flags: W
HStem: 0 300<445.217 884.783> 1210 300<445.217 884.783>
VStem: 120 320<312.09 1197.91> 890 320<312.09 410 1122 1202.23>
DStem2: 511 1654 699 1570 0.429396 0.903116<4.86464 360.972>
LayerCount: 2
Fore
SplineSet
530 0 m 2,0,1
 120 0 120 0 120 380 c 2,2,-1
 120 1130 l 2,3,4
 120 1510 120 1510 530 1510 c 2,5,-1
 800 1510 l 2,6,7
 1210 1510 1210 1510 1210 1122 c 1,8,-1
 900 974 l 1,9,-1
 890 974 l 1,10,-1
 890 1139 l 2,11,12
 890 1210 890 1210 810 1210 c 2,13,-1
 520 1210 l 2,14,15
 440 1210 440 1210 440 1139 c 2,16,-1
 440 371 l 2,17,18
 440 300 440 300 520 300 c 2,19,-1
 810 300 l 2,20,21
 890 300 890 300 890 371 c 2,22,-1
 890 410 l 1,23,-1
 1200 558 l 1,24,-1
 1210 558 l 1,25,-1
 1210 380 l 2,26,27
 1210 0 1210 0 800 0 c 2,28,-1
 530 0 l 2,0,1
676 1980 m 1,29,-1
 856 1895 l 1,30,-1
 699 1570 l 1,31,-1
 689 1570 l 1,32,-1
 511 1654 l 1,33,-1
 666 1980 l 1,34,-1
 676 1980 l 1,29,-1
EndSplineSet
Validated: 19457
EndChar

StartChar: Ccircumflex
Encoding: 264 264 246
Width: 1250
Flags: W
HStem: 0 300<445.217 884.783> 1210 300<445.217 884.783>
VStem: 120 320<312.09 1197.91> 890 320<312.09 410 1122 1202.23>
LayerCount: 2
Fore
SplineSet
530 0 m 2,0,1
 120 0 120 0 120 380 c 2,2,-1
 120 1130 l 2,3,4
 120 1510 120 1510 530 1510 c 2,5,-1
 800 1510 l 2,6,7
 1210 1510 1210 1510 1210 1122 c 1,8,-1
 900 974 l 1,9,-1
 890 974 l 1,10,-1
 890 1139 l 2,11,12
 890 1210 890 1210 810 1210 c 2,13,-1
 520 1210 l 2,14,15
 440 1210 440 1210 440 1139 c 2,16,-1
 440 371 l 2,17,18
 440 300 440 300 520 300 c 2,19,-1
 810 300 l 2,20,21
 890 300 890 300 890 371 c 2,22,-1
 890 410 l 1,23,-1
 1200 558 l 1,24,-1
 1210 558 l 1,25,-1
 1210 380 l 2,26,27
 1210 0 1210 0 800 0 c 2,28,-1
 530 0 l 2,0,1
731 1980 m 1,29,-1
 741 1980 l 1,30,-1
 957 1655 l 1,31,-1
 779 1570 l 1,32,-1
 769 1570 l 1,33,-1
 668 1732 l 1,34,-1
 563 1570 l 1,35,-1
 553 1570 l 1,36,-1
 375 1655 l 1,37,-1
 551 1894 l 1,38,-1
 731 1980 l 1,29,-1
EndSplineSet
Validated: 19457
EndChar

StartChar: Cdotaccent
Encoding: 266 266 247
Width: 1250
Flags: W
HStem: 0 300<445.217 884.783> 1210 300<445.217 884.783> 1590 364<548.131 782.338>
VStem: 120 320<312.09 1197.91> 486 360<1654.3 1891.73> 890 320<312.09 410 1122 1202.23>
LayerCount: 2
Fore
SplineSet
530 0 m 2,0,1
 120 0 120 0 120 380 c 2,2,-1
 120 1130 l 2,3,4
 120 1510 120 1510 530 1510 c 2,5,-1
 800 1510 l 2,6,7
 1210 1510 1210 1510 1210 1122 c 1,8,-1
 900 974 l 1,9,-1
 890 974 l 1,10,-1
 890 1139 l 2,11,12
 890 1210 890 1210 810 1210 c 2,13,-1
 520 1210 l 2,14,15
 440 1210 440 1210 440 1139 c 2,16,-1
 440 371 l 2,17,18
 440 300 440 300 520 300 c 2,19,-1
 810 300 l 2,20,21
 890 300 890 300 890 371 c 2,22,-1
 890 410 l 1,23,-1
 1200 558 l 1,24,-1
 1210 558 l 1,25,-1
 1210 380 l 2,26,27
 1210 0 1210 0 800 0 c 2,28,-1
 530 0 l 2,0,1
666 1954 m 0,29,30
 742 1954 742 1954 794 1901 c 128,-1,31
 846 1848 846 1848 846 1773 c 0,32,33
 846 1699 846 1699 793 1644 c 0,34,35
 741 1590 741 1590 666 1590 c 0,36,37
 589 1590 589 1590 537.5 1644 c 128,-1,38
 486 1698 486 1698 486 1772 c 0,39,40
 486 1848 486 1848 538 1900 c 0,41,42
 591 1954 591 1954 666 1954 c 0,29,30
EndSplineSet
Validated: 19457
EndChar

StartChar: Ccaron
Encoding: 268 268 248
Width: 1250
Flags: W
HStem: 0 300<445.217 884.783> 1210 300<445.217 884.783>
VStem: 120 320<312.09 1197.91> 890 320<312.09 410 1122 1202.23>
LayerCount: 2
Fore
SplineSet
530 0 m 2,0,1
 120 0 120 0 120 380 c 2,2,-1
 120 1130 l 2,3,4
 120 1510 120 1510 530 1510 c 2,5,-1
 800 1510 l 2,6,7
 1210 1510 1210 1510 1210 1122 c 1,8,-1
 900 974 l 1,9,-1
 890 974 l 1,10,-1
 890 1139 l 2,11,12
 890 1210 890 1210 810 1210 c 2,13,-1
 520 1210 l 2,14,15
 440 1210 440 1210 440 1139 c 2,16,-1
 440 371 l 2,17,18
 440 300 440 300 520 300 c 2,19,-1
 810 300 l 2,20,21
 890 300 890 300 890 371 c 2,22,-1
 890 410 l 1,23,-1
 1200 558 l 1,24,-1
 1210 558 l 1,25,-1
 1210 380 l 2,26,27
 1210 0 1210 0 800 0 c 2,28,-1
 530 0 l 2,0,1
532 1980 m 1,29,-1
 542 1980 l 1,30,-1
 643 1818 l 1,31,-1
 748 1980 l 1,32,-1
 758 1980 l 1,33,-1
 936 1895 l 1,34,-1
 760 1656 l 1,35,-1
 580 1570 l 1,36,-1
 570 1570 l 1,37,-1
 354 1895 l 1,38,-1
 532 1980 l 1,29,-1
EndSplineSet
Validated: 19457
EndChar

StartChar: Dcaron
Encoding: 270 270 249
Width: 1390
Flags: W
HStem: 0 300<480 944.783> 1210 300<480 944.783>
VStem: 160 320<300 1210> 950 320<312.09 1197.91>
LayerCount: 2
Fore
SplineSet
480 300 m 1,0,-1
 870 300 l 2,1,2
 950 300 950 300 950 371 c 2,3,-1
 950 1139 l 2,4,5
 950 1210 950 1210 870 1210 c 2,6,-1
 480 1210 l 1,7,-1
 480 300 l 1,0,-1
160 0 m 1,8,-1
 160 1383 l 1,9,-1
 428 1510 l 1,10,-1
 860 1510 l 2,11,12
 1270 1510 1270 1510 1270 1130 c 2,13,-1
 1270 380 l 2,14,15
 1270 0 1270 0 860 0 c 2,16,-1
 160 0 l 1,8,-1
552 1980 m 1,17,-1
 562 1980 l 1,18,-1
 663 1818 l 1,19,-1
 768 1980 l 1,20,-1
 778 1980 l 1,21,-1
 956 1895 l 1,22,-1
 780 1656 l 1,23,-1
 600 1570 l 1,24,-1
 590 1570 l 1,25,-1
 374 1895 l 1,26,-1
 552 1980 l 1,17,-1
EndSplineSet
Validated: 19457
EndChar

StartChar: Egrave
Encoding: 200 200 250
Width: 1100
Flags: W
HStem: 0 300<480 954> 605 300<480 904> 1210 300<480 904>
VStem: 160 320<300 605 905 1210>
DStem2: 619 1980 429 1895 0.429396 -0.903116<0 356.108>
CounterMasks: 1 e0
LayerCount: 2
Fore
SplineSet
609 1980 m 1,0,-1
 619 1980 l 1,1,-1
 774 1654 l 1,2,-1
 596 1570 l 1,3,-1
 586 1570 l 1,4,-1
 429 1895 l 1,5,-1
 609 1980 l 1,0,-1
160 0 m 1,6,-1
 160 1384 l 1,7,-1
 428 1510 l 1,8,-1
 1040 1510 l 1,9,-1
 1040 1500 l 1,10,-1
 904 1210 l 1,11,-1
 480 1210 l 1,12,-1
 480 905 l 1,13,-1
 1040 905 l 1,14,-1
 1040 895 l 1,15,-1
 904 605 l 1,16,-1
 480 605 l 1,17,-1
 480 300 l 1,18,-1
 1090 300 l 1,19,-1
 1090 290 l 1,20,-1
 954 0 l 1,21,-1
 160 0 l 1,6,-1
EndSplineSet
Validated: 19457
EndChar

StartChar: Eacute
Encoding: 201 201 251
Width: 1100
Flags: W
HStem: 0 300<480 954> 605 300<480 904> 1210 300<480 904>
VStem: 160 320<300 605 905 1210>
DStem2: 459 1654 647 1570 0.429396 0.903116<4.86464 360.972>
CounterMasks: 1 e0
LayerCount: 2
Fore
SplineSet
624 1980 m 1,0,-1
 804 1895 l 1,1,-1
 647 1570 l 1,2,-1
 637 1570 l 1,3,-1
 459 1654 l 1,4,-1
 614 1980 l 1,5,-1
 624 1980 l 1,0,-1
160 0 m 1,6,-1
 160 1384 l 1,7,-1
 428 1510 l 1,8,-1
 1040 1510 l 1,9,-1
 1040 1500 l 1,10,-1
 904 1210 l 1,11,-1
 480 1210 l 1,12,-1
 480 905 l 1,13,-1
 1040 905 l 1,14,-1
 1040 895 l 1,15,-1
 904 605 l 1,16,-1
 480 605 l 1,17,-1
 480 300 l 1,18,-1
 1090 300 l 1,19,-1
 1090 290 l 1,20,-1
 954 0 l 1,21,-1
 160 0 l 1,6,-1
EndSplineSet
Validated: 19457
EndChar

StartChar: Ecircumflex
Encoding: 202 202 252
Width: 1100
Flags: W
HStem: 0 300<480 954> 605 300<480 904> 1210 300<480 904>
VStem: 160 320<300 605 905 1210>
CounterMasks: 1 e0
LayerCount: 2
Fore
SplineSet
645 1980 m 1,0,-1
 655 1980 l 1,1,-1
 871 1655 l 1,2,-1
 693 1570 l 1,3,-1
 683 1570 l 1,4,-1
 582 1732 l 1,5,-1
 477 1570 l 1,6,-1
 467 1570 l 1,7,-1
 289 1655 l 1,8,-1
 465 1894 l 1,9,-1
 645 1980 l 1,0,-1
160 0 m 1,10,-1
 160 1384 l 1,11,-1
 428 1510 l 1,12,-1
 1040 1510 l 1,13,-1
 1040 1500 l 1,14,-1
 904 1210 l 1,15,-1
 480 1210 l 1,16,-1
 480 905 l 1,17,-1
 1040 905 l 1,18,-1
 1040 895 l 1,19,-1
 904 605 l 1,20,-1
 480 605 l 1,21,-1
 480 300 l 1,22,-1
 1090 300 l 1,23,-1
 1090 290 l 1,24,-1
 954 0 l 1,25,-1
 160 0 l 1,10,-1
EndSplineSet
Validated: 19457
EndChar

StartChar: Edieresis
Encoding: 203 203 253
Width: 1100
Flags: W
HStem: 0 300<480 954> 605 300<480 904> 1210 300<480 904> 1620 297<305.833 509.652 643.833 848.167>
VStem: 160 320<300 605 905 1210> 262 292<1665.38 1871.62> 600 292<1665.38 1871.62>
LayerCount: 2
Fore
SplineSet
746.5 1917 m 128,-1,1
 807 1917 807 1917 849.5 1873 c 128,-1,2
 892 1829 892 1829 892 1768.5 c 128,-1,3
 892 1708 892 1708 849.5 1664 c 128,-1,4
 807 1620 807 1620 746 1620 c 128,-1,5
 685 1620 685 1620 642.5 1664 c 128,-1,6
 600 1708 600 1708 600 1768 c 0,7,8
 600 1829 600 1829 643 1872 c 0,9,0
 686 1917 686 1917 746.5 1917 c 128,-1,1
407.5 1917 m 128,-1,11
 468 1917 468 1917 511 1873 c 128,-1,12
 554 1829 554 1829 554 1768.5 c 128,-1,13
 554 1708 554 1708 511 1664 c 128,-1,14
 468 1620 468 1620 408 1620 c 0,15,16
 347 1620 347 1620 304.5 1664 c 128,-1,17
 262 1708 262 1708 262 1768 c 0,18,19
 262 1829 262 1829 304 1872 c 0,20,10
 347 1917 347 1917 407.5 1917 c 128,-1,11
160 0 m 1,21,-1
 160 1384 l 1,22,-1
 428 1510 l 1,23,-1
 1040 1510 l 1,24,-1
 1040 1500 l 1,25,-1
 904 1210 l 1,26,-1
 480 1210 l 1,27,-1
 480 905 l 1,28,-1
 1040 905 l 1,29,-1
 1040 895 l 1,30,-1
 904 605 l 1,31,-1
 480 605 l 1,32,-1
 480 300 l 1,33,-1
 1090 300 l 1,34,-1
 1090 290 l 1,35,-1
 954 0 l 1,36,-1
 160 0 l 1,21,-1
EndSplineSet
Validated: 19457
EndChar

